SplineFontDB: 1.0
FontName: ChampionCourrierNormal
FullName: ChampionCourrier Normal
FamilyName: ChampionCourrier
Weight: Book
Copyright: Francois BoltanaCopr. creee en 1989
Version: Macromedia Fontographer 4.1 18/02/1997
ItalicAngle: -37
UnderlinePosition: 20
UnderlineWidth: 41
Ascent: 685
Descent: 315
Order2: 1
NeedsXUIDChange: 1
FSType: 2
PfmFamily: 81
TTFWeight: 400
TTFWidth: 5
Panose: 0 0 4 0 0 0 0 0 0 0
LineGap: 0
VLineGap: 0
TtfTable: maxp 32
!!*'"!1EoA!!WE'!!!!#!!iQi!"&]+!+GrY!!*'#
EndTtf
TtfTable: cvt  18
rgWrZ!,;OK!f'rg>%.I5!!E9%
EndTtf
TtfTable: fpgm 20
5QLj9G"!OX"!pA\@;$K&BOF4[
EndTtf
TtfTable: prep 33
5RR\t!s8T+!<E0#!KFSis+NmT6q(cW7;,(XBLG:&6i[2e
EndTtf
LangName: 1033 "Fran+AOcA-ois BoltanaCopr. cr+AOkA6QAA-e en 1989" "" "" "Macromedia Fontographer 4.1 ChampionCourrier Normal" "" "Macromedia Fontographer 4.1 18/02/1997" 
Encoding: unicode
DisplaySize: -24
AntiAlias: 1
WinInfo: 32 16 18
BeginChars: 65539 156
StartChar: .notdef
Encoding: 0 -1
Width: 500
Flags: W
Fore
63 0 m 1
 63 623 l 1
 438 623 l 1
 438 0 l 1
 63 0 l 1
125 63 m 1
 375 63 l 1
 375 561 l 1
 125 561 l 1
 125 63 l 1
EndSplineSet
EndChar
StartChar: exclam
Encoding: 33 33
Width: 143
Flags: W
Fore
51 50 m 1
 43 56 l 1
 79 107 l 1
 160 220 l 2
 178 246 178 246 205 281 c 0
 236 322 236 322 247 322 c 0
 258 322 258 322 258 313 c 0
 258 311 258 311 254 301 c 0
 245 284 245 284 207 240 c 2
 178 206 l 1
 150 171 150 171 93 101 c 2
 51 50 l 1
19 29 m 2
 20 29 l 2
 34 29 34 29 34 17 c 0
 34 -2 34 -2 13 -2 c 0
 -1 -2 -1 -2 -1 10 c 0
 -1 29 -1 29 19 29 c 2
EndSplineSet
EndChar
StartChar: quotedbl
Encoding: 34 34
Width: 151
Flags: W
Fore
150 227 m 1
 148 235 l 1
 182 249 182 249 189 272 c 2
 194 289 l 2
 199 306 199 306 214 306 c 0
 226 306 226 306 226 295 c 0
 226 278 226 278 204 258 c 0
 178 234 178 234 150 227 c 1
216 227 m 1
 214 235 l 1
 248 249 248 249 255 272 c 2
 260 289 l 2
 265 306 265 306 280 306 c 0
 292 306 292 306 292 295 c 0
 292 278 292 278 270 258 c 0
 244 234 244 234 216 227 c 1
EndSplineSet
EndChar
StartChar: dollar
Encoding: 36 36
Width: 116
Flags: W
Fore
56 99 m 1
 60 130 60 130 87 130 c 0
 96 130 96 130 96 123 c 0
 96 116 96 116 84 106 c 0
 79 101 79 101 74 97 c 1
 75 95 75 95 76.5 90.5 c 128
 78 86 78 86 80.5 77 c 128
 83 68 83 68 83 57 c 0
 83 41 83 41 70 25 c 1
 103 34 103 34 135 65 c 1
 142 57 l 1
 116 34 116 34 96 24 c 0
 81 17 81 17 55 13 c 1
 34 0 34 0 8 0 c 0
 -24 0 -24 0 -37 11 c 1
 -46 7 -46 7 -60 2 c 1
 -63 11 l 1
 -56 13 -56 13 -40 21 c 1
 -36 33 -36 33 -17 34 c 1
 -6 41 -6 41 30 73 c 2
 40 82 l 2
 47 89 47 89 56 99 c 1
43 24 m 1
 54 37 54 37 56 84 c 1
 33 57 33 57 -1 33 c 1
 6 32 6 32 23 28 c 0
 29 27 29 27 43 24 c 1
32 15 m 1
 24 17 l 1
 14 19 l 1
 5 21 l 2
 4 21 4 21 2 22 c 0
 -1 22 -1 22 -2 22 c 0
 -10 22 -10 22 -10 17 c 0
 -10 10 -10 10 11 10 c 0
 20 10 20 10 32 15 c 1
EndSplineSet
EndChar
StartChar: percent
Encoding: 37 37
Width: 284
Flags: W
Fore
9 -4 m 1
 2 6 l 1
 341 251 l 1
 303 238 303 238 282 238 c 0
 265 238 265 238 253 247 c 1
 244 225 244 225 215.5 206 c 128
 187 187 187 187 163 187 c 0
 134 187 134 187 134 211 c 0
 134 239 134 239 170 266 c 0
 203 291 203 291 231 291 c 0
 257 291 257 291 257 272 c 2
 257 265 l 2
 257 248 257 248 288 248 c 0
 329 248 329 248 368 271 c 1
 376 279 l 2
 405 308 405 308 413 308 c 0
 419 308 419 308 419 301 c 0
 419 296 419 296 403 283 c 2
 388 271 l 1
 9 -4 l 1
182 -1 m 0
 160 1 160 1 160 23 c 0
 160 51 160 51 195 77 c 128
 230 103 230 103 257 103 c 0
 289 103 289 103 289 78 c 0
 289 61 289 61 271 41 c 0
 232 -2 232 -2 189 -2 c 0
 184 -2 184 -2 182 -1 c 0
242 282 m 1
 234 284 234 284 233 284 c 0
 217 284 217 284 195 264 c 0
 163 235 163 235 163 213 c 0
 163 199 163 199 177 199 c 0
 192 199 192 199 212.5 218.5 c 128
 233 238 233 238 241 261 c 1
 238 275 238 275 238 276 c 0
 238 278 238 278 242 282 c 1
270 79 m 0
 270 77 270 77 271 83 c 0
 271 96 271 96 259 96 c 0
 243 96 243 96 221 76 c 0
 188 46 188 46 188 24 c 0
 188 11 188 11 203 11 c 0
 219 11 219 11 239 30 c 0
 267 56 267 56 270 79 c 0
EndSplineSet
EndChar
StartChar: ampersand
Encoding: 38 38
Width: 429
Flags: W
Fore
453 475 m 1
 447 477 l 1
 524 586 524 586 648 586 c 0
 709 586 709 586 745.5 554.5 c 128
 782 523 782 523 782 470 c 0
 782 424 782 424 753 384 c 0
 715 332 715 332 621 284 c 0
 557 252 557 252 453 230 c 0
 429 225 429 225 380 218 c 1
 438 213 438 213 438 154 c 0
 438 87 438 87 364 35 c 0
 312 -1 312 -1 256 -1 c 0
 209 -1 209 -1 209 35 c 0
 209 39 209 39 211 53 c 1
 156 13 156 13 103 13 c 0
 33 13 33 13 33 71 c 0
 33 134 33 134 122 177 c 0
 165 198 165 198 222 212 c 0
 272 224 272 224 368 235 c 0
 481 247 481 247 524 259 c 0
 592 277 592 277 643 307 c 0
 760 376 760 376 760 462 c 0
 760 513 760 513 728 542.5 c 128
 696 572 696 572 641 572 c 0
 538 572 538 572 465 488 c 2
 458 480 l 1
 453 475 l 1
247 51 m 1
 244 44 244 44 244 39 c 0
 244 17 244 17 275 17 c 0
 322 17 322 17 365 49 c 0
 425 94 425 94 425 143 c 0
 425 211 425 211 315 211 c 0
 211 211 211 211 134 171.5 c 128
 57 132 57 132 57 79 c 0
 57 28 57 28 115 28 c 0
 174 28 174 28 217 69 c 1
 240 100 240 100 274.5 121.5 c 128
 309 143 309 143 337 143 c 0
 356 143 356 143 356 127 c 0
 356 114 356 114 345 104 c 128
 334 94 334 94 304.5 78.5 c 128
 275 63 275 63 247 51 c 1
251 64 m 1
 331 96 331 96 331 121 c 0
 331 129 331 129 320 129 c 0
 288 129 288 129 251 64 c 1
EndSplineSet
EndChar
StartChar: quotesingle
Encoding: 39 39
Width: 150
Flags: W
Fore
178 227 m 1
 176 235 l 1
 210 249 210 249 217 272 c 2
 222 289 l 2
 227 306 227 306 242 306 c 0
 254 306 254 306 254 295 c 0
 254 278 254 278 232 258 c 0
 207 235 207 235 178 227 c 1
EndSplineSet
EndChar
StartChar: parenleft
Encoding: 40 40
Width: 152
Flags: W
Fore
427 438 m 1
 431 429 l 1
 314 380 314 380 207 266 c 0
 135 189 135 189 100 107 c 0
 70 36 70 36 59 -63 c 2
 58 -72 l 1
 50 -73 l 1
 46 -50 46 -50 46 -21 c 0
 46 129 46 129 159 250 c 0
 215 310 215 310 309 374 c 0
 341 396 341 396 366 409 c 0
 380 417 380 417 422 436 c 2
 427 438 l 1
EndSplineSet
EndChar
StartChar: parenright
Encoding: 41 41
Width: 187
Flags: W
Fore
-49 -73 m 1
 -52 -64 l 1
 59 -18 59 -18 170 102 c 0
 300 243 300 243 314 402 c 0
 315 414 315 414 315 441 c 1
 323 442 l 1
 328 411 328 411 328 385 c 0
 328 240 328 240 217 118 c 0
 161 56 161 56 69 -8 c 0
 42 -27 42 -27 12 -44 c 0
 1 -51 1 -51 -44 -71 c 2
 -49 -73 l 1
EndSplineSet
EndChar
StartChar: asterisk
Encoding: 42 42
Width: 258
Flags: W
Fore
301 256 m 1
 301 253 l 1
 328 247 328 247 337 244 c 0
 339 244 339 244 342 243 c 0
 366 239 366 239 366 227 c 0
 366 218 366 218 356 218 c 0
 348 218 348 218 315 237 c 0
 310 240 310 240 298 247 c 1
 296 245 l 1
 304 233 l 2
 327 199 327 199 327 189 c 0
 327 179 327 179 317 179 c 0
 307 179 307 179 296 222 c 0
 294 229 294 229 290 243 c 1
 287 243 l 1
 278 204 l 2
 277 199 277 199 277 200 c 0
 273 179 273 179 261 179 c 0
 252 179 252 179 252 189 c 0
 252 197 252 197 271 228 c 0
 281 246 l 1
 279 249 l 1
 233 217 233 217 224 217 c 0
 212 217 212 217 212 228 c 0
 212 237 212 237 228 241 c 0
 235 243 235 243 256 249 c 0
 262 251 262 251 277 255 c 1
 277 257 l 1
 229 269 l 2
 212 273 212 273 212 282 c 0
 212 293 212 293 224 293 c 0
 230 293 230 293 264 273 c 0
 269 270 269 270 281 264 c 1
 282 265 l 1
 251 312 251 312 251 322 c 0
 251 332 251 332 261 332 c 0
 272 332 272 332 283 288 c 0
 285 282 285 282 289 268 c 1
 291 268 l 1
 297 289 l 1
 303 316 l 1
 307 332 307 332 318 332 c 0
 327 332 327 332 327 321 c 0
 327 315 327 315 319 304 c 0
 318 301 318 301 312 290 c 0
 310 287 310 287 303 275 c 0
 302 272 302 272 298 264 c 1
 300 263 l 1
 311 270 l 2
 347 293 347 293 355 293 c 0
 366 293 366 293 366 283 c 0
 366 272 366 272 301 256 c 1
EndSplineSet
EndChar
StartChar: plus
Encoding: 43 43
Width: 133
Flags: W
Fore
-1 80 m 1
 71 80 l 1
 71 152 l 1
 94 152 l 1
 94 80 l 1
 165 80 l 1
 165 58 l 1
 94 58 l 1
 94 -14 l 1
 71 -14 l 1
 71 58 l 1
 -1 58 l 1
 -1 80 l 1
EndSplineSet
EndChar
StartChar: comma
Encoding: 44 44
Width: 67
Flags: W
Fore
-8 -44 m 1
 -10 -36 l 1
 25 -22 25 -22 31 0 c 2
 36 18 l 2
 40 34 40 34 57 34 c 0
 68 34 68 34 68 23 c 0
 68 6 68 6 47 -14 c 0
 23 -36 23 -36 -8 -44 c 1
EndSplineSet
EndChar
StartChar: hyphen
Encoding: 45 45
Width: 182
Flags: W
Fore
40 74 m 1
 170 74 l 1
 170 52 l 1
 40 52 l 1
 40 74 l 1
EndSplineSet
EndChar
StartChar: period
Encoding: 46 46
Width: 65
Flags: W
Fore
51 31 m 0
 65 31 65 31 65 19 c 0
 65 0 65 0 44 0 c 0
 30 0 30 0 30 12 c 0
 30 31 30 31 51 31 c 0
EndSplineSet
EndChar
StartChar: slash
Encoding: 47 47
Width: 281
Flags: W
Fore
450 313 m 1
 463 302 l 1
 -48 -81 l 1
 -60 -71 l 1
 450 313 l 1
EndSplineSet
EndChar
StartChar: zero
Encoding: 48 48
Width: 175
Flags: W
Fore
144 156 m 0
 181 156 181 156 181 114 c 0
 181 76 181 76 144.5 38 c 128
 108 0 108 0 70 0 c 0
 29 0 29 0 29 40 c 0
 29 67 29 67 52 98 c 0
 95 156 95 156 144 156 c 0
152 114 m 1
 152 118 l 2
 152 142 152 142 136 142 c 0
 112 142 112 142 87 105.5 c 128
 62 69 62 69 62 40 c 0
 62 13 62 13 82 13 c 0
 105 13 105 13 128 48 c 0
 149 79 149 79 152 114 c 1
EndSplineSet
EndChar
StartChar: one
Encoding: 49 49
Width: 134
Flags: W
Fore
34 98 m 1
 45 104 45 104 83 126 c 0
 99 136 99 136 108 142 c 0
 131 158 131 158 158 183 c 1
 168 183 l 1
 79 2 l 1
 41 -4 l 1
 110 126 l 1
 98 118 98 118 69 101 c 0
 53 93 53 93 39 87 c 1
 34 98 l 1
EndSplineSet
EndChar
StartChar: two
Encoding: 50 50
Width: 157
Flags: W
Fore
47 37 m 1
 54 37 l 2
 62 37 62 37 77 32 c 0
 88 27 88 27 101 21 c 0
 107 19 107 19 113 19 c 0
 124 19 124 19 145 37 c 1
 152 30 l 1
 148 27 l 2
 108 -3 108 -3 96 -3 c 0
 82 -3 82 -3 68 3 c 2
 44 13 l 2
 41 14 41 14 34 14 c 0
 23 14 23 14 13 -2 c 1
 4 2 l 1
 25 42 25 42 60 58 c 2
 94 74 l 2
 139 95 139 95 139 129 c 0
 139 162 139 162 110 162 c 0
 100 162 100 162 91 155.5 c 128
 82 149 82 149 82 141 c 0
 82 136 82 136 85 134 c 1
 99 134 99 134 99 118 c 0
 99 100 99 100 79 100 c 0
 57 100 57 100 57 124 c 0
 57 145 57 145 75.5 159.5 c 128
 94 174 94 174 120 174 c 0
 172 174 172 174 172 130 c 0
 172 88 172 88 103 63 c 0
 66 49 66 49 47 37 c 1
EndSplineSet
EndChar
StartChar: three
Encoding: 51 51
Width: 170
Flags: W
Fore
77 151 m 1
 104 182 104 182 135 182 c 0
 174 182 174 182 174 150 c 0
 174 130 174 130 152 116 c 0
 149 114 149 114 134 106 c 1
 162 100 162 100 162 73 c 0
 162 44 162 44 124 18 c 0
 97 0 97 0 68 0 c 0
 46 0 46 0 30.5 11 c 128
 15 22 15 22 15 39 c 0
 15 68 15 68 41 68 c 0
 60 68 60 68 60 50 c 0
 60 37 60 37 49 34 c 2
 45 33 l 2
 41 31 41 31 41 26 c 0
 41 9 41 9 70 9 c 0
 86 9 86 9 100 21 c 0
 128 45 128 45 128 76 c 0
 128 97 128 97 108 97 c 0
 107 97 107 97 104 97 c 0
 101 96 101 96 99 96 c 1
 98 106 l 1
 104 107 104 107 118 109 c 1
 143 125 143 125 143 147 c 0
 143 165 143 165 123 165 c 0
 106 165 106 165 87 144 c 1
 77 151 l 1
EndSplineSet
EndChar
StartChar: four
Encoding: 52 52
Width: 169
Flags: W
Fore
194 182 m 1
 131 48 l 1
 141 48 l 2
 155 48 155 48 177 59 c 1
 177 57 l 1
 152 32 l 1
 125 32 l 1
 91 -39 l 1
 52 -47 l 1
 93 31 l 1
 83 31 83 31 72 31 c 0
 61 30 61 30 55 30 c 0
 48 30 48 30 28 31 c 0
 9 31 9 31 -3 31 c 1
 186 182 l 1
 194 182 l 1
144 132 m 1
 41 47 l 1
 100 47 l 1
 144 132 l 1
EndSplineSet
EndChar
StartChar: five
Encoding: 53 53
Width: 169
Flags: W
Fore
204 186 m 1
 211 181 l 1
 185 152 185 152 158 152 c 0
 146 152 146 152 127 157 c 1
 105 119 l 1
 109 120 109 120 114 120 c 0
 162 120 162 120 162 78 c 0
 162 47 162 47 131 23.5 c 128
 100 0 100 0 68 0 c 0
 46 0 46 0 32 10.5 c 128
 18 21 18 21 18 37 c 0
 18 62 18 62 41 62 c 0
 59 62 59 62 59 46 c 0
 59 33 59 33 48 30 c 0
 43 28 43 28 43 24 c 0
 43 9 43 9 68 9 c 0
 90 9 90 9 108.5 32 c 128
 127 55 127 55 127 77 c 0
 127 103 127 103 99 103 c 0
 90 103 90 103 84 100 c 0
 82 99 82 99 78 99 c 0
 74 99 74 99 74 103 c 0
 74 112 74 112 90 119 c 1
 130 187 l 1
 136 185 l 1
 135 183 l 1
 155 172 155 172 174 172 c 0
 190 172 190 172 204 186 c 1
EndSplineSet
EndChar
StartChar: six
Encoding: 54 54
Width: 181
Flags: W
Fore
396 233 m 1
 391 236 l 1
 397 247 397 247 397 256 c 0
 397 300 397 300 333 300 c 0
 265 300 265 300 193 240.5 c 128
 121 181 121 181 78 88 c 1
 112 132 112 132 147 132 c 0
 185 132 185 132 185 95 c 0
 185 59 185 59 150.5 28.5 c 128
 116 -2 116 -2 84 -2 c 0
 39 -2 39 -2 39 44 c 0
 39 78 39 78 69.5 128.5 c 128
 100 179 100 179 147 224 c 0
 237 309 237 309 330 309 c 0
 404 309 404 309 404 256 c 0
 404 244 404 244 396 233 c 1
130 115 m 0
 109 110 109 110 87.5 82.5 c 128
 66 55 66 55 66 33 c 0
 66 11 66 11 89 11 c 0
 112 11 112 11 135 45 c 0
 155 75 155 75 155 97 c 0
 155 116 155 116 137 116 c 0
 132 116 132 116 130 115 c 0
EndSplineSet
EndChar
StartChar: seven
Encoding: 55 55
Width: 144
Flags: W
Fore
90 193 m 1
 97 193 l 1
 97 175 97 175 90 160 c 1
 96 160 l 2
 108 160 108 160 126 146 c 0
 135 139 135 139 144 139 c 0
 165 139 165 139 179 162 c 1
 189 162 l 1
 171 134 171 134 161 119 c 0
 148 102 148 102 97 30 c 0
 57 -25 57 -25 18 -86 c 2
 -15 -137 l 1
 -18 -140 -18 -140 -21 -146 c 1
 -62 -146 l 1
 -51 -131 l 1
 95 56 l 2
 118 86 118 86 143 120 c 1
 132 116 132 116 125 116 c 0
 111 117 111 117 91 135 c 0
 85 140 85 140 80 140 c 0
 79 140 79 140 76 139 c 1
 65 122 65 122 50 122 c 0
 43 122 43 122 43 128 c 0
 43 145 43 145 73 156 c 1
 89 174 89 174 90 193 c 1
EndSplineSet
EndChar
StartChar: eight
Encoding: 56 56
Width: 172
Flags: W
Fore
235 219 m 1
 213 237 213 237 189 237 c 0
 156 237 156 237 133 215 c 128
 110 193 110 193 110 161 c 0
 110 137 110 137 128 118 c 1
 174 136 174 136 174 159 c 0
 174 178 174 178 153 178 c 0
 147 178 147 178 138 173 c 1
 136 177 l 1
 152 188 152 188 170 188 c 0
 204 188 204 188 204 160 c 0
 204 130 204 130 136 110 c 1
 161 91 161 91 161 70 c 0
 161 43 161 43 134.5 21 c 128
 108 -1 108 -1 75 -1 c 0
 25 -1 25 -1 25 37 c 0
 25 81 25 81 104 110 c 2
 115 114 l 1
 111 118 l 2
 85 144 85 144 85 171 c 0
 85 202 85 202 114.5 225 c 128
 144 248 144 248 184 248 c 0
 217 248 217 248 241 225 c 1
 235 219 l 1
122 105 m 1
 55 84 55 84 55 39 c 0
 55 11 55 11 84 11 c 0
 104 11 104 11 118.5 30 c 128
 133 49 133 49 133 75 c 0
 133 92 133 92 122 105 c 1
EndSplineSet
EndChar
StartChar: nine
Encoding: 57 57
Width: 170
Flags: W
Fore
-104 -61 m 1
 -100 -64 l 1
 -110 -77 -110 -77 -110 -89 c 0
 -110 -123 -110 -123 -65 -123 c 0
 -16 -123 -16 -123 38 -74.5 c 128
 92 -26 92 -26 130 54 c 1
 99 18 99 18 64 18 c 0
 27 18 27 18 27 51 c 0
 27 86 27 86 60.5 117.5 c 128
 94 149 94 149 130 149 c 0
 174 149 174 149 174 105 c 0
 174 45 174 45 100 -36 c 0
 12 -133 12 -133 -73 -133 c 0
 -120 -133 -120 -133 -120 -98 c 0
 -120 -80 -120 -80 -104 -61 c 1
126 137 m 2
 125 137 l 2
 105 137 105 137 87 118 c 0
 57 87 57 87 57 53 c 0
 57 32 57 32 77 32 c 0
 95 32 95 32 114 52 c 0
 144 83 144 83 144 115 c 0
 144 137 144 137 126 137 c 2
EndSplineSet
EndChar
StartChar: colon
Encoding: 58 58
Width: 41
Flags: W
Fore
6 31 m 0
 20 31 20 31 20 19 c 0
 20 0 20 0 -1 0 c 0
 -15 0 -15 0 -15 12 c 0
 -15 31 -15 31 6 31 c 0
52 106 m 2
 53 106 l 2
 67 106 67 106 67 94 c 0
 67 75 67 75 46 75 c 0
 32 75 32 75 32 88 c 0
 32 106 32 106 52 106 c 2
EndSplineSet
EndChar
StartChar: semicolon
Encoding: 59 59
Width: 39
Flags: W
Fore
52 106 m 2
 53 106 l 2
 67 106 67 106 67 94 c 0
 67 75 67 75 46 75 c 0
 32 75 32 75 32 88 c 0
 32 106 32 106 52 106 c 2
-54 -43 m 1
 -56 -35 l 1
 -21 -21 -21 -21 -15 1 c 2
 -10 19 l 2
 -6 35 -6 35 10 35 c 0
 22 35 22 35 22 24 c 0
 22 7 22 7 0 -13 c 0
 -24 -36 -24 -36 -54 -43 c 1
EndSplineSet
EndChar
StartChar: less
Encoding: 60 60
Width: 68
Flags: W
Fore
67 7 m 1
 61 3 l 1
 48 18 48 18 22 45 c 1
 11 55 l 2
 9 57 9 57 9 59 c 0
 10 60 10 60 10.5 60.5 c 128
 11 61 11 61 11 62 c 1
 12 62 l 2
 18 65 18 65 37 74 c 0
 51 81 51 81 85 101 c 1
 100 101 l 1
 80 85 80 85 46 62 c 2
 40 58 l 1
 45 48 l 1
 67 7 l 1
EndSplineSet
EndChar
StartChar: equal
Encoding: 61 61
Width: 146
Flags: W
Fore
1 96 m 1
 169 96 l 1
 169 70 l 1
 1 70 l 1
 1 96 l 1
1 36 m 1
 169 36 l 1
 169 10 l 1
 1 10 l 1
 1 36 l 1
EndSplineSet
EndChar
StartChar: greater
Encoding: 62 62
Width: 67
Flags: W
Fore
27 99 m 1
 33 103 l 1
 56 77 56 77 72 61 c 2
 82 51 l 2
 84 50 84 50 84 47 c 2
 84 45 l 1
 83 45 l 1
 83 44 83 44 82.5 44 c 128
 82 44 82 44 57 32 c 0
 54 31 54 31 8 5 c 1
 -6 5 l 1
 10 18 10 18 48 44 c 2
 54 48 l 1
 49 58 l 1
 38 78 l 1
 31 92 l 1
 27 99 l 1
EndSplineSet
EndChar
StartChar: question
Encoding: 63 63
Width: 191
Flags: W
Fore
20 29 m 0
 34 29 34 29 34 17 c 0
 34 -2 34 -2 13 -2 c 0
 -1 -2 -1 -2 -1 10 c 0
 -1 29 -1 29 20 29 c 0
51 50 m 1
 43 56 l 1
 57 76 57 76 78.5 106.5 c 128
 100 137 100 137 113 148 c 0
 120 154 120 154 141 164 c 0
 150 169 150 169 180 182 c 0
 253 214 253 214 253 270 c 0
 253 310 253 310 210 310 c 0
 191 310 191 310 178.5 301.5 c 128
 166 293 166 293 166 282 c 0
 166 277 166 277 171 276 c 0
 183 271 183 271 183 260 c 0
 183 239 183 239 160 239 c 0
 136 239 136 239 136 265 c 0
 136 289 136 289 159.5 305 c 128
 183 321 183 321 218 321 c 0
 291 321 291 321 291 267 c 0
 291 211 291 211 220 181 c 2
 185 166 l 1
 152 151 l 2
 144 147 144 147 125 132 c 0
 101 113 101 113 51 50 c 1
EndSplineSet
EndChar
StartChar: A
Encoding: 65 65
Width: 999
Flags: W
Fore
708 319 m 1
 729 343 729 343 765 380 c 0
 863 482 863 482 926 536 c 0
 999 599 999 599 1071 640 c 0
 1088 650 1088 650 1104 651 c 2
 1106 652 l 2
 1127 652 1127 652 1127 634 c 0
 1127 607 1127 607 1028 494 c 0
 993 454 993 454 963 415 c 2
 891 321 l 1
 938 320 l 2
 965 320 965 320 1035 318 c 1
 1032 314 l 1
 998 311 998 311 978 311 c 2
 922 310 l 1
 884 308 l 1
 856 268 856 268 831 225 c 0
 769 117 769 117 769 55 c 0
 769 5 769 5 828 5 c 0
 882 5 882 5 941.5 61.5 c 128
 1001 118 1001 118 1001 167 c 0
 1001 211 1001 211 962 211 c 0
 905 211 905 211 853 131 c 1
 849 132 l 1
 897 218 897 218 964 218 c 0
 986 218 986 218 1000 202 c 128
 1014 186 1014 186 1014 163 c 0
 1014 117 1014 117 970 71 c 0
 900 -2 900 -2 826 -2 c 0
 737 -2 737 -2 737 88 c 0
 737 132 737 132 759 180 c 0
 780 225 780 225 835 308 c 1
 716 308 l 1
 713 305 713 305 709 301.5 c 128
 705 298 705 298 704 297 c 0
 696 289 696 289 674 266 c 0
 641 231 641 231 587 182 c 0
 475 79 475 79 380 34 c 0
 304 -2 304 -2 215 -2 c 0
 133 -2 133 -2 87.5 34 c 128
 42 70 42 70 42 134 c 0
 42 211 42 211 117.5 270.5 c 128
 193 330 193 330 291 330 c 0
 408 330 408 330 408 243 c 0
 408 187 408 187 350 143 c 128
 292 99 292 99 211 94 c 1
 211 101 l 1
 284 106 284 106 338 148.5 c 128
 392 191 392 191 392 244 c 0
 392 322 392 322 287 322 c 0
 201 322 201 322 137 263.5 c 128
 73 205 73 205 73 126 c 0
 73 6 73 6 215 6 c 0
 303 6 303 6 384 46 c 0
 490 99 490 99 671 282 c 0
 686 297 686 297 698 308 c 1
 667 307 l 1
 484 310 l 1
 489 317 l 1
 513 319 513 319 535 319 c 2
 708 319 l 1
728 321 m 1
 844 321 l 1
 848 326 l 2
 858 340 858 340 875 362 c 0
 925 427 925 427 1041 547 c 0
 1067 573 1067 573 1100 610 c 1
 1114 628 1114 628 1114 635 c 0
 1114 644 1114 644 1104 644 c 0
 1090 644 1090 644 1044 614 c 0
 964 561 964 561 870 471 c 0
 824 427 824 427 728 321 c 1
EndSplineSet
EndChar
StartChar: B
Encoding: 66 66
Width: 783
Flags: W
Fore
813 591 m 1
 911 644 911 644 995 644 c 0
 1095 644 1095 644 1097 577 c 1
 1091 576 l 1
 1088 636 1088 636 1002 636 c 0
 922 636 922 636 828 583 c 1
 883 545 883 545 883 485 c 0
 883 394 883 394 775 327 c 1
 830 284 830 284 830 221 c 0
 830 138 830 138 746 66 c 0
 668 0 668 0 569 0 c 0
 528 0 528 0 503 16 c 128
 478 32 478 32 478 60 c 0
 478 109 478 109 543 147.5 c 128
 608 186 608 186 689 186 c 2
 697 186 l 1
 696 180 l 1
 614 176 614 176 554.5 140.5 c 128
 495 105 495 105 495 59 c 0
 495 37 495 37 514.5 23.5 c 128
 534 10 534 10 565 10 c 0
 637 10 637 10 691 49 c 0
 734 81 734 81 764 133.5 c 128
 794 186 794 186 794 231 c 0
 794 290 794 290 760 319 c 1
 737 309 737 309 724 305 c 0
 685 292 685 292 650 292 c 0
 612 292 612 292 612 313 c 0
 612 327 612 327 639 338 c 128
 666 349 666 349 699 349 c 0
 727 349 727 349 762 333 c 1
 849 391 849 391 849 496 c 0
 849 548 849 548 812 576 c 1
 782 555 782 555 763 540 c 0
 734 516 734 516 702 481 c 0
 646 420 646 420 591 337 c 2
 535 253 l 2
 471 156 471 156 381 86 c 0
 256 -12 256 -12 142 -12 c 0
 92 -12 92 -12 61.5 15 c 128
 31 42 31 42 31 86 c 0
 31 165 31 165 112 250 c 0
 140 280 140 280 165 299 c 0
 241 358 241 358 351 414 c 2
 412 445 l 2
 513 496 513 496 569 556 c 0
 616 606 616 606 616 624 c 0
 616 628 616 628 615 630 c 1
 613 638 l 1
 611 642 611 642 611 648 c 0
 611 665 611 665 624 665 c 0
 634 665 634 665 634 649 c 2
 634 643 l 1
 633 634 l 1
 633 629 l 1
 644 608 644 608 697 608 c 2
 738 608 l 2
 771 608 771 608 813 591 c 1
799 583 m 1
 772 596 772 596 729 598 c 2
 692 600 l 2
 645 603 645 603 627 614 c 1
 612 586 612 586 577 550 c 0
 537 509 537 509 472 468 c 0
 443 449 443 449 418 436 c 0
 400 426 400 426 353 402 c 0
 310 380 310 380 275 358 c 0
 183 301 183 301 128 241 c 0
 45 151 45 151 45 82 c 0
 45 -3 45 -3 145 -3 c 0
 188 -3 188 -3 227 13 c 0
 352 64 352 64 469 229 c 2
 546 337 l 2
 596 407 596 407 668 477 c 128
 740 547 740 547 799 583 c 1
751 327 m 1
 726 340 726 340 695 340 c 0
 669 340 669 340 650.5 332.5 c 128
 632 325 632 325 632 314 c 0
 632 302 632 302 654 302 c 0
 698 302 698 302 751 327 c 1
EndSplineSet
EndChar
StartChar: C
Encoding: 67 67
Width: 528
Flags: W
Fore
235 418 m 1
 309 504 309 504 437 574 c 128
 565 644 565 644 648 644 c 0
 730 644 730 644 730 584 c 0
 730 548 730 548 691 509 c 0
 630 447 630 447 541.5 410.5 c 128
 453 374 453 374 364 374 c 0
 300 374 300 374 256 395 c 1
 118 219 118 219 118 82 c 0
 118 -37 118 -37 247 -37 c 0
 318 -37 318 -37 397 11 c 0
 465 53 465 53 504.5 104.5 c 128
 544 156 544 156 544 204 c 0
 544 240 544 240 523 260.5 c 128
 502 281 502 281 467 281 c 0
 381 281 381 281 310 206 c 0
 246 138 246 138 240 68 c 1
 234 68 l 1
 233 74 l 1
 233 107 233 107 257 152 c 0
 289 213 289 213 348.5 253 c 128
 408 293 408 293 466 293 c 0
 513 293 513 293 539.5 269 c 128
 566 245 566 245 566 203 c 0
 566 133 566 133 482 56 c 0
 367 -49 367 -49 244 -49 c 0
 168 -49 168 -49 120.5 -7 c 128
 73 35 73 35 73 102 c 0
 73 198 73 198 149 310 c 0
 183 361 183 361 228 410 c 1
 174 451 174 451 174 506 c 0
 174 560 174 560 226 603.5 c 128
 278 647 278 647 343 647 c 0
 351 647 351 647 358 646 c 1
 356 641 l 1
 351 641 l 2
 288 641 288 641 239.5 598.5 c 128
 191 556 191 556 191 501 c 0
 191 455 191 455 235 418 c 1
264 404 m 1
 302 385 302 385 362 385 c 0
 452 385 452 385 531.5 419 c 128
 611 453 611 453 661 500 c 128
 711 547 711 547 711 588 c 0
 711 633 711 633 649 633 c 0
 569 633 569 633 450 562.5 c 128
 331 492 331 492 264 404 c 1
EndSplineSet
EndChar
StartChar: D
Encoding: 68 68
Width: 734
Flags: W
Fore
776 497 m 1
 894 586 894 586 991 586 c 0
 1056 586 1056 586 1087 550 c 1
 1084 546 l 1
 1044 576 1044 576 996 576 c 0
 902 576 902 576 786 484 c 1
 793 471 793 471 803 451 c 0
 827 398 827 398 827 332 c 0
 827 194 827 194 712 86 c 0
 601 -18 601 -18 448 -18 c 0
 430 -18 430 -18 334 -6 c 2
 326 -5 l 1
 314 -7 314 -7 294 -11 c 0
 230 -23 230 -23 167 -23 c 0
 100 -23 100 -23 59 -11.5 c 128
 18 0 18 0 18 19 c 0
 18 51 18 51 99 51 c 0
 183 51 183 51 282 23 c 2
 321 12 l 1
 331 10 l 1
 337 11 337 11 342 14 c 0
 364 22 364 22 399 46 c 0
 429 66 429 66 457 94 c 0
 505 141 505 141 584 269 c 0
 639 358 639 358 673 398.5 c 128
 707 439 707 439 766 488 c 1
 738 536 738 536 666 567 c 128
 594 598 594 598 513 598 c 0
 367 598 367 598 263 508 c 0
 204 457 204 457 168.5 393 c 128
 133 329 133 329 133 275 c 0
 133 220 133 220 167 188.5 c 128
 201 157 201 157 261 157 c 0
 349 157 349 157 425 219.5 c 128
 501 282 501 282 501 353 c 0
 501 385 501 385 478 405.5 c 128
 455 426 455 426 418 426 c 0
 374 426 374 426 335 395.5 c 128
 296 365 296 365 283 319 c 1
 277 321 l 1
 288 369 288 369 329 402 c 128
 370 435 370 435 419 435 c 0
 463 435 463 435 489.5 411 c 128
 516 387 516 387 516 347 c 0
 516 271 516 271 439 212 c 0
 355 147 355 147 258 147 c 0
 181 147 181 147 137 187.5 c 128
 93 228 93 228 93 298 c 0
 93 417 93 417 221 513 c 128
 349 609 349 609 508 609 c 0
 585 609 585 609 650 585 c 0
 720 559 720 559 754 521 c 2
 771 502 l 1
 776 497 l 1
775 475 m 1
 720 431 720 431 673 347 c 2
 631 272 l 2
 608 232 608 232 586 200 c 0
 534 126 534 126 466 73 c 0
 412 31 412 31 351 5 c 1
 399 -8 399 -8 461 -8 c 0
 600 -8 600 -8 706 98.5 c 128
 812 205 812 205 812 344 c 0
 812 424 812 424 775 475 c 1
307 2 m 1
 198 41 198 41 110 41 c 0
 39 41 39 41 39 17 c 0
 39 -14 39 -14 165 -14 c 0
 244 -14 244 -14 307 2 c 1
EndSplineSet
EndChar
StartChar: E
Encoding: 69 69
Width: 488
Flags: W
Fore
316 407 m 1
 327 408 327 408 338 408 c 0
 373 408 373 408 399 395.5 c 128
 425 383 425 383 425 366 c 0
 425 337 425 337 378 337 c 0
 320 337 320 337 291 394 c 1
 201 373 201 373 143 306 c 128
 85 239 85 239 85 156 c 0
 85 86 85 86 127.5 47 c 128
 170 8 170 8 247 8 c 0
 302 8 302 8 355 27 c 0
 418 50 418 50 459 91.5 c 128
 500 133 500 133 500 176 c 0
 500 212 500 212 474.5 234 c 128
 449 256 449 256 408 256 c 0
 349 256 349 256 294 216 c 0
 219 161 219 161 219 105 c 0
 219 94 219 94 224 79 c 1
 218 77 l 1
 210 93 210 93 210 110 c 0
 210 163 210 163 266 211 c 0
 330 265 330 265 410 265 c 0
 458 265 458 265 488 240.5 c 128
 518 216 518 216 518 178 c 0
 518 109 518 109 435 53.5 c 128
 352 -2 352 -2 248 -2 c 0
 158 -2 158 -2 101.5 43 c 128
 45 88 45 88 45 160 c 0
 45 240 45 240 114.5 309.5 c 128
 184 379 184 379 289 403 c 1
 286 418 286 418 286 424 c 0
 286 493 286 493 355.5 545.5 c 128
 425 598 425 598 517 598 c 0
 576 598 576 598 613.5 569.5 c 128
 651 541 651 541 651 495 c 0
 651 453 651 453 615 424 c 128
 579 395 579 395 528 395 c 0
 494 395 494 395 471 411 c 128
 448 427 448 427 448 451 c 0
 448 470 448 470 463.5 484.5 c 128
 479 499 479 499 502 503 c 1
 504 498 l 1
 461 484 461 484 461 451 c 0
 461 431 461 431 480 417.5 c 128
 499 404 499 404 527 404 c 0
 570 404 570 404 603 433 c 128
 636 462 636 462 636 500 c 0
 636 539 636 539 603 564 c 128
 570 589 570 589 519 589 c 0
 437 589 437 589 375.5 539 c 128
 314 489 314 489 314 422 c 0
 314 421 314 421 316 407 c 1
317 397 m 1
 331 347 331 347 381 347 c 0
 409 347 409 347 409 365 c 0
 409 380 409 380 389 389.5 c 128
 369 399 369 399 339 399 c 0
 328 399 328 399 317 397 c 1
EndSplineSet
EndChar
StartChar: F
Encoding: 70 70
Width: 431
Flags: W
Fore
264 205 m 1
 296 232 296 232 337 252 c 0
 401 283 401 283 505 284 c 1
 575 396 575 396 668 464 c 1
 632 471 632 471 611 485.5 c 128
 590 500 590 500 557 541 c 0
 528 577 528 577 504 598 c 0
 449 646 449 646 366 646 c 0
 278 646 278 646 217 599.5 c 128
 156 553 156 553 156 487 c 0
 156 428 156 428 204.5 385.5 c 128
 253 343 253 343 321 343 c 0
 376 343 376 343 410 368.5 c 128
 444 394 444 394 444 435 c 0
 444 469 444 469 420 491 c 128
 396 513 396 513 360 513 c 0
 321 513 321 513 297 482 c 1
 293 485 l 1
 313 519 313 519 362 519 c 0
 404 519 404 519 433.5 495 c 128
 463 471 463 471 463 436 c 0
 463 392 463 392 422.5 364 c 128
 382 336 382 336 320 336 c 0
 247 336 247 336 194.5 379 c 128
 142 422 142 422 142 482 c 0
 142 553 142 553 207 603 c 128
 272 653 272 653 365 653 c 0
 440 653 440 653 500 622 c 0
 545 599 545 599 603 525 c 0
 625 497 625 497 639.5 486.5 c 128
 654 476 654 476 679 472 c 1
 697 484 697 484 734 504 c 1
 782 525 782 525 811 525 c 0
 828 525 828 525 828 512 c 0
 828 502 828 502 815 493 c 0
 768 461 768 461 706 461 c 0
 696 461 696 461 686 462 c 1
 669 447 l 2
 645 426 645 426 603 363 c 0
 571 315 571 315 553 282 c 1
 573 280 573 280 601 280 c 0
 618 280 618 280 628 282 c 1
 652 332 652 332 681 332 c 0
 692 332 692 332 692 320 c 0
 692 298 692 298 643 271 c 1
 638 263 l 1
 620 225 620 225 606.5 208.5 c 128
 593 192 593 192 574 176 c 1
 570 180 l 1
 595 201 595 201 621 262 c 2
 624 269 l 1
 614 269 l 2
 608 268 l 1
 563 271 l 1
 548 272 l 1
 541 261 l 1
 520 225 l 2
 458 118 458 118 378 63 c 0
 284 -2 284 -2 187 -2 c 0
 123 -2 123 -2 85.5 22.5 c 128
 48 47 48 47 48 89 c 0
 48 138 48 138 99.5 175 c 128
 151 212 151 212 217 212 c 0
 242 212 242 212 264 205 c 1
697 470 m 1
 710 470 l 2
 755 470 755 470 787 488 c 0
 812 502 812 502 812 512 c 0
 812 517 812 517 802 517 c 0
 755 517 755 517 697 470 c 1
257 199 m 1
 234 204 234 204 219 204 c 0
 159 204 159 204 112 167.5 c 128
 65 131 65 131 65 85 c 0
 65 49 65 49 99 27 c 128
 133 5 133 5 188 5 c 0
 351 5 351 5 449 182 c 2
 500 273 l 1
 491 274 491 274 475 274 c 0
 367 274 367 274 274 201 c 1
 312 182 312 182 312 147 c 0
 312 117 312 117 289.5 94.5 c 128
 267 72 267 72 243 72 c 0
 208 72 208 72 208 113 c 0
 208 153 208 153 257 199 c 1
266 194 m 1
 219 148 219 148 219 113 c 0
 219 83 219 83 244 83 c 0
 263 83 263 83 277 103 c 128
 291 123 291 123 291 150 c 0
 291 178 291 178 266 194 c 1
647 286 m 1
 677 301 677 301 677 317 c 0
 677 321 677 321 674 321 c 0
 665 321 665 321 647 286 c 1
EndSplineSet
EndChar
StartChar: G
Encoding: 71 71
Width: 372
Flags: W
Fore
247 399 m 1
 256 408 256 408 260 411 c 0
 300 448 300 448 383 501 c 0
 538 600 538 600 655 600 c 0
 700 600 700 600 726 582 c 128
 752 564 752 564 752 532 c 0
 752 478 752 478 659 423 c 0
 538 351 538 351 395 351 c 0
 329 351 329 351 275 373 c 1
 266 362 l 2
 142 210 142 210 142 135 c 0
 142 77 142 77 218 77 c 0
 256 77 256 77 306 96 c 1
 358 172 358 172 422.5 230 c 128
 487 288 487 288 519 288 c 0
 539 288 539 288 539 268 c 0
 539 247 539 247 511 218 c 0
 492 198 492 198 468 179 c 0
 465 177 465 177 366 113 c 2
 352 104 l 1
 336 80 l 2
 318 53 318 53 270 -16 c 1
 289 -14 289 -14 312 -14 c 0
 413 -14 413 -14 473.5 -51.5 c 128
 534 -89 534 -89 534 -151 c 0
 534 -225 534 -225 467.5 -282 c 128
 401 -339 401 -339 313 -339 c 0
 206 -339 206 -339 206 -253 c 0
 206 -216 206 -216 235 -184.5 c 128
 264 -153 264 -153 313 -136 c 1
 315 -142 l 1
 272 -157 272 -157 246 -188.5 c 128
 220 -220 220 -220 220 -256 c 0
 220 -330 220 -330 314 -330 c 0
 394 -330 394 -330 453.5 -275.5 c 128
 513 -221 513 -221 513 -148 c 0
 513 -89 513 -89 460.5 -56 c 128
 408 -23 408 -23 316 -23 c 0
 294 -23 294 -23 262 -27 c 1
 253 -39 l 2
 228 -73 228 -73 207 -97 c 0
 134 -183 134 -183 66 -242 c 0
 -55 -348 -55 -348 -142 -348 c 0
 -198 -348 -198 -348 -198 -299 c 0
 -198 -225 -198 -225 -36 -126 c 0
 84 -52 84 -52 218 -26 c 1
 227 -15 l 1
 295 82 l 1
 249 67 249 67 216 67 c 0
 107 67 107 67 107 167 c 0
 107 212 107 212 136 261 c 0
 162 306 162 306 231 383 c 2
 239 392 l 1
 175 443 175 443 175 500 c 0
 175 553 175 553 223.5 595.5 c 128
 272 638 272 638 332 638 c 0
 359 638 359 638 383 629 c 1
 381 623 l 1
 356 631 356 631 337 631 c 0
 278 631 278 631 236 591 c 128
 194 551 194 551 194 494 c 0
 194 439 194 439 247 399 c 1
283 381 m 1
 333 360 333 360 395 360 c 0
 491 360 491 360 585 399 c 0
 733 460 733 460 733 539 c 0
 733 591 733 591 655 591 c 0
 591 591 591 591 494.5 541 c 128
 398 491 398 491 325 421 c 2
 283 381 l 1
366 124 m 1
 429 160 429 160 467 196 c 0
 523 248 523 248 523 270 c 0
 523 278 523 278 515 278 c 0
 483 278 483 278 432 215 c 0
 424 205 424 205 407 182 c 0
 382 149 382 149 366 124 c 1
210 -38 m 1
 81 -63 81 -63 -40 -143 c 0
 -102 -184 -102 -184 -142 -229.5 c 128
 -182 -275 -182 -275 -182 -305 c 0
 -182 -339 -182 -339 -142 -339 c 0
 -67 -339 -67 -339 15 -266 c 0
 87 -202 87 -202 198 -54 c 2
 210 -38 l 1
EndSplineSet
EndChar
StartChar: H
Encoding: 72 72
Width: 820
Flags: W
Fore
590 468 m 1
 603 480 l 1
 621 498 l 2
 639 516 639 516 676 547 c 0
 740 601 740 601 755 601 c 0
 766 601 766 601 766 591 c 0
 766 578 766 578 742 557 c 0
 735 551 735 551 709 530 c 0
 701 524 701 524 640 483 c 2
 631 477 l 1
 620 466 620 466 583 417 c 2
 528 344 l 2
 514 326 514 326 487 284 c 1
 652 329 l 1
 666 343 l 1
 709 388 l 2
 756 437 756 437 843 503 c 0
 962 593 962 593 1041 593 c 0
 1096 593 1096 593 1096 552 c 0
 1096 506 1096 506 993 448 c 0
 894 392 894 392 723 338 c 2
 704 332 l 1
 661 280 661 280 610 200 c 0
 552 110 552 110 552 56 c 0
 552 7 552 7 606 7 c 0
 656 7 656 7 712 36 c 0
 762 62 762 62 793.5 98 c 128
 825 134 825 134 825 167 c 0
 825 214 825 214 775 214 c 0
 735 214 735 214 698.5 189 c 128
 662 164 662 164 646 124 c 1
 640 126 l 1
 686 222 686 222 776 222 c 0
 842 222 842 222 842 162 c 0
 842 108 842 108 772 58 c 0
 690 -1 690 -1 601 -1 c 0
 514 -1 514 -1 514 76 c 0
 514 151 514 151 602 265 c 2
 632 304 l 1
 642 316 l 1
 474 269 l 1
 467 260 l 1
 422 205 l 2
 352 120 352 120 290 71 c 0
 198 -1 198 -1 114 -1 c 0
 56 -1 56 -1 56 45 c 0
 56 87 56 87 131 140 c 0
 180 175 180 175 287 216 c 0
 326 231 326 231 410 260 c 2
 423 264 l 1
 429 272 l 2
 499 366 499 366 534 406 c 0
 548 422 548 422 564 441 c 0
 569 446 569 446 572 451 c 1
 538 440 538 440 502 440 c 0
 454 440 454 440 416 466 c 1
 409 461 l 2
 381 441 381 441 363 430 c 0
 299 391 299 391 248 370 c 0
 191 347 191 347 128 333 c 1
 126 340 l 1
 136 342 l 2
 217 358 217 358 300 406 c 0
 366 444 366 444 394 466 c 0
 397 468 397 468 408 477 c 1
 400 494 400 494 400 507 c 0
 400 532 400 532 419 559 c 0
 451 604 451 604 486 604 c 0
 508 604 508 604 508 582 c 0
 508 540 508 540 434 478 c 1
 449 450 449 450 499 450 c 0
 550 450 550 450 590 468 c 1
414 249 m 1
 382 240 382 240 329 220 c 0
 247 190 247 190 207 170 c 0
 77 107 77 107 77 41 c 0
 77 8 77 8 119 8 c 0
 177 8 177 8 239 54 c 0
 267 75 267 75 295 103 c 128
 323 131 323 131 387 214 c 2
 414 249 l 1
655 503 m 1
 745 560 745 560 745 583 c 0
 745 586 745 586 742 586 c 0
 728 586 728 586 687 539 c 0
 684 536 684 536 673.5 524 c 128
 663 512 663 512 655 503 c 1
428 490 m 1
 430 492 l 1
 443 503 l 2
 464 521 464 521 479.5 545 c 128
 495 569 495 569 495 583 c 0
 495 595 495 595 486 595 c 0
 471 595 471 595 458 578 c 0
 427 538 427 538 427 497 c 0
 427 496 427 496 428 494 c 0
 428 490 l 1
715 346 m 1
 734 352 l 1
 789 370 l 2
 941 420 941 420 1027 485 c 0
 1076 522 1076 522 1076 558 c 0
 1076 584 1076 584 1034 584 c 0
 996 584 996 584 946.5 556 c 128
 897 528 897 528 846 483 c 0
 810 452 810 452 763 401 c 0
 740 376 740 376 715 346 c 1
EndSplineSet
EndChar
StartChar: I
Encoding: 73 73
Width: 519
Flags: W
Fore
907 605 m 1
 931 619 931 619 942 619 c 0
 950 619 950 619 950 613 c 0
 950 601 950 601 923 597 c 2
 916 596 l 1
 871 571 871 571 837 537 c 0
 810 510 810 510 775 465 c 0
 763 449 763 449 750 428 c 1
 764 409 764 409 764 388 c 0
 764 354 764 354 738.5 329.5 c 128
 713 305 713 305 675 301 c 1
 600 175 600 175 521 107 c 0
 394 -3 394 -3 243 -3 c 0
 148 -3 148 -3 91 38.5 c 128
 34 80 34 80 34 150 c 0
 34 239 34 239 118 310.5 c 128
 202 382 202 382 306 382 c 0
 365 382 365 382 402 354.5 c 128
 439 327 439 327 439 282 c 0
 439 227 439 227 382 179 c 128
 325 131 325 131 256 131 c 0
 216 131 216 131 192 148 c 128
 168 165 168 165 168 193 c 0
 168 232 168 232 212 255 c 1
 215 251 l 1
 184 223 184 223 184 192 c 0
 184 140 184 140 255 140 c 0
 317 140 317 140 364 185.5 c 128
 411 231 411 231 411 290 c 0
 411 328 411 328 382.5 350.5 c 128
 354 373 354 373 305 373 c 0
 249 373 249 373 192 345 c 0
 128 314 128 314 89.5 260.5 c 128
 51 207 51 207 51 150 c 0
 51 84 51 84 102.5 45 c 128
 154 6 154 6 240 6 c 0
 371 6 371 6 490 119 c 0
 523 150 523 150 544.5 175.5 c 128
 566 201 566 201 623 290 c 2
 632 304 l 1
 570 322 570 322 570 384 c 0
 570 452 570 452 657 515 c 0
 738 574 738 574 851 595 c 0
 864 597 864 597 891 602 c 0
 896 603 896 603 907 605 c 1
886 592 m 1
 766 576 766 576 677.5 511.5 c 128
 589 447 589 447 589 376 c 0
 589 326 589 326 637 314 c 1
 645 327 l 2
 656 345 656 345 678 376 c 2
 712 424 l 1
 721 435 l 1
 713 439 713 439 703 439 c 0
 692 439 692 439 683 437 c 1
 681 444 l 1
 701 449 701 449 706 449 c 0
 714 449 714 449 727 445 c 1
 766 496 766 496 805 531 c 0
 841 563 841 563 886 592 c 1
743 417 m 1
 740 411 l 1
 726 387 l 1
 704 351 l 2
 691 330 691 330 680 311 c 1
 712 318 712 318 731.5 340 c 128
 751 362 751 362 751 390 c 0
 751 403 751 403 743 417 c 1
EndSplineSet
EndChar
StartChar: J
Encoding: 74 74
Width: 219
Flags: W
Fore
143 8 m 1
 205 31 205 31 239 65 c 1
 245 57 l 1
 242 55 l 2
 226 41 226 41 211 31 c 0
 174 8 174 8 137 -3 c 1
 127 -17 l 1
 92 -68 l 2
 54 -123 54 -123 21 -166 c 0
 -45 -251 -45 -251 -104.5 -300.5 c 128
 -164 -350 -164 -350 -214 -372 c 0
 -250 -388 -250 -388 -282 -388 c 0
 -353 -388 -353 -388 -353 -329 c 0
 -353 -245 -353 -245 -209 -151 c 0
 -156 -116 -156 -116 -102 -89 c 0
 -63 -69 -63 -69 93 -4 c 1
 143 83 l 1
 210 196 l 1
 123 225 123 225 123 299 c 0
 123 386 123 386 223 469 c 128
 323 552 323 552 494 564 c 1
 553 601 553 601 577 601 c 0
 588 601 588 601 588 592 c 0
 588 580 588 580 559 569 c 128
 530 558 530 558 496 557 c 1
 470 542 470 542 446 513 c 0
 414 475 414 475 377 416 c 1
 427 398 427 398 427 348 c 0
 427 288 427 288 374 241.5 c 128
 321 195 321 195 249 191 c 1
 242 179 l 2
 226 151 226 151 201 107 c 0
 186 83 186 83 158 34 c 2
 143 8 l 1
87 -17 m 1
 48 -33 48 -33 28 -42 c 0
 -108 -104 -108 -104 -188 -160 c 0
 -329 -259 -329 -259 -329 -336 c 0
 -329 -377 -329 -377 -279 -377 c 0
 -212 -377 -212 -377 -122 -293 c 0
 -62 -237 -62 -237 1 -149 c 0
 35 -102 35 -102 87 -17 c 1
478 554 m 1
 471 553 471 553 443 549 c 0
 357 536 357 536 295 502 c 0
 230 466 230 466 189 408.5 c 128
 148 351 148 351 148 295 c 0
 148 229 148 229 214 206 c 1
 227 227 l 2
 250 265 250 265 277 311 c 0
 302 351 302 351 346 412 c 1
 309 411 309 411 274 377 c 1
 271 381 l 1
 301 420 301 420 345 420 c 2
 352 420 l 1
 406 489 406 489 436 518 c 0
 452 533 452 533 478 554 c 1
254 201 m 1
 309 205 309 205 344 233 c 0
 371 255 371 255 389 290 c 128
 407 325 407 325 407 356 c 0
 407 396 407 396 373 409 c 1
 356 381 356 381 313 307 c 1
 254 201 l 1
EndSplineSet
EndChar
StartChar: K
Encoding: 75 75
Width: 1073
Flags: W
Fore
157 72 m 1
 199 5 199 5 289 5 c 0
 348 5 348 5 423 37 c 128
 498 69 498 69 562 134 c 0
 613 186 613 186 680.5 289.5 c 128
 748 393 748 393 784 434 c 2
 819 474 l 1
 775 456 775 456 739 456 c 0
 686 456 686 456 652 487 c 1
 604 451 604 451 545 422 c 0
 501 400 501 400 451 387 c 1
 449 394 l 1
 478 403 478 403 509 416 c 0
 577 445 577 445 644 497 c 1
 631 517 631 517 631 533 c 0
 631 563 631 563 658 597 c 0
 690 637 690 637 725 637 c 0
 751 637 751 637 751 609 c 0
 751 555 751 555 666 498 c 1
 684 466 684 466 742 466 c 0
 785 466 785 466 830 489 c 1
 840 497 l 2
 879 528 879 528 917 559 c 1
 945 580 945 580 957 580 c 0
 968 580 968 580 968 572 c 0
 968 546 968 546 863 493 c 1
 814 444 814 444 784 393 c 2
 734 308 l 2
 657 178 657 178 565 103 c 0
 504 54 504 54 428 25.5 c 128
 352 -3 352 -3 282 -3 c 0
 191 -3 191 -3 146 68 c 1
 135 65 l 2
 84 51 84 51 56 51 c 0
 32 51 32 51 18 63 c 1
 24 69 l 1
 37 59 37 59 56 59 c 0
 86 59 86 59 143 78 c 1
 129 117 129 117 129 149 c 0
 129 228 129 228 201 293 c 0
 266 351 266 351 333 351 c 0
 409 351 409 351 409 289 c 0
 409 231 409 231 342 173.5 c 128
 275 116 275 116 157 72 c 1
818 292 m 1
 822 294 l 2
 845 303 845 303 854 308 c 0
 890 329 890 329 960 411 c 0
 1034 498 1034 498 1084 530 c 0
 1164 582 1164 582 1239 582 c 0
 1273 582 1273 582 1294.5 565 c 128
 1316 548 1316 548 1316 521 c 0
 1316 477 1316 477 1264 445.5 c 128
 1212 414 1212 414 1139 414 c 0
 1127 414 1127 414 1098 417 c 1
 1099 424 l 1
 1127 422 1127 422 1129 422 c 0
 1196 422 1196 422 1249 454 c 128
 1302 486 1302 486 1302 526 c 0
 1302 574 1302 574 1237 574 c 0
 1191 574 1191 574 1138.5 546.5 c 128
 1086 519 1086 519 1054 479 c 2
 999 410 l 2
 920 311 920 311 826 284 c 1
 843 259 843 259 843 237 c 0
 843 211 843 211 809 145 c 0
 787 102 787 102 787 74 c 0
 787 7 787 7 861 7 c 0
 915 7 915 7 972 40 c 0
 1024 70 1024 70 1059.5 112 c 128
 1095 154 1095 154 1095 185 c 0
 1095 237 1095 237 1040 237 c 0
 989 237 989 237 933.5 188.5 c 128
 878 140 878 140 859 80 c 1
 855 81 l 1
 872 146 872 146 928.5 196 c 128
 985 246 985 246 1042 246 c 0
 1073 246 1073 246 1092.5 229 c 128
 1112 212 1112 212 1112 184 c 0
 1112 150 1112 150 1077.5 109 c 128
 1043 68 1043 68 988 37 c 0
 920 -2 920 -2 856 -2 c 0
 806 -2 806 -2 777 19.5 c 128
 748 41 748 41 748 78 c 0
 748 100 748 100 755 117 c 128
 762 134 762 134 791 181 c 0
 823 233 823 233 823 258 c 0
 823 269 823 269 814 281 c 1
 787 274 787 274 769 274 c 0
 734 274 734 274 734 290 c 0
 734 310 734 310 769 310 c 0
 793 310 793 310 818 292 c 1
662 510 m 1
 738 565 738 565 738 615 c 0
 738 628 738 628 725 628 c 0
 697 628 697 628 674 590 c 0
 658 563 658 563 658 535 c 0
 658 526 658 526 662 510 c 1
884 514 m 1
 896 521 896 521 910 530 c 128
 924 539 924 539 937 550 c 2
 947 559 l 2
 953 564 953 564 953 568 c 0
 953 571 953 571 950 571 c 0
 933 571 933 571 884 514 c 1
153 81 m 1
 235 113 235 113 292 160 c 0
 379 233 379 233 379 295 c 0
 379 341 379 341 332 341 c 0
 263 341 263 341 203 276 c 128
 143 211 143 211 143 134 c 0
 143 114 143 114 153 81 c 1
806 289 m 1
 786 301 786 301 773 301 c 0
 750 301 750 301 750 291 c 0
 750 283 750 283 771 283 c 0
 788 283 788 283 806 289 c 1
EndSplineSet
EndChar
StartChar: L
Encoding: 76 76
Width: 739
Flags: W
Fore
620 376 m 1
 512 378 512 378 448 415.5 c 128
 384 453 384 453 384 516 c 0
 384 574 384 574 432.5 614 c 128
 481 654 481 654 549 654 c 0
 591 654 591 654 634 628 c 1
 630 622 l 1
 626 623 626 623 621 626 c 0
 609 633 609 633 596 638 c 0
 578 645 578 645 550 645 c 0
 488 645 488 645 445.5 608.5 c 128
 403 572 403 572 403 518 c 0
 403 457 403 457 460 422 c 128
 517 387 517 387 618 387 c 2
 626 387 l 1
 637 401 l 2
 725 513 725 513 815 578 c 0
 909 646 909 646 985 646 c 0
 1059 646 1059 646 1059 592 c 0
 1059 534 1059 534 949 470 c 0
 872 425 872 425 785 402 c 0
 733 388 733 388 670 381 c 1
 612 289 l 2
 595 262 595 262 572 231 c 0
 529 173 529 173 469 118 c 0
 447 98 447 98 421 78.5 c 128
 395 59 395 59 354 39 c 1
 390 30 l 2
 466 12 466 12 516 12 c 0
 616 12 616 12 690.5 61 c 128
 765 110 765 110 765 176 c 0
 765 193 765 193 757 205 c 1
 762 209 l 1
 772 194 772 194 772 173 c 0
 772 100 772 100 691 48.5 c 128
 610 -3 610 -3 496 -3 c 0
 447 -3 447 -3 387 14 c 2
 330 30 l 1
 296 17 296 17 272 12 c 0
 215 -1 215 -1 157 -1 c 0
 30 -1 30 -1 30 39 c 0
 30 75 30 75 142 75 c 0
 169 75 169 75 198 72 c 0
 222 70 222 70 308 50 c 2
 330 45 l 1
 420 83 420 83 561 290 c 2
 620 376 l 1
675 392 m 1
 689 394 689 394 711 398 c 0
 803 414 803 414 907 466 c 0
 1038 531 1038 531 1038 597 c 0
 1038 636 1038 636 986 636 c 0
 891 636 891 636 778 526 c 0
 741 490 741 490 703 435 c 0
 695 423 695 423 675 392 c 1
313 36 m 1
 226 66 226 66 138 66 c 0
 52 66 52 66 52 38 c 0
 52 7 52 7 155 7 c 0
 241 7 241 7 313 36 c 1
EndSplineSet
EndChar
StartChar: M
Encoding: 77 77
Width: 1091
Flags: W
Fore
914 95 m 1
 908 96 l 1
 918 148 918 148 944 181 c 0
 1004 257 1004 257 1075 257 c 0
 1104 257 1104 257 1122 242 c 128
 1140 227 1140 227 1140 203 c 0
 1140 135 1140 135 1042 62 c 0
 959 0 959 0 891 0 c 0
 805 0 805 0 805 86 c 0
 805 131 805 131 828 176 c 0
 860 239 860 239 959 345 c 0
 1026 417 1026 417 1083 480 c 2
 1121 522 l 2
 1168 574 1168 574 1168 586 c 0
 1168 592 1168 592 1162 592 c 0
 1150 592 1150 592 1117 566 c 0
 1062 523 1062 523 981 444 c 0
 897 362 897 362 783 237 c 2
 708 155 l 1
 610 51 l 2
 572 10 572 10 547 10 c 0
 530 10 530 10 530 25 c 0
 530 64 530 64 608 161 c 0
 738 323 738 323 911 489 c 0
 1002 576 1002 576 1002 590 c 0
 1002 595 1002 595 996 595 c 0
 988 595 988 595 968 583 c 0
 960 578 960 578 943 568 c 0
 892 535 892 535 760 413 c 2
 465 142 l 2
 429 110 429 110 377 75 c 0
 259 -4 259 -4 170 -4 c 0
 110 -4 110 -4 74.5 24 c 128
 39 52 39 52 39 99 c 0
 39 155 39 155 93 208 c 0
 139 254 139 254 199 281.5 c 128
 259 309 259 309 312 309 c 0
 391 309 391 309 391 248 c 0
 391 202 391 202 343 161.5 c 128
 295 121 295 121 212 96 c 1
 210 102 l 1
 280 123 280 123 328.5 166.5 c 128
 377 210 377 210 377 252 c 0
 377 299 377 299 314 299 c 0
 268 299 268 299 217 274 c 0
 155 243 155 243 115.5 192 c 128
 76 141 76 141 76 89 c 0
 76 51 76 51 101.5 28.5 c 128
 127 6 127 6 171 6 c 0
 228 6 228 6 299 42 c 0
 332 59 332 59 372 87 c 0
 439 134 439 134 550 238 c 2
 660 341 l 2
 789 461 789 461 869 525 c 0
 969 605 969 605 1000 605 c 0
 1017 605 1017 605 1017 590 c 0
 1017 565 1017 565 916 455 c 2
 836 368 l 2
 822 352 822 352 723 242 c 0
 681 195 681 195 664 175 c 0
 553 44 553 44 553 24 c 0
 553 21 553 21 557 21 c 0
 571 21 571 21 623 80 c 2
 684 149 l 1
 723 191 l 1
 776 247 l 2
 788 260 788 260 823 298 c 0
 855 333 855 333 921 401 c 1
 1000 479 1000 479 1061 533 c 0
 1138 601 1138 601 1164 601 c 0
 1182 601 1182 601 1182 584 c 0
 1182 556 1182 556 1072 423 c 2
 931 251 l 1
 836 133 836 133 836 65 c 0
 836 10 836 10 892 10 c 0
 953 10 953 10 1026 66 c 0
 1068 98 1068 98 1096 137 c 128
 1124 176 1124 176 1124 203 c 0
 1124 249 1124 249 1076 249 c 0
 1026 249 1026 249 975.5 201 c 128
 925 153 925 153 914 95 c 1
EndSplineSet
EndChar
StartChar: N
Encoding: 78 78
Width: 750
Flags: W
Fore
807 442 m 1
 823 474 l 2
 830 489 830 489 838 505 c 0
 871 572 871 572 894 572 c 0
 899 572 899 572 899 566 c 0
 899 552 899 552 865 503 c 2
 849 480 l 1
 847 475 847 475 844 468 c 1
 841 454 841 454 827 398 c 0
 820 369 820 369 802 315 c 0
 787 270 787 270 772 232 c 1
 783 243 l 1
 838 300 l 2
 878 342 878 342 926 386 c 0
 1031 483 1031 483 1117 532 c 0
 1221 591 1221 591 1317 591 c 0
 1392 591 1392 591 1436 551.5 c 128
 1480 512 1480 512 1480 446 c 0
 1480 348 1480 348 1386 263 c 0
 1302 187 1302 187 1192 187 c 0
 1130 187 1130 187 1091.5 217.5 c 128
 1053 248 1053 248 1053 298 c 0
 1053 356 1053 356 1101 404.5 c 128
 1149 453 1149 453 1219 464 c 1
 1220 457 l 1
 1203 452 1203 452 1169 440 c 1
 1126 419 1126 419 1098.5 381.5 c 128
 1071 344 1071 344 1071 304 c 0
 1071 256 1071 256 1106.5 228.5 c 128
 1142 201 1142 201 1202 201 c 0
 1298 201 1298 201 1375.5 271 c 128
 1453 341 1453 341 1453 429 c 0
 1453 494 1453 494 1410 532.5 c 128
 1367 571 1367 571 1295 571 c 0
 1208 571 1208 571 1104 510 c 0
 1066 488 1066 488 1032 462 c 0
 1008 444 1008 444 948 390 c 0
 902 349 902 349 879 325 c 2
 804 248 l 2
 771 215 771 215 753 190 c 1
 747 177 747 177 741 165 c 0
 705 95 705 95 676 52 c 0
 623 -26 623 -26 607 -26 c 0
 602 -26 602 -26 602 -18 c 0
 602 18 602 18 671 108 c 0
 684 124 684 124 699 144 c 0
 701 146 701 146 705 153 c 0
 712 171 712 171 735 240 c 0
 748 279 748 279 791 396 c 2
 798 415 l 1
 773 386 l 2
 641 232 641 232 532 145 c 0
 444 75 444 75 360.5 36.5 c 128
 277 -2 277 -2 205 -2 c 0
 127 -2 127 -2 79 36 c 128
 31 74 31 74 31 135 c 0
 31 206 31 206 96 258 c 128
 161 310 161 310 251 310 c 0
 314 310 314 310 355 281.5 c 128
 396 253 396 253 396 209 c 0
 396 165 396 165 352 130.5 c 128
 308 96 308 96 251 96 c 0
 235 96 235 96 223 102 c 1
 225 109 l 1
 242 105 242 105 254 105 c 0
 303 105 303 105 341.5 137.5 c 128
 380 170 380 170 380 211 c 0
 380 249 380 249 345.5 275 c 128
 311 301 311 301 260 301 c 0
 180 301 180 301 122 252.5 c 128
 64 204 64 204 64 136 c 0
 64 78 64 78 104 44 c 128
 144 10 144 10 213 10 c 0
 266 10 266 10 314 29 c 0
 412 68 412 68 499 133 c 0
 567 184 567 184 694 316 c 0
 741 365 741 365 807 442 c 1
817 482 m 1
 780 457 780 457 734 457 c 0
 713 457 713 457 698 461 c 0
 653 473 653 473 573 540 c 0
 497 604 497 604 444 604 c 0
 412 604 412 604 388.5 582 c 128
 365 560 365 560 365 529 c 0
 365 496 365 496 392.5 472 c 128
 420 448 420 448 458 448 c 0
 500 448 500 448 531 482 c 1
 536 478 l 1
 504 439 504 439 454 439 c 0
 410 439 410 439 381.5 463 c 128
 353 487 353 487 353 524 c 0
 353 565 353 565 384 592 c 128
 415 619 415 619 462 619 c 0
 502 619 502 619 535 601 c 0
 575 579 575 579 636 526 c 0
 662 503 662 503 680 491 c 0
 712 469 712 469 754 469 c 0
 785 469 785 469 814 487 c 1
 817 482 l 1
696 118 m 1
 649 61 649 61 634 28 c 0
 630 20 630 20 630 18 c 0
 630 15 630 15 632 15 c 0
 636 15 636 15 650 34 c 0
 672 65 672 65 696 118 c 1
EndSplineSet
EndChar
StartChar: O
Encoding: 79 79
Width: 482
Flags: W
Fore
736 413 m 1
 730 418 l 1
 762 460 762 460 762 517 c 0
 762 617 762 617 629 617 c 0
 536 617 536 617 445 572.5 c 128
 354 528 354 528 261 435 c 0
 182 356 182 356 132 266 c 0
 88 187 88 187 88 119 c 0
 88 9 88 9 214 9 c 0
 258 9 258 9 313 29 c 0
 345 41 345 41 376 56 c 0
 440 88 440 88 520 156 c 0
 586 212 586 212 632 278 c 0
 662 320 662 320 672 340 c 0
 706 405 706 405 706 461 c 0
 706 534 706 534 631 534 c 0
 581 534 581 534 513 496.5 c 128
 445 459 445 459 386 398 c 0
 276 285 276 285 276 208 c 0
 276 163 276 163 326 163 c 0
 371 163 371 163 436 221 c 0
 508 286 508 286 508 341 c 0
 508 342 508 342 506 356 c 1
 513 357 l 1
 514 347 514 347 514 336 c 0
 514 279 514 279 455 221 c 0
 388 155 388 155 321 155 c 0
 253 155 253 155 253 222 c 0
 253 281 253 281 315 356 c 0
 380 435 380 435 472.5 489 c 128
 565 543 565 543 635 543 c 0
 724 543 724 543 724 439 c 0
 724 333 724 333 600 205 c 0
 514 116 514 116 404 57.5 c 128
 294 -1 294 -1 214 -1 c 0
 174 -1 174 -1 141 9 c 0
 100 22 100 22 74.5 59.5 c 128
 49 97 49 97 49 147 c 0
 49 226 49 226 120 327.5 c 128
 191 429 191 429 298 506 c 0
 386 568 386 568 466 597 c 128
 546 626 546 626 630 626 c 0
 779 626 779 626 779 520 c 0
 779 461 779 461 736 413 c 1
EndSplineSet
EndChar
StartChar: P
Encoding: 80 80
Width: 597
Flags: W
Fore
856 598 m 1
 906 617 906 617 949 617 c 0
 981 617 981 617 1024 600 c 1
 1021 595 l 1
 989 609 989 609 955 609 c 0
 909 609 909 609 866 589 c 1
 903 553 903 553 903 500 c 0
 903 417 903 417 829 354 c 128
 755 291 755 291 658 291 c 0
 621 291 621 291 593 300 c 1
 586 292 586 292 568 270 c 0
 529 224 529 224 505 200 c 2
 488 183 l 1
 572 138 572 138 572 80 c 0
 572 43 572 43 538.5 21 c 128
 505 -1 505 -1 449 -1 c 0
 402 -1 402 -1 361 19 c 0
 343 28 343 28 306 52 c 1
 219 7 219 7 146 7 c 0
 49 7 49 7 49 72 c 0
 49 137 49 137 212 191 c 2
 224 195 l 1
 223 210 223 210 223 225 c 0
 223 340 223 340 319 449 c 0
 393 533 393 533 489 581 c 0
 603 638 603 638 710 638 c 0
 810 638 810 638 856 598 c 1
849 581 m 1
 803 559 803 559 762 520 c 0
 742 501 742 501 721 476 c 0
 693 442 693 442 643 370 c 0
 630 352 630 352 599 309 c 1
 631 300 631 300 656 300 c 0
 746 300 746 300 807 367.5 c 128
 868 435 868 435 868 522 c 0
 868 554 868 554 849 581 c 1
842 592 m 1
 795 630 795 630 718 630 c 0
 609 630 609 630 493 571 c 0
 402 525 402 525 331 440 c 0
 240 332 240 332 240 223 c 0
 240 222 240 222 242 198 c 1
 291 208 291 208 346 208 c 0
 410 208 410 208 455 193 c 1
 457 195 457 195 459.5 198 c 128
 462 201 462 201 463 202 c 0
 483 225 483 225 522 271 c 1
 555 317 l 1
 501 346 501 346 501 399 c 0
 501 464 501 464 566 499 c 1
 568 494 l 1
 511 462 511 462 511 400 c 0
 511 350 511 350 561 325 c 1
 569 336 l 1
 597 375 l 2
 617 403 617 403 632 421 c 0
 686 486 686 486 739 527 c 0
 763 545 763 545 790 563 c 0
 814 579 814 579 842 592 c 1
481 176 m 1
 467 163 467 163 448 147 c 0
 391 99 391 99 326 63 c 2
 317 58 l 1
 380 8 380 8 452 8 c 0
 549 8 549 8 549 86 c 0
 549 145 549 145 481 176 c 1
448 186 m 1
 403 200 403 200 355 200 c 0
 299 200 299 200 243 188 c 1
 249 145 249 145 268 111 c 0
 280 89 280 89 305 66 c 1
 342 88 342 88 364.5 106.5 c 128
 387 125 387 125 439 177 c 2
 448 186 l 1
226 184 m 1
 161 169 161 169 114 134 c 128
 67 99 67 99 67 66 c 0
 67 16 67 16 149 16 c 0
 213 16 213 16 296 61 c 1
 238 113 238 113 226 184 c 1
EndSplineSet
EndChar
StartChar: Q
Encoding: 81 81
Width: 652
Flags: W
Fore
327 36 m 1
 314 31 l 2
 228 -2 228 -2 130 -2 c 0
 28 -2 28 -2 28 42 c 0
 28 64 28 64 60 77.5 c 128
 92 91 92 91 145 91 c 0
 177 91 177 91 206 88 c 0
 263 82 263 82 341 55 c 1
 440 90 440 90 554 191 c 0
 655 280 655 280 700 368 c 0
 738 442 738 442 738 498 c 0
 738 601 738 601 626 601 c 0
 560 601 560 601 497 565 c 0
 425 523 425 523 377.5 463 c 128
 330 403 330 403 330 353 c 0
 330 322 330 322 351.5 303.5 c 128
 373 285 373 285 410 285 c 0
 466 285 466 285 525 337 c 128
 584 389 584 389 584 445 c 0
 584 491 584 491 541 491 c 0
 515 491 515 491 482 470 c 1
 478 474 l 1
 512 498 512 498 544 498 c 0
 601 498 601 498 601 439 c 0
 601 385 601 385 556 343 c 0
 487 278 487 278 409 278 c 0
 365 278 365 278 338.5 299.5 c 128
 312 321 312 321 312 357 c 0
 312 404 312 404 350.5 457 c 128
 389 510 389 510 453 550 c 0
 548 610 548 610 635 610 c 0
 702 610 702 610 742.5 574.5 c 128
 783 539 783 539 783 481 c 0
 783 340 783 340 569 173 c 0
 462 90 462 90 359 48 c 1
 390 40 390 40 444 22 c 0
 504 2 504 2 534 2 c 0
 607 2 607 2 672 65 c 1
 679 57 l 1
 601 -15 601 -15 510 -15 c 0
 460 -15 460 -15 378 17 c 0
 361 24 361 24 338 32 c 1
 338 33 338 33 327 36 c 1
311 43 m 1
 280 55 280 55 261 61 c 0
 196 82 196 82 131 82 c 0
 94 82 94 82 68.5 70 c 128
 43 58 43 58 43 41 c 0
 43 6 43 6 133 6 c 0
 225 6 225 6 311 43 c 1
EndSplineSet
EndChar
StartChar: R
Encoding: 82 82
Width: 864
Flags: W
Fore
604 643 m 1
 610 617 610 617 686 606 c 2
 728 600 l 2
 743 598 743 598 776 590 c 1
 820 612 820 612 872 612 c 0
 905 612 905 612 948 595 c 1
 944 589 l 1
 913 603 913 603 879 603 c 0
 832 603 832 603 790 583 c 1
 844 555 844 555 844 496 c 0
 844 439 844 439 795 393.5 c 128
 746 348 746 348 664 329 c 1
 685 311 685 311 685 278 c 0
 685 250 685 250 658 204 c 2
 626 150 l 2
 598 103 598 103 598 63 c 0
 598 10 598 10 662 10 c 0
 728 10 728 10 800 65 c 0
 881 127 881 127 881 190 c 0
 881 235 881 235 828 235 c 0
 747 235 747 235 679 113 c 1
 674 115 l 1
 700 172 700 172 744 208.5 c 128
 788 245 788 245 830 245 c 0
 860 245 860 245 878.5 229.5 c 128
 897 214 897 214 897 188 c 0
 897 119 897 119 805 55 c 0
 726 0 726 0 646 0 c 0
 557 0 557 0 557 76 c 0
 557 116 557 116 626 219 c 0
 665 277 665 277 665 300 c 0
 665 319 665 319 645 327 c 1
 634 327 l 1
 615 325 l 1
 596 325 l 2
 558 325 558 325 558 339 c 0
 558 353 558 353 594 353 c 0
 619 353 619 353 650 339 c 1
 715 349 715 349 762.5 403 c 128
 810 457 810 457 810 521 c 0
 810 559 810 559 777 577 c 1
 732 548 732 548 701 518 c 0
 619 440 619 440 566 365 c 2
 493 263 l 2
 418 158 418 158 341 92 c 0
 315 70 315 70 277 45 c 0
 206 -1 206 -1 150 -1 c 0
 64 -1 64 -1 64 80 c 0
 64 123 64 123 88 171 c 0
 103 202 103 202 133 237 c 0
 179 292 179 292 301 373 c 0
 468 484 468 484 517 531 c 0
 570 582 570 582 589 628 c 1
 582 645 582 645 582 653 c 0
 582 685 582 685 598 685 c 0
 608 685 608 685 608 667 c 0
 608 662 608 662 604 643 c 1
631 336 m 1
 612 344 612 344 593 344 c 0
 580 344 580 344 580 339 c 0
 580 333 580 333 602 333 c 1
 620 335 l 2
 621 335 621 335 625 336 c 0
 631 336 l 1
763 583 m 1
 738 590 738 590 692 596 c 0
 680 597 680 597 648.5 602.5 c 128
 617 608 617 608 598 623 c 1
 582 594 582 594 561 567 c 0
 544 545 544 545 525 527 c 0
 480 483 480 483 397 425 c 2
 290 350 l 2
 82 204 82 204 82 74 c 0
 82 7 82 7 150 7 c 0
 194 7 194 7 238 38 c 0
 252 48 252 48 273 66 c 0
 354 136 354 136 445 264 c 0
 534 389 534 389 597 453 c 0
 677 534 677 534 763 583 c 1
EndSplineSet
EndChar
StartChar: S
Encoding: 83 83
Width: 552
Flags: W
Fore
693 408 m 1
 740 473 740 473 785 509 c 0
 865 573 865 573 919 573 c 0
 954 573 954 573 954 547 c 0
 954 515 954 515 888.5 474 c 128
 823 433 823 433 729 405 c 1
 714 380 714 380 685 314.5 c 128
 656 249 656 249 631 206 c 0
 592 137 592 137 522 81 c 0
 421 0 421 0 276 0 c 0
 163 0 163 0 94 49.5 c 128
 25 99 25 99 25 181 c 0
 25 264 25 264 98.5 324 c 128
 172 384 172 384 272 384 c 0
 350 384 350 384 404 343 c 128
 458 302 458 302 458 243 c 0
 458 194 458 194 410.5 157 c 128
 363 120 363 120 300 120 c 0
 250 120 250 120 200 150 c 1
 203 156 l 1
 213 150 213 150 231 143 c 0
 259 130 259 130 292 130 c 0
 351 130 351 130 391.5 164 c 128
 432 198 432 198 432 247 c 0
 432 302 432 302 385.5 338 c 128
 339 374 339 374 268 374 c 0
 174 374 174 374 108.5 317 c 128
 43 260 43 260 43 178 c 0
 43 102 43 102 104.5 56 c 128
 166 10 166 10 267 10 c 0
 472 10 472 10 592 228 c 1
 687 397 l 1
 660 393 660 393 639 393 c 0
 551 393 551 393 495.5 429 c 128
 440 465 440 465 440 522 c 0
 440 574 440 574 486.5 612 c 128
 533 650 533 650 598 650 c 0
 678 650 678 650 712 592 c 1
 707 589 l 1
 661 639 661 639 601 639 c 0
 544 639 544 639 505 604.5 c 128
 466 570 466 570 466 520 c 0
 466 466 466 466 512.5 434.5 c 128
 559 403 559 403 639 403 c 0
 665 403 665 403 693 408 c 1
736 417 m 1
 813 441 813 441 870 479.5 c 128
 927 518 927 518 927 546 c 0
 927 559 927 559 906 559 c 0
 866 559 866 559 810 511 c 0
 770 477 770 477 736 417 c 1
EndSplineSet
EndChar
StartChar: T
Encoding: 84 84
Width: 575
Flags: W
Fore
910 576 m 1
 955 605 955 605 975 614 c 0
 1023 636 1023 636 1061 636 c 0
 1094 636 1094 636 1094 616 c 0
 1094 595 1094 595 1048 579 c 128
 1002 563 1002 563 940 563 c 0
 931 563 931 563 922 564 c 1
 897 546 897 546 877 525 c 0
 852 499 852 499 830 470 c 0
 800 430 800 430 733 317 c 0
 692 248 692 248 663 208 c 0
 604 127 604 127 507 66 c 0
 402 0 402 0 293 0 c 0
 230 0 230 0 179 27 c 1
 108 2 108 2 51 2 c 0
 39 2 39 2 16 5 c 1
 18 10 l 1
 36 10 l 2
 99 10 99 10 168 36 c 1
 123 85 123 85 123 141 c 0
 123 215 123 215 169 271.5 c 128
 215 328 215 328 275 328 c 0
 316 328 316 328 339.5 300.5 c 128
 363 273 363 273 363 225 c 0
 363 169 363 169 317 116.5 c 128
 271 64 271 64 194 33 c 1
 238 9 238 9 294 9 c 0
 488 9 488 9 624 232 c 2
 679 322 l 2
 735 413 735 413 790 471 c 0
 832 515 832 515 899 567 c 1
 880 571 880 571 814 587 c 0
 765 600 765 600 730 607 c 0
 650 623 650 623 565 623 c 0
 503 623 503 623 454 608 c 0
 395 590 395 590 355 543.5 c 128
 315 497 315 497 315 446 c 0
 315 402 315 402 352 373.5 c 128
 389 345 389 345 447 345 c 0
 506 345 506 345 548 375.5 c 128
 590 406 590 406 590 449 c 0
 590 499 590 499 539 499 c 0
 527 499 527 499 502 492 c 1
 500 497 l 1
 522 506 522 506 544 506 c 0
 609 506 609 506 609 446 c 0
 609 402 609 402 561 369.5 c 128
 513 337 513 337 447 337 c 0
 382 337 382 337 340 370.5 c 128
 298 404 298 404 298 456 c 0
 298 532 298 532 383.5 585 c 128
 469 638 469 638 590 638 c 0
 619 638 619 638 642 636 c 0
 708 630 708 630 842 592 c 0
 873 583 873 583 910 576 c 1
181 40 m 1
 343 117 343 117 343 242 c 0
 343 320 343 320 276 320 c 0
 221 320 221 320 179.5 259 c 128
 138 198 138 198 138 139 c 0
 138 83 138 83 181 40 c 1
934 575 m 1
 945 574 945 574 956 574 c 0
 1023 574 1023 574 1061 596 c 0
 1075 604 1075 604 1075 615 c 0
 1075 626 1075 626 1055 626 c 0
 1004 626 1004 626 945 583 c 2
 934 575 l 1
EndSplineSet
EndChar
StartChar: U
Encoding: 85 85
Width: 684
Flags: W
Fore
363 113 m 1
 378 172 378 172 424 239 c 0
 493 340 493 340 638 490 c 0
 735 590 735 590 789 626 c 0
 818 645 818 645 839 645 c 0
 863 645 863 645 863 619 c 0
 863 579 863 579 806 510 c 0
 728 415 728 415 599 297 c 0
 530 234 530 234 486 198 c 0
 481 193 481 193 444 164 c 2
 419 144 l 1
 394 90 394 90 394 56 c 0
 394 34 394 34 412 20 c 1
 451 86 451 86 496 134 c 0
 549 192 549 192 607 227.5 c 128
 665 263 665 263 706 263 c 0
 760 263 760 263 760 214 c 0
 760 140 760 140 635 60 c 0
 539 -2 539 -2 464 -2 c 0
 438 -2 438 -2 417 4 c 1
 414 -3 l 2
 393 -52 393 -52 393 -94 c 2
 393 -101 l 1
 385 -101 l 1
 385 -93 l 1
 384 -87 384 -87 384 -79 c 0
 384 -38 384 -38 405 9 c 1
 362 40 362 40 362 84 c 0
 362 93 362 93 363 101 c 1
 244 -2 244 -2 172 -2 c 0
 106 -2 106 -2 106 63 c 0
 106 105 106 105 140 157 c 0
 172 205 172 205 262 307 c 2
 335 389 l 2
 455 523 455 523 455 583 c 0
 455 630 455 630 405 630 c 0
 348 630 348 630 266 578 c 0
 205 540 205 540 168.5 493 c 128
 132 446 132 446 132 407 c 0
 132 359 132 359 184 359 c 0
 213 359 213 359 238 371 c 0
 253 378 253 378 269 390 c 1
 274 385 l 1
 229 350 229 350 185 350 c 0
 118 350 118 350 118 411 c 0
 118 446 118 446 145.5 488.5 c 128
 173 531 173 531 216.5 564 c 128
 260 597 260 597 312.5 618 c 128
 365 639 365 639 403 639 c 0
 480 639 480 639 480 569 c 0
 480 524 480 524 446 471 c 0
 421 433 421 433 304 300 c 0
 189 171 189 171 163 130 c 0
 133 84 133 84 133 48 c 0
 133 8 133 8 177 8 c 0
 206 8 206 8 247 32 c 0
 281 51 281 51 355 107 c 2
 363 113 l 1
423 158 m 1
 472 200 l 2
 537 256 537 256 589 304 c 0
 725 430 725 430 789 514 c 0
 846 589 846 589 846 621 c 0
 846 636 846 636 835 636 c 0
 808 636 808 636 745 572 c 0
 724 551 724 551 682 503 c 0
 662 480 662 480 555 349 c 0
 522 308 522 308 494 269 c 0
 475 242 475 242 423 158 c 1
422 15 m 1
 445 6 445 6 466 6 c 0
 557 6 557 6 669 103 c 0
 744 168 744 168 744 217 c 0
 744 254 744 254 704 254 c 0
 649 254 649 254 562 180.5 c 128
 475 107 475 107 422 15 c 1
EndSplineSet
EndChar
StartChar: V
Encoding: 86 86
Width: 474
Flags: W
Fore
788 501 m 1
 796 500 796 500 804 500 c 0
 855 500 855 500 896 529 c 1
 900 523 l 1
 855 491 855 491 805 491 c 0
 795 491 795 491 787 492 c 1
 770 428 770 428 740 376 c 0
 721 343 721 343 697 312 c 0
 631 226 631 226 551 163 c 0
 513 133 513 133 467 106 c 0
 350 37 350 37 235 10 c 0
 166 -6 166 -6 97 -10 c 1
 28 -29 28 -29 -4 -29 c 0
 -19 -29 -19 -29 -19 -21 c 0
 -19 -9 -19 -9 41 -4 c 2
 67 -2 l 1
 86 0 l 1
 195 31 195 31 321 154 c 0
 405 236 405 236 453.5 326 c 128
 502 416 502 416 502 491 c 0
 502 595 502 595 397 595 c 0
 334 595 334 595 261 549 c 0
 126 464 126 464 126 359 c 0
 126 324 126 324 150.5 302 c 128
 175 280 175 280 214 280 c 0
 246 280 246 280 275 295 c 0
 319 318 319 318 346.5 358 c 128
 374 398 374 398 374 439 c 0
 374 480 374 480 335 491 c 1
 337 497 l 1
 392 485 392 485 392 427 c 0
 392 368 392 368 337.5 320 c 128
 283 272 283 272 215 272 c 0
 169 272 169 272 141 298 c 128
 113 324 113 324 113 368 c 0
 113 450 113 450 198 521 c 0
 299 605 299 605 405 605 c 0
 469 605 469 605 504 568.5 c 128
 539 532 539 532 539 465 c 0
 539 369 539 369 466 266 c 0
 412 190 412 190 329 122 c 0
 259 65 259 65 176 25 c 2
 149 12 l 2
 141 9 141 9 124 2 c 1
 184 8 184 8 245 24 c 128
 306 40 306 40 346 57 c 0
 438 96 438 96 522 160 c 0
 648 257 648 257 722 380 c 0
 755 435 755 435 769 495 c 1
 705 513 705 513 705 565 c 0
 705 582 705 582 715.5 593.5 c 128
 726 605 726 605 741 605 c 0
 761 605 761 605 775 581 c 128
 789 557 789 557 789 521 c 0
 789 510 789 510 788 501 c 1
771 505 m 1
 773 531 773 531 773 536 c 0
 773 591 773 591 748 591 c 0
 729 591 729 591 729 560 c 0
 729 516 729 516 771 505 c 1
EndSplineSet
EndChar
StartChar: W
Encoding: 87 87
Width: 663
Flags: W
Fore
464 559 m 1
 509 589 l 2
 574 632 574 632 601 632 c 0
 613 632 613 632 613 625 c 0
 613 619 613 619 603 611 c 2
 589 600 l 2
 571 586 571 586 549 575 c 0
 515 558 515 558 469 550 c 1
 327 432 327 432 225 291.5 c 128
 123 151 123 151 123 74 c 0
 123 9 123 9 186 9 c 0
 261 9 261 9 347 75 c 1
 346 80 l 1
 346 121 346 121 364 160 c 0
 412 263 412 263 514 371 c 0
 570 429 570 429 624 467.5 c 128
 678 506 678 506 705 506 c 0
 729 506 729 506 729 479 c 0
 729 453 729 453 713 424 c 0
 687 376 687 376 641 322 c 0
 562 229 562 229 487 168 c 2
 387 86 l 1
 385 77 385 77 385 65 c 0
 385 9 385 9 441 9 c 0
 484 9 484 9 565 56 c 128
 646 103 646 103 727 176 c 0
 880 313 880 313 955 467 c 1
 847 486 847 486 847 566 c 0
 847 600 847 600 872.5 624 c 128
 898 648 898 648 933 648 c 0
 966 648 966 648 985 625.5 c 128
 1004 603 1004 603 1004 565 c 0
 1004 530 1004 530 982 476 c 1
 992 477 l 2
 1109 489 1109 489 1164 577 c 1
 1168 574 l 1
 1115 477 1115 477 978 466 c 1
 863 245 863 245 630 83 c 0
 509 -1 509 -1 433 -1 c 0
 372 -1 372 -1 349 63 c 1
 345 59 345 59 329 49 c 0
 249 0 249 0 186 0 c 0
 82 0 82 0 82 98 c 0
 82 185 82 185 205 329 c 0
 275 411 275 411 408 518 c 0
 433 538 433 538 449 548 c 1
 440 547 440 547 430 547 c 0
 384 547 384 547 311 570 c 0
 254 588 254 588 221 588 c 0
 160 588 160 588 108 547 c 0
 49 500 49 500 49 447 c 0
 49 416 49 416 70 397.5 c 128
 91 379 91 379 126 379 c 0
 159 379 159 379 189 399 c 0
 235 429 235 429 235 468 c 0
 235 504 235 504 207 504 c 2
 204 504 l 1
 205 511 l 1
 249 507 249 507 249 469 c 0
 249 443 249 443 225 417 c 0
 181 370 181 370 126 370 c 0
 86 370 86 370 59 393.5 c 128
 32 417 32 417 32 452 c 0
 32 492 32 492 66 528 c 0
 135 601 135 601 234 601 c 0
 278 601 278 601 329 584 c 2
 379 567 l 1
 397 563 397 563 428 559 c 0
 437 558 437 558 447 558 c 0
 456 558 456 558 464 559 c 1
388 101 m 1
 399 110 399 110 418 125 c 0
 525 212 525 212 590 285 c 128
 655 358 655 358 690 416 c 0
 716 460 716 460 716 483 c 0
 716 497 716 497 702 497 c 0
 657 497 657 497 560 382 c 0
 471 277 471 277 418 178 c 0
 399 142 399 142 388 101 c 1
959 477 m 1
 985 541 985 541 985 580 c 0
 985 639 985 639 936 639 c 0
 911 639 911 639 893.5 617 c 128
 876 595 876 595 876 563 c 0
 876 528 876 528 899 504 c 128
 922 480 922 480 959 477 c 1
488 563 m 1
 537 572 537 572 568 595 c 0
 583 606 583 606 583 611 c 0
 583 614 583 614 579 614 c 0
 565 614 565 614 509 577 c 2
 488 563 l 1
EndSplineSet
EndChar
StartChar: X
Encoding: 88 88
Width: 815
Flags: W
Fore
752 563 m 1
 879 626 879 626 951 626 c 0
 1012 626 1012 626 1012 582 c 0
 1012 536 1012 536 932 482.5 c 128
 852 429 852 429 716 385 c 1
 706 371 l 2
 650 293 650 293 568 222 c 0
 496 159 496 159 414 104 c 1
 403 98 l 1
 432 13 432 13 514 9 c 1
 553 111 553 111 623 179 c 0
 673 228 673 228 739 265 c 0
 790 294 790 294 832 294 c 0
 864 294 864 294 883 279 c 128
 902 264 902 264 902 239 c 0
 902 196 902 196 858 148 c 128
 814 100 814 100 739 61 c 0
 674 27 674 27 607 11 c 0
 567 1 567 1 521 -1 c 1
 505 -38 505 -38 503 -84 c 1
 498 -84 l 1
 498 -69 l 2
 498 -35 498 -35 511 -1 c 1
 504 -1 l 2
 416 -1 416 -1 371 79 c 1
 360 74 l 1
 305 46 l 2
 215 0 215 0 131 0 c 0
 79 0 79 0 79 44 c 0
 79 80 79 80 127 126 c 0
 155 153 155 153 196 179 c 0
 264 222 264 222 334 252 c 2
 390 276 l 1
 406 284 l 1
 454 349 454 349 520 406 c 0
 576 454 576 454 642 498 c 0
 675 520 675 520 721 547 c 1
 707 622 707 622 633 622 c 0
 584 622 584 622 516 592 c 128
 448 562 448 562 387 514 c 0
 331 469 331 469 295.5 417.5 c 128
 260 366 260 366 260 328 c 0
 260 310 260 310 270 294 c 1
 266 290 l 1
 251 310 251 310 251 336 c 0
 251 422 251 422 365 515 c 0
 427 566 427 566 504.5 599.5 c 128
 582 633 582 633 638 633 c 0
 719 633 719 633 752 563 c 1
756 550 m 1
 760 530 760 530 760 518 c 0
 760 468 760 468 725 401 c 1
 836 436 836 436 914 490 c 128
 992 544 992 544 992 585 c 0
 992 617 992 617 948 617 c 0
 889 617 889 617 756 550 c 1
524 9 m 1
 571 11 571 11 608 21 c 0
 670 37 670 37 739 75 c 0
 804 111 804 111 844 156.5 c 128
 884 202 884 202 884 239 c 0
 884 282 884 282 829 282 c 0
 793 282 793 282 737 251 c 128
 681 220 681 220 635 176 c 0
 583 126 583 126 549 65 c 0
 538 45 538 45 524 9 c 1
400 112 m 1
 502 181 502 181 553 236 c 0
 576 261 576 261 599 289 c 0
 613 306 613 306 634 333 c 1
 646 350 l 1
 655 362 l 1
 643 357 l 1
 467 296 l 1
 397 202 397 202 397 137 c 0
 397 124 397 124 400 112 c 1
367 93 m 1
 359 115 359 115 359 139 c 0
 359 198 359 198 396 268 c 1
 267 215 267 215 182 150 c 128
 97 85 97 85 97 39 c 0
 97 11 97 11 138 11 c 0
 215 11 215 11 367 93 c 1
476 311 m 1
 662 376 l 1
 722 465 722 465 722 529 c 2
 722 535 l 1
 706 525 706 525 671 500 c 0
 571 425 571 425 501 340 c 2
 487 323 l 1
 476 311 l 1
EndSplineSet
EndChar
StartChar: Y
Encoding: 89 89
Width: 434
Flags: W
Fore
356 92 m 1
 362 99 362 99 369 107 c 0
 387 130 387 130 431 194 c 0
 466 245 466 245 504 292 c 0
 576 382 576 382 653 458 c 0
 775 579 775 579 833 579 c 0
 860 579 860 579 860 545 c 0
 860 492 860 492 753 383 c 0
 679 307 679 307 581 231 c 0
 515 179 515 179 436 129 c 1
 427 120 l 1
 383 56 l 1
 327 -19 l 1
 376 -12 376 -12 406 -12 c 0
 490 -12 490 -12 537 -44.5 c 128
 584 -77 584 -77 584 -136 c 0
 584 -195 584 -195 528 -251 c 0
 463 -316 463 -316 375 -316 c 0
 325 -316 325 -316 295 -295 c 128
 265 -274 265 -274 265 -239 c 0
 265 -177 265 -177 343 -158 c 1
 344 -163 l 1
 336 -166 336 -166 321 -172 c 0
 277 -192 277 -192 277 -238 c 0
 277 -270 277 -270 304 -289 c 128
 331 -308 331 -308 376 -308 c 0
 447 -308 447 -308 500 -254 c 128
 553 -200 553 -200 553 -127 c 0
 553 -21 553 -21 411 -21 c 0
 369 -21 369 -21 318 -31 c 1
 314 -36 314 -36 309 -42 c 0
 307 -44 307 -44 266 -96 c 0
 209 -169 209 -169 132 -244 c 0
 44 -330 44 -330 -21 -371 c 0
 -92 -415 -92 -415 -144 -415 c 0
 -208 -415 -208 -415 -208 -368 c 0
 -208 -293 -208 -293 -60.5 -190 c 128
 87 -87 87 -87 275 -30 c 1
 280 -21 l 1
 313 26 l 2
 315 28 315 28 335 60 c 0
 338 65 338 65 344 74 c 1
 259 31 259 31 210 31 c 0
 138 31 138 31 138 90 c 0
 138 106 138 106 143 118 c 0
 154 145 154 145 174 170 c 0
 191 192 191 192 260 268 c 0
 353 370 353 370 385 424 c 0
 421 484 421 484 421 524 c 0
 421 587 421 587 339 587 c 0
 290 587 290 587 245 571 c 0
 181 548 181 548 115 498 c 0
 24 428 24 428 24 353 c 0
 24 283 24 283 95 283 c 0
 142 283 142 283 186 319 c 0
 214 342 214 342 234 375 c 128
 254 408 254 408 254 432 c 0
 254 466 254 466 222 466 c 2
 212 466 l 1
 213 471 l 1
 218 472 218 472 224 472 c 0
 243 472 243 472 256 457.5 c 128
 269 443 269 443 269 420 c 0
 269 374 269 374 225 331 c 0
 168 275 168 275 95 275 c 0
 55 275 55 275 30.5 298 c 128
 6 321 6 321 6 359 c 0
 6 445 6 445 117 521 c 128
 228 597 228 597 342 597 c 0
 449 597 449 597 449 508 c 0
 449 417 449 417 317 270 c 2
 265 212 l 1
 215 154 l 2
 169 101 169 101 169 72 c 0
 169 41 169 41 212 41 c 0
 279 41 279 41 356 92 c 1
454 154 m 1
 522 200 522 200 556 226 c 0
 617 273 617 273 676 332 c 0
 845 501 845 501 845 555 c 0
 845 569 845 569 831 569 c 0
 819 569 819 569 799 558 c 0
 711 510 711 510 539 271 c 2
 454 154 l 1
263 -43 m 1
 240 -51 240 -51 199 -65 c 0
 120 -94 120 -94 20 -155 c 0
 -73 -212 -73 -212 -132 -273 c 128
 -191 -334 -191 -334 -191 -372 c 0
 -191 -406 -191 -406 -146 -406 c 0
 -76 -406 -76 -406 20 -322 c 0
 78 -271 78 -271 175 -156 c 0
 195 -133 195 -133 225 -95 c 1
 235 -85 235 -85 255 -55 c 2
 263 -43 l 1
EndSplineSet
EndChar
StartChar: Z
Encoding: 90 90
Width: 1008
Flags: W
Fore
836 475 m 1
 967 574 967 574 1031 574 c 0
 1058 574 1058 574 1058 555 c 0
 1058 530 1058 530 1003 500 c 0
 931 461 931 461 835 457 c 1
 805 434 805 434 770 403 c 0
 746 382 746 382 634 274 c 1
 589 229 589 229 495 145 c 1
 459 116 459 116 409 84 c 1
 442 71 442 71 510 25 c 0
 521 18 521 18 542 4 c 2
 550 0 l 1
 617 69 617 69 702 114 c 0
 766 148 766 148 829 163 c 0
 874 174 874 174 907 174 c 0
 1004 174 1004 174 1004 105 c 0
 1004 45 1004 45 918 -13 c 0
 814 -83 814 -83 689 -83 c 0
 599 -83 599 -83 531 -43 c 1
 509 -71 509 -71 496 -101 c 0
 487 -122 487 -122 481 -150 c 1
 475 -150 l 1
 477 -124 477 -124 484.5 -105 c 128
 492 -86 492 -86 502 -69 c 0
 507 -60 507 -60 523 -38 c 1
 517 -34 517 -34 508 -28 c 0
 480 -6 480 -6 425 36 c 0
 412 46 412 46 380 66 c 1
 247 -1 247 -1 130 -1 c 0
 49 -1 49 -1 49 40 c 0
 49 73 49 73 110.5 97 c 128
 172 121 172 121 257 121 c 0
 304 121 304 121 337 110 c 0
 341 109 341 109 379 95 c 0
 385 93 385 93 395 90 c 1
 464 130 464 130 581 244 c 2
 652 313 l 2
 711 371 711 371 759 414 c 0
 780 433 780 433 811 456 c 1
 777 457 777 457 751 468 c 0
 712 484 712 484 675 524 c 2
 638 564 l 2
 588 618 588 618 510 618 c 0
 430 618 430 618 368 566.5 c 128
 306 515 306 515 306 449 c 0
 306 403 306 403 343 372.5 c 128
 380 342 380 342 435 342 c 0
 488 342 488 342 524 368.5 c 128
 560 395 560 395 560 434 c 0
 560 460 560 460 543 476.5 c 128
 526 493 526 493 500 493 c 0
 472 493 472 493 448 473 c 1
 444 477 l 1
 465 503 465 503 507 503 c 0
 539 503 539 503 561 484.5 c 128
 583 466 583 466 583 438 c 0
 583 397 583 397 537.5 365 c 128
 492 333 492 333 433 333 c 0
 372 333 372 333 330 367.5 c 128
 288 402 288 402 288 451 c 0
 288 523 288 523 360.5 576 c 128
 433 629 433 629 531 629 c 0
 592 629 592 629 643 602 c 0
 679 583 679 583 721 541 c 0
 760 502 760 502 791 488 c 0
 807 481 807 481 836 475 c 1
857 473 m 1
 866 472 866 472 876 472 c 0
 921 472 921 472 985 503 c 0
 1037 528 1037 528 1037 549 c 0
 1037 561 1037 561 1020 561 c 0
 993 561 993 561 945 535.5 c 128
 897 510 897 510 857 473 c 1
370 74 m 1
 293 112 293 112 226 112 c 0
 165 112 165 112 116 91 c 128
 67 70 67 70 67 44 c 0
 67 10 67 10 147 10 c 0
 249 10 249 10 370 74 c 1
559 -5 m 1
 577 -17 577 -17 606 -29.5 c 128
 635 -42 635 -42 659 -48 c 0
 705 -59 705 -59 755 -59 c 0
 805 -59 805 -59 854 -37 c 0
 912 -11 912 -11 949.5 27 c 128
 987 65 987 65 987 97 c 0
 987 162 987 162 898 162 c 0
 819 162 819 162 720 113 c 128
 621 64 621 64 559 -5 c 1
EndSplineSet
EndChar
StartChar: backslash
Encoding: 92 92
Width: 262
Flags: W
Fore
185 309 m 1
 203 309 l 1
 203 -75 l 1
 186 -74 l 1
 185 309 l 1
EndSplineSet
EndChar
StartChar: asciicircum
Encoding: 94 94
Width: 159
Flags: W
Fore
110 179 m 1
 104 186 l 1
 113 192 113 192 125 200 c 128
 137 208 137 208 160 226 c 0
 171 236 171 236 176 236 c 0
 182 236 182 236 185 219 c 1
 187 206 l 1
 189 191 189 191 199 188 c 0
 201 188 201 188 204 187 c 1
 201 182 l 1
 196 181 196 181 188 181 c 0
 171 181 171 181 168 206 c 1
 166 216 l 1
 166 219 l 1
 110 179 l 1
EndSplineSet
EndChar
StartChar: underscore
Encoding: 95 95
Width: 181
Flags: W
Fore
138 40 m 1
 144 33 l 1
 141 30 l 2
 103 0 103 0 88 0 c 0
 77 0 77 0 65.5 7.5 c 128
 54 15 54 15 48 15 c 0
 39 15 39 15 21 -1 c 1
 15 5 l 1
 20 10 20 10 33 20 c 1
 41 28 l 1
 56 39 56 39 67 39 c 0
 73 39 73 39 75 37 c 2
 88 30 l 2
 99 24 99 24 109 24 c 0
 118 24 118 24 138 40 c 1
EndSplineSet
EndChar
StartChar: grave
Encoding: 96 96
Width: 117
Flags: W
Fore
192 190 m 1
 168 196 168 196 146 213 c 0
 116 236 116 236 116 257 c 0
 116 269 116 269 127 269 c 0
 141 269 141 269 147 252 c 2
 153 234 l 2
 161 211 161 211 194 198 c 1
 192 190 l 1
EndSplineSet
EndChar
StartChar: a
Encoding: 97 97
Width: 161
Flags: W
Fore
68 22 m 1
 38 0 38 0 18 0 c 0
 -2 0 -2 0 -2 21 c 0
 -2 45 -2 45 25 71 c 0
 61 106 61 106 94 106 c 0
 110 106 110 106 110 93 c 0
 110 89 110 89 109 84 c 1
 129 103 l 1
 151 103 l 1
 101 34 l 2
 93 23 93 23 93 20 c 0
 93 15 93 15 100 15 c 0
 129 15 129 15 181 65 c 1
 187 57 l 1
 184 55 l 2
 122 0 122 0 82 0 c 0
 65 0 65 0 65 12 c 0
 65 15 65 15 68 22 c 1
90 95 m 2
 76 92 76 92 59 75 c 0
 27 43 27 43 27 23 c 0
 27 16 27 16 35 16 c 0
 54 16 54 16 77 45 c 128
 100 74 100 74 100 87 c 0
 100 95 100 95 92 95 c 2
 90 95 l 2
EndSplineSet
EndChar
StartChar: b
Encoding: 98 98
Width: 160
Flags: W
Fore
25 57 m 1
 8 46 l 1
 4 51 l 1
 11 56 11 56 27 72 c 0
 37 81 37 81 57 103 c 1
 126 200 l 1
 181 269 181 269 233 318 c 0
 276 359 276 359 301 359 c 0
 321 359 321 359 321 340 c 0
 321 290 321 290 174 191 c 2
 140 168 l 1
 124 158 l 1
 109 139 109 139 79 94 c 0
 43 40 43 40 43 25 c 0
 43 14 43 14 55 14 c 0
 71 14 71 14 90 30 c 128
 109 46 109 46 116 66 c 1
 116 76 l 2
 116 107 116 107 135 107 c 0
 148 107 148 107 148 92 c 0
 148 83 148 83 139 67 c 0
 132 57 132 57 132 52 c 0
 132 41 132 41 144 41 c 0
 155 41 155 41 180 65 c 1
 187 57 l 1
 159 31 159 31 142 31 c 0
 128 31 128 31 120 43 c 1
 86 0 86 0 42 0 c 0
 14 0 14 0 14 21 c 0
 14 35 14 35 25 57 c 1
138 178 m 1
 144 182 144 182 156 190 c 0
 193 216 193 216 240 259 c 0
 299 315 299 315 299 337 c 0
 299 345 299 345 291 345 c 0
 266 345 266 345 197 254 c 2
 149 191 l 1
 138 178 l 1
EndSplineSet
EndChar
StartChar: c
Encoding: 99 99
Width: 117
Flags: W
Fore
136 65 m 1
 143 57 l 1
 140 55 l 2
 77 0 77 0 33 0 c 0
 -1 0 -1 0 -1 23 c 0
 -1 45 -1 45 23 69 c 0
 61 107 61 107 97 107 c 0
 121 107 121 107 121 85 c 0
 121 64 121 64 100 64 c 0
 84 64 84 64 84 77 c 0
 84 84 84 84 90 88 c 0
 92 89 92 89 92 91 c 0
 92 95 92 95 87 95 c 0
 76 95 76 95 58 76 c 0
 33 49 33 49 33 27 c 0
 33 14 33 14 50 14 c 0
 85 14 85 14 136 65 c 1
EndSplineSet
EndChar
StartChar: d
Encoding: 100 100
Width: 157
Flags: W
Fore
68 22 m 1
 38 0 38 0 18 0 c 0
 -3 0 -3 0 -3 21 c 0
 -3 44 -3 44 25 71 c 0
 61 106 61 106 95 106 c 0
 107 106 107 106 110 94 c 1
 116 103 l 1
 154 161 l 2
 205 239 205 239 243 279.5 c 128
 281 320 281 320 308.5 342 c 128
 336 364 336 364 351 364 c 0
 366 364 366 364 366 348 c 0
 366 334 366 334 352 315 c 0
 350 311 350 311 338 296 c 0
 318 271 318 271 280 237 c 2
 237 198 l 2
 204 168 204 168 162 134 c 0
 160 132 160 132 157 127 c 128
 154 122 154 122 127 80 c 0
 118 65 118 65 104 41 c 2
 97 30 l 2
 94 24 94 24 94 22 c 0
 94 16 94 16 101 16 c 0
 127 16 127 16 176 65 c 1
 183 57 l 1
 180 55 l 2
 117 0 117 0 83 0 c 0
 65 0 65 0 65 13 c 0
 65 15 65 15 68 22 c 1
178 159 m 1
 195 173 195 173 230 206 c 0
 276 250 276 250 309.5 290 c 128
 343 330 343 330 343 342 c 0
 343 348 343 348 338 348 c 0
 331 348 331 348 316 335 c 0
 290 312 290 312 238 243 c 0
 220 219 220 219 178 159 c 1
89 95 m 2
 67 91 67 91 43 56 c 0
 27 33 27 33 27 22 c 0
 27 16 27 16 34 16 c 0
 53 16 53 16 76.5 44.5 c 128
 100 73 100 73 100 87 c 0
 100 95 100 95 92 95 c 2
 89 95 l 2
EndSplineSet
EndChar
StartChar: e
Encoding: 101 101
Width: 112
Flags: W
Fore
34 38 m 1
 32 32 32 32 32 29 c 0
 32 15 32 15 48 15 c 0
 80 15 80 15 132 65 c 1
 138 57 l 1
 135 55 l 2
 73 0 73 0 30 0 c 0
 0 0 0 0 0 23 c 0
 0 44 0 44 21 67 c 0
 59 108 59 108 99 108 c 0
 113 108 113 108 113 95 c 0
 113 84 113 84 98.5 73.5 c 128
 84 63 84 63 34 38 c 1
43 54 m 1
 93 75 93 75 93 90 c 0
 93 95 93 95 88 95 c 0
 68 95 68 95 43 54 c 1
EndSplineSet
EndChar
StartChar: f
Encoding: 102 102
Width: 95
Flags: W
Fore
-74 -82 m 1
 -23 -12 l 1
 26 57 l 1
 8 46 l 1
 4 51 l 1
 20 64 20 64 36 81 c 1
 35 84 35 84 35 89 c 0
 35 106 35 106 53 106 c 2
 59 106 l 1
 64 113 l 1
 90 151 l 2
 110 180 110 180 137 214 c 0
 193 284 193 284 227 314 c 0
 250 334 250 334 263 334 c 0
 278 334 278 334 278 317 c 0
 278 293 278 293 211 231 c 2
 100 129 l 1
 94 119 l 2
 62 66 62 66 62 58 c 0
 62 41 62 41 78 41 c 0
 88 41 88 41 115 65 c 1
 121 57 l 1
 92 31 92 31 77 31 c 0
 60 31 60 31 48 50 c 1
 33 26 l 1
 26 11 l 2
 18 -5 18 -5 4 -34 c 0
 -13 -71 -13 -71 -33 -114 c 0
 -49 -145 -49 -145 -97 -231 c 0
 -158 -340 -158 -340 -195 -340 c 0
 -215 -340 -215 -340 -215 -317 c 0
 -215 -299 -215 -299 -202 -274 c 0
 -193 -258 -193 -258 -181.5 -239 c 128
 -170 -220 -170 -220 -114 -139 c 2
 -74 -82 l 1
126 167 m 1
 139 178 l 2
 141 179 141 179 173 211 c 0
 212 249 212 249 233 275 c 128
 254 301 254 301 254 312 c 0
 254 317 254 317 250 317 c 0
 226 317 226 317 126 167 c 1
9 -3 m 1
 -19 -46 l 1
 -55 -96 l 2
 -59 -102 -59 -102 -105 -169 c 0
 -144 -227 -144 -227 -166 -263 c 0
 -189 -302 -189 -302 -189 -316 c 0
 -189 -325 -189 -325 -183 -325 c 0
 -168 -325 -168 -325 -145 -290 c 0
 -126 -261 -126 -261 -82 -184 c 0
 -57 -141 -57 -141 -46 -117 c 0
 -38 -102 -38 -102 -12 -48 c 2
 9 -3 l 1
EndSplineSet
EndChar
StartChar: g
Encoding: 103 103
Width: 165
Flags: WO
Fore
110 85 m 1
 127 103 l 1
 146 103 l 1
 62 -31 l 1
 85 -13 l 1
 117 10 l 2
 125 16 125 16 151 37 c 0
 163 46 163 46 185 65 c 1
 191 57 l 1
 188 55 l 2
 170 39 170 39 74 -34 c 2
 49 -53 l 1
 45 -60 l 1
 9 -120 l 2
 -125 -344 -125 -344 -193 -344 c 0
 -215 -344 -215 -344 -215 -319 c 0
 -215 -291 -215 -291 -186 -253 c 0
 -168 -230 -168 -230 -137 -198 c 0
 -98 -158 -98 -158 -24 -94 c 0
 -8 -81 -8 -81 22 -54 c 1
 44 -18 l 2
 51 -6 51 -6 61 10 c 1
 68 23 l 1
 63 19 l 2
 39 0 39 0 19 0 c 0
 -2 0 -2 0 -2 21 c 0
 -2 45 -2 45 25 71 c 0
 62 107 62 107 95 107 c 0
 111 107 111 107 111 93 c 0
 111 92 111 92 111 90 c 0
 110 87 110 87 110 85 c 1
90 95 m 2
 67 90 67 90 43 57 c 0
 28 36 28 36 28 23 c 0
 28 16 28 16 35 16 c 0
 54 16 54 16 77 45 c 128
 100 74 100 74 100 87 c 0
 100 95 100 95 92 95 c 2
 90 95 l 2
7 -80 m 1
 -21 -105 l 2
 -37 -119 -37 -119 -62 -143 c 0
 -115 -193 -115 -193 -150 -237 c 0
 -195 -293 -195 -293 -195 -317 c 0
 -195 -330 -195 -330 -182 -330 c 0
 -138 -330 -138 -330 -54 -183 c 2
 -26 -134 l 1
 7 -80 l 1
EndSplineSet
EndChar
StartChar: h
Encoding: 104 104
Width: 169
Flags: W
Fore
52 58 m 1
 59 64 l 2
 108 106 108 106 130 106 c 0
 149 106 149 106 149 90 c 0
 149 78 149 78 126 50 c 0
 107 27 107 27 107 20 c 0
 107 15 107 15 113 15 c 0
 126 15 126 15 157 38 c 0
 173 50 173 50 190 65 c 1
 196 57 l 1
 193 55 l 2
 130 0 130 0 97 0 c 0
 76 0 76 0 76 19 c 0
 76 31 76 31 108 68 c 0
 123 85 123 85 123 90 c 0
 123 93 123 93 120 93 c 0
 109 93 109 93 82 71 c 0
 45 41 45 41 18 3 c 1
 -10 3 l 1
 26 57 l 1
 8 46 l 1
 4 51 l 1
 11 57 11 57 27 72 c 0
 38 82 38 82 56 103 c 1
 69 122 l 1
 126 207 l 2
 167 268 167 268 218.5 314 c 128
 270 360 270 360 297 360 c 0
 321 360 321 360 321 337 c 0
 321 309 321 309 276 267 c 0
 228 223 228 223 159 183 c 2
 126 164 l 1
 119 154 l 2
 104 134 104 134 73 89 c 2
 52 58 l 1
134 180 m 1
 153 190 l 1
 177 206 l 2
 233 244 233 244 268 281 c 0
 296 311 296 311 296 332 c 0
 296 345 296 345 285 345 c 0
 273 345 273 345 244 320 c 0
 223 301 223 301 209 284 c 0
 191 262 191 262 134 180 c 1
EndSplineSet
EndChar
StartChar: i
Encoding: 105 105
Width: 93
Flags: W
Fore
145 217 m 0
 158 217 158 217 158 205 c 0
 158 186 158 186 138 186 c 0
 124 186 124 186 124 198 c 0
 124 217 124 217 145 217 c 0
17 52 m 1
 8 46 l 1
 4 51 l 1
 11 56 11 56 27 72 c 0
 37 81 37 81 57 103 c 1
 87 103 l 1
 31 29 l 2
 28 26 28 26 28 21 c 0
 28 15 28 15 36 15 c 0
 61 15 61 15 113 65 c 1
 119 57 l 1
 116 55 l 2
 53 0 53 0 20 0 c 0
 -1 0 -1 0 -1 18 c 0
 -1 25 -1 25 9 40 c 2
 17 52 l 1
EndSplineSet
EndChar
StartChar: j
Encoding: 106 106
Width: 88
Flags: W
Fore
146 217 m 0
 159 217 159 217 159 205 c 0
 159 186 159 186 139 186 c 0
 125 186 125 186 125 198 c 0
 125 217 125 217 146 217 c 0
24 56 m 1
 8 46 l 1
 4 51 l 1
 6 52 6 52 27 72 c 0
 45 89 45 89 57 103 c 1
 87 103 l 1
 9 -10 l 1
 78 35 78 35 108 65 c 1
 114 57 l 1
 111 55 l 2
 89 35 89 35 67 19 c 2
 34 -5 l 1
 2 -27 l 2
 -8 -34 -8 -34 -11 -40 c 1
 -63 -114 -63 -114 -96 -154 c 0
 -143 -211 -143 -211 -203 -267 c 0
 -297 -355 -297 -355 -339 -355 c 0
 -368 -355 -368 -355 -368 -326 c 0
 -368 -301 -368 -301 -331 -262 c 0
 -305 -235 -305 -235 -258 -198 c 0
 -224 -172 -224 -172 -194 -150 c 0
 -192 -149 -192 -149 -129 -106 c 0
 -113 -95 -113 -95 -63 -60 c 2
 -49 -50 l 1
 24 56 l 1
-64 -73 m 1
 -78 -83 l 1
 -188 -163 l 2
 -253 -210 -253 -210 -298.5 -255.5 c 128
 -344 -301 -344 -301 -344 -324 c 0
 -344 -340 -344 -340 -328 -340 c 0
 -302 -340 -302 -340 -238 -280.5 c 128
 -174 -221 -174 -221 -115 -141 c 2
 -64 -73 l 1
EndSplineSet
EndChar
StartChar: k
Encoding: 107 107
Width: 170
Flags: W
Fore
88 59 m 1
 117 67 117 67 117 87 c 0
 117 93 117 93 111 93 c 0
 75 93 75 93 19 3 c 1
 -9 3 l 1
 26 57 l 1
 8 46 l 1
 4 51 l 1
 11 57 11 57 27 72 c 0
 38 83 38 83 56 103 c 1
 82 139 82 139 103 173 c 1
 93 172 93 172 83 172 c 0
 38 172 38 172 10.5 190.5 c 128
 -17 209 -17 209 -17 240 c 0
 -17 296 -17 296 44 306 c 1
 45 301 l 1
 -1 290 -1 290 -1 243 c 0
 -1 215 -1 215 23.5 198 c 128
 48 181 48 181 86 181 c 0
 99 181 99 181 111 183 c 1
 115 188 l 1
 159 248 l 2
 193 294 193 294 233.5 326 c 128
 274 358 274 358 298 358 c 0
 320 358 320 358 320 335 c 0
 320 306 320 306 271 260 c 0
 214 207 214 207 132 178 c 1
 123 162 123 162 98 126 c 2
 73 90 l 1
 60 69 l 1
 102 106 102 106 124 106 c 0
 146 106 146 106 146 89 c 0
 146 66 146 66 99 53 c 1
 107 46 107 46 107 37 c 2
 107 30 l 1
 106 28 106 28 106 24 c 0
 106 15 106 15 113 15 c 0
 134 15 134 15 190 65 c 1
 196 57 l 1
 193 55 l 2
 131 0 131 0 96 0 c 0
 77 0 77 0 77 17 c 0
 77 22 77 22 78.5 31 c 128
 80 40 80 40 80 44 c 2
 80 45 l 2
 80 47 80 47 79 48.5 c 128
 78 50 78 50 73.5 51 c 128
 69 52 69 52 69 55 c 0
 69 60 69 60 78 60 c 0
 84 60 84 60 88 59 c 1
140 190 m 1
 209 213 209 213 261 272 c 0
 295 310 295 310 295 332 c 0
 295 344 295 344 285 344 c 0
 263 344 263 344 223 300 c 0
 215 292 215 292 205 279 c 0
 198 270 198 270 165 226 c 0
 148 203 148 203 140 190 c 1
EndSplineSet
EndChar
StartChar: l
Encoding: 108 108
Width: 98
Flags: W
Fore
103 134 m 1
 101 131 101 131 99 127 c 0
 67 81 67 81 45 41 c 2
 39 30 l 1
 36 26 36 26 36 22 c 0
 36 16 36 16 42 16 c 0
 67 16 67 16 118 65 c 1
 124 57 l 1
 121 55 l 2
 60 0 60 0 24 0 c 0
 6 0 6 0 6 16 c 0
 6 26 6 26 20 46 c 1
 26 57 l 1
 8 46 l 1
 4 51 l 1
 11 56 11 56 27 72 c 0
 37 81 37 81 57 103 c 1
 70 123 l 1
 101 170 l 2
 143 233 143 233 184 278 c 0
 220 317 220 317 251 342 c 0
 278 364 278 364 292 364 c 0
 307 364 307 364 307 348 c 0
 307 329 307 329 279 296 c 0
 259 272 259 272 221 237 c 2
 179 198 l 2
 144 166 144 166 103 134 c 1
119 159 m 1
 196 222 196 222 251 289 c 0
 285 330 285 330 285 342 c 0
 285 348 285 348 279 348 c 0
 272 348 272 348 257 335 c 0
 236 317 236 317 180 243 c 0
 147 200 147 200 119 159 c 1
EndSplineSet
EndChar
StartChar: m
Encoding: 109 109
Width: 245
Flags: W
Fore
94 3 m 1
 66 3 l 1
 122 89 l 1
 123 89 123 89 123 91 c 0
 123 94 123 94 120 94 c 0
 110 94 110 94 82 71 c 0
 44 40 44 40 19 3 c 1
 -9 3 l 1
 26 57 l 1
 8 46 l 1
 4 51 l 1
 11 57 11 57 27 72 c 0
 38 83 38 83 56 103 c 1
 80 103 l 1
 53 58 l 1
 60 64 l 2
 109 106 109 106 131 106 c 0
 146 106 146 106 146 94 c 0
 146 84 146 84 128 58 c 1
 135 64 l 2
 184 106 184 106 206 106 c 0
 225 106 225 106 225 90 c 0
 225 79 225 79 201 50 c 0
 182 27 182 27 182 21 c 0
 182 15 182 15 189 15 c 0
 200 15 200 15 232 38 c 0
 253 53 253 53 265 65 c 1
 271 57 l 1
 268 55 l 2
 205 0 205 0 172 0 c 0
 152 0 152 0 152 18 c 0
 152 32 152 32 184 68 c 0
 199 85 199 85 199 91 c 0
 199 94 199 94 195 94 c 0
 180 94 180 94 140 55 c 0
 107 22 107 22 94 3 c 1
EndSplineSet
EndChar
StartChar: n
Encoding: 110 110
Width: 170
Flags: W
Fore
19 3 m 1
 -9 3 l 1
 26 57 l 1
 8 46 l 1
 4 51 l 1
 11 57 11 57 27 72 c 0
 38 83 38 83 56 103 c 1
 80 103 l 1
 53 58 l 1
 60 64 l 2
 109 106 109 106 130 106 c 0
 149 106 149 106 149 90 c 0
 149 81 149 81 141 70 c 2
 122 45 l 2
 108 27 108 27 108 21 c 0
 108 15 108 15 114 15 c 0
 126 15 126 15 157 38 c 0
 173 50 173 50 190 65 c 1
 196 57 l 1
 193 55 l 2
 132 0 132 0 98 0 c 0
 76 0 76 0 76 18 c 0
 76 30 76 30 109 68 c 0
 124 85 124 85 124 90 c 0
 124 93 124 93 121 93 c 0
 109 93 109 93 82 71 c 0
 44 40 44 40 19 3 c 1
EndSplineSet
EndChar
StartChar: o
Encoding: 111 111
Width: 146
Flags: W
Fore
166 65 m 1
 173 57 l 1
 145 31 145 31 128 31 c 0
 115 31 115 31 107 42 c 1
 103 38 l 1
 93 29 l 2
 60 -1 60 -1 26 -1 c 0
 -1 -1 -1 -1 -1 23 c 0
 -1 53 -1 53 39 82 c 0
 73 107 73 107 98 107 c 0
 126 107 126 107 126 80 c 0
 126 76 126 76 120 59 c 0
 119 56 119 56 119 52 c 0
 119 41 119 41 130 41 c 0
 141 41 141 41 166 65 c 1
102 90 m 1
 100 95 100 95 93 95 c 0
 70 95 70 95 45 60 c 0
 29 37 29 37 29 23 c 0
 29 13 29 13 39 13 c 0
 66 13 66 13 99 65 c 1
 97 75 97 75 97 76 c 0
 97 82 97 82 102 90 c 1
EndSplineSet
EndChar
StartChar: p
Encoding: 112 112
Width: 184
Flags: W
Fore
71 114 m 1
 79 125 l 2
 107 163 107 163 122 163 c 0
 128 163 128 163 128 157 c 0
 128 147 128 147 110 128 c 2
 97 114 l 2
 79 94 79 94 29 28 c 0
 17 12 17 12 -39 -65 c 2
 -114 -168 l 1
 -225 -324 -225 -324 -225 -345 c 0
 -225 -351 -225 -351 -220 -351 c 0
 -213 -351 -213 -351 -205 -342 c 0
 -175 -307 -175 -307 -110 -208 c 2
 -50 -116 l 2
 -25 -78 -25 -78 10 -28 c 0
 43 19 43 19 60 40 c 0
 89 76 89 76 103 90 c 1
 123 107 123 107 143 107 c 0
 163 107 163 107 163 90 c 0
 163 86 163 86 161 78 c 0
 160 75 160 75 155 70 c 0
 145 57 145 57 136 45 c 0
 121 25 121 25 121 21 c 0
 121 16 121 16 128 16 c 0
 155 16 155 16 204 65 c 1
 210 57 l 1
 207 55 l 2
 146 0 146 0 111 0 c 0
 91 0 91 0 91 19 c 0
 91 31 91 31 123 68 c 0
 137 84 137 84 137 90 c 0
 137 94 137 94 131 94 c 0
 113 94 113 94 68 34 c 0
 -3 -60 -3 -60 -40 -119 c 2
 -100 -215 l 2
 -196 -369 -196 -369 -230 -369 c 0
 -253 -369 -253 -369 -253 -348 c 0
 -253 -325 -253 -325 -217 -271 c 0
 -189 -230 -189 -230 -135 -156 c 0
 -97 -104 -97 -104 12 39 c 2
 26 57 l 1
 8 46 l 1
 4 51 l 1
 27 71 l 1
 41 85 l 1
 60 103 l 1
 71 114 l 1
EndSplineSet
EndChar
StartChar: q
Encoding: 113 113
Width: 150
Flags: W
Fore
-145 -345 m 1
 -164 -333 l 1
 60 16 l 1
 35 0 35 0 18 0 c 0
 -2 0 -2 0 -2 21 c 0
 -2 44 -2 44 25 71 c 0
 60 106 60 106 94 106 c 0
 110 106 110 106 110 93 c 0
 110 89 110 89 109 84 c 1
 129 103 l 1
 151 103 l 1
 110 47 110 47 71 -10 c 1
 135 31 135 31 170 65 c 1
 177 57 l 1
 173 55 l 1
 163 45 163 45 161 44 c 0
 136 23 136 23 96 -5 c 0
 82 -15 82 -15 55 -35 c 1
 -145 -345 l 1
90 95 m 2
 68 91 68 91 43 56 c 0
 28 35 28 35 28 22 c 0
 28 16 28 16 35 16 c 0
 53 16 53 16 76.5 44.5 c 128
 100 73 100 73 100 87 c 0
 100 95 100 95 92 95 c 2
 90 95 l 2
EndSplineSet
EndChar
StartChar: r
Encoding: 114 114
Width: 125
Flags: W
Fore
61 95 m 1
 42 70 42 70 24 55 c 1
 17 62 l 1
 22 67 l 2
 29 73 29 73 35 79.5 c 128
 41 86 41 86 44.5 90 c 128
 48 94 48 94 52 99 c 1
 47 103 47 103 47 110 c 0
 47 133 47 133 69 133 c 0
 81 133 81 133 81 123 c 0
 81 117 81 117 77 112 c 0
 76 111 76 111 76 109 c 0
 76 106 76 106 79 106 c 1
 79 107 l 1
 89 107 l 2
 104 107 104 107 104 93 c 0
 104 87 104 87 94 73 c 0
 92 70 92 70 89.5 67 c 128
 87 64 87 64 87 63 c 1
 80 54 l 1
 72 43 l 2
 58 24 58 24 58 20 c 0
 58 15 58 15 64 15 c 0
 93 15 93 15 145 65 c 1
 151 57 l 1
 148 55 l 2
 87 0 87 0 47 0 c 0
 27 0 27 0 27 18 c 0
 27 36 27 36 63 71 c 0
 80 88 80 88 80 92 c 0
 80 96 80 96 76 96 c 2
 75 96 l 1
 65 95 l 1
 61 95 l 1
EndSplineSet
EndChar
StartChar: s
Encoding: 115 115
Width: 116
Flags: W
Fore
71 25 m 1
 104 35 104 35 135 65 c 1
 142 57 l 1
 116 34 116 34 96 24 c 0
 81 17 81 17 55 13 c 1
 34 0 34 0 8 0 c 0
 -40 0 -40 0 -40 19 c 0
 -40 34 -40 34 -13 34 c 0
 1 34 1 34 23 28 c 0
 29 27 29 27 42 24 c 1
 54 35 54 35 56 84 c 1
 45 75 l 1
 33 63 l 1
 23 55 l 1
 22 53 l 1
 15 60 l 1
 24 68 l 1
 38 82 l 1
 56 99 l 1
 60 130 60 130 87 130 c 0
 96 130 96 130 96 123 c 0
 96 116 96 116 84 106 c 0
 79 101 79 101 74 97 c 1
 83 76 83 76 83 60 c 0
 83 42 83 42 71 25 c 1
32 15 m 1
 24 17 l 1
 14 19 l 1
 5 21 l 2
 4 21 4 21 2 22 c 0
 -1 22 -1 22 -2 22 c 0
 -10 22 -10 22 -10 17 c 0
 -10 10 -10 10 11 10 c 0
 21 10 21 10 32 15 c 1
EndSplineSet
EndChar
StartChar: t
Encoding: 116 116
Width: 97
Flags: W
Fore
117 65 m 1
 123 57 l 1
 120 55 l 2
 58 0 58 0 23 0 c 0
 1 0 1 0 1 18 c 0
 1 28 1 28 16 51 c 1
 8 46 l 1
 4 51 l 1
 10 57 10 57 27 72 c 0
 32 77 32 77 39.5 84 c 128
 47 91 47 91 81 137 c 0
 82 138 82 138 84.5 141.5 c 128
 87 145 87 145 89 147 c 1
 19 147 l 1
 25 155 l 1
 51 157 51 157 59.5 157 c 128
 68 157 68 157 79 158 c 0
 89 158 89 158 90 158 c 2
 97 158 l 1
 102 165 l 1
 134 206 l 2
 159 238 159 238 175 238 c 0
 182 238 182 238 182 236 c 0
 182 235 182 235 180 233 c 1
 176 226 l 1
 125 158 l 1
 134 157 l 1
 176 157 l 1
 173 149 l 1
 148 147 148 147 121 147 c 2
 116 147 l 1
 115 145 115 145 112 141 c 0
 102 130 102 130 71 86 c 0
 29 27 29 27 29 21 c 0
 29 15 29 15 38 15 c 0
 65 15 65 15 117 65 c 1
EndSplineSet
EndChar
StartChar: u
Encoding: 117 117
Width: 171
Flags: W
Fore
87 103 m 1
 37 35 l 2
 28 23 28 23 28 19 c 0
 28 12 28 12 37 12 c 0
 64 12 64 12 102 62 c 2
 133 103 l 1
 163 103 l 1
 112 34 l 2
 104 23 104 23 104 20 c 0
 104 14 104 14 111 14 c 0
 138 14 138 14 191 65 c 1
 197 57 l 1
 194 55 l 2
 132 0 132 0 95 0 c 0
 75 0 75 0 75 15 c 0
 75 16 75 16 77 22 c 1
 47 0 47 0 24 0 c 0
 0 0 0 0 0 18 c 0
 0 29 0 29 19 53 c 1
 8 46 l 1
 4 51 l 1
 11 57 11 57 28 73.5 c 128
 45 90 45 90 56 103 c 1
 87 103 l 1
EndSplineSet
EndChar
StartChar: v
Encoding: 118 118
Width: 154
Flags: W
Fore
87 103 m 1
 36 37 l 2
 26 24 26 24 26 19 c 0
 26 12 26 12 34 12 c 0
 50 12 50 12 71 26 c 0
 103 47 103 47 110 66 c 1
 109 71 109 71 109 76 c 0
 109 107 109 107 129 107 c 0
 142 107 142 107 142 92 c 0
 142 82 142 82 132 67 c 0
 126 58 126 58 126 52 c 0
 126 41 126 41 137 41 c 0
 149 41 149 41 173 65 c 1
 180 57 l 1
 153 31 153 31 135 31 c 0
 121 31 121 31 114 44 c 1
 66 0 66 0 26 0 c 0
 -1 0 -1 0 -1 19 c 0
 -1 30 -1 30 12 46 c 2
 16 51 l 1
 8 46 l 1
 4 51 l 1
 11 57 11 57 28 73.5 c 128
 45 90 45 90 56 103 c 1
 87 103 l 1
EndSplineSet
EndChar
StartChar: w
Encoding: 119 119
Width: 230
Flags: W
Fore
83 24 m 1
 51 0 51 0 24 0 c 0
 -1 0 -1 0 -1 19 c 0
 -1 30 -1 30 17 51 c 1
 8 46 l 1
 4 51 l 1
 11 57 11 57 28 73.5 c 128
 45 90 45 90 56 103 c 1
 87 103 l 1
 52 60 52 60 30 28 c 0
 26 22 26 22 26 19 c 0
 26 12 26 12 34 12 c 0
 50 12 50 12 71 26 c 0
 88 37 88 37 109 66 c 0
 138 106 138 106 156 106 c 0
 164 106 164 106 164 102 c 0
 164 97 164 97 156 87 c 0
 146 74 146 74 121 41 c 2
 113 31 l 2
 108 25 108 25 108 19 c 0
 108 12 108 12 116 12 c 0
 130 12 130 12 152 26 c 0
 186 48 186 48 191 66 c 1
 191 76 l 2
 191 107 191 107 210 107 c 0
 223 107 223 107 223 92 c 0
 223 83 223 83 214 67 c 0
 207 57 207 57 207 52 c 0
 207 41 207 41 219 41 c 0
 230 41 230 41 255 65 c 1
 262 57 l 1
 234 31 234 31 217 31 c 0
 202 31 202 31 195 44 c 1
 149 0 149 0 107 0 c 0
 82 0 82 0 82 15 c 0
 82 20 82 20 83 24 c 1
EndSplineSet
EndChar
StartChar: x
Encoding: 120 120
Width: 185
Flags: W
Fore
70 18 m 1
 65 14 l 2
 42 0 42 0 26 0 c 0
 4 0 4 0 4 20 c 0
 4 41 4 41 25 41 c 0
 39 41 39 41 39 29 c 0
 39 26 39 26 34 19 c 0
 32 17 32 17 32 16 c 0
 32 13 32 13 37 13 c 0
 54 13 54 13 73 39 c 0
 89 61 89 61 89 83 c 0
 89 95 89 95 80 95 c 0
 68 95 68 95 44 73 c 2
 31 61 l 1
 24 55 l 1
 17 62 l 1
 22 67 l 2
 26 71 26 71 34 77 c 2
 47 89 l 2
 67 107 67 107 88 107 c 0
 114 107 114 107 114 86 c 1
 146 107 146 107 163 107 c 0
 186 107 186 107 186 86 c 0
 186 65 186 65 165 65 c 0
 151 65 151 65 151 77 c 0
 151 82 151 82 154 83 c 1
 158 88 l 2
 160 90 160 90 160 92 c 0
 160 95 160 95 155 95 c 0
 138 95 138 95 123 76 c 0
 99 45 99 45 99 26 c 0
 99 14 99 14 116 14 c 0
 152 14 152 14 205 65 c 1
 211 57 l 1
 208 55 l 2
 145 0 145 0 97 0 c 0
 76 0 76 0 70 18 c 1
EndSplineSet
EndChar
StartChar: y
Encoding: 121 121
Width: 165
Flags: W
Fore
62 -31 m 1
 85 -13 l 1
 117 10 l 2
 125 16 125 16 151 37 c 0
 163 46 163 46 185 65 c 1
 191 57 l 1
 188 55 l 2
 170 39 170 39 74 -34 c 2
 49 -53 l 1
 45 -60 l 1
 9 -120 l 2
 -125 -344 -125 -344 -193 -344 c 0
 -215 -344 -215 -344 -215 -319 c 0
 -215 -291 -215 -291 -186 -253 c 0
 -168 -230 -168 -230 -137 -198 c 0
 -98 -158 -98 -158 -24 -94 c 0
 -8 -81 -8 -81 22 -54 c 1
 27 -47 27 -47 33 -36 c 1
 48 -13 l 2
 53 -5 53 -5 62 9 c 2
 72 23 l 1
 62 16 l 2
 39 0 39 0 21 0 c 0
 -1 0 -1 0 -1 18 c 0
 -1 27 -1 27 11 42 c 0
 13 45 13 45 19 53 c 1
 8 46 l 1
 4 51 l 1
 11 57 11 57 28 73.5 c 128
 45 90 45 90 56 103 c 1
 86 103 l 1
 35 35 l 2
 26 23 26 23 26 18 c 0
 26 12 26 12 33 12 c 0
 44 12 44 12 69 33 c 0
 89 50 89 50 99 63 c 2
 121 91 l 2
 134 107 134 107 152 107 c 0
 159 107 159 107 159 102 c 0
 159 89 159 89 130 67 c 1
 95 21 95 21 62 -31 c 1
7 -80 m 1
 -21 -105 l 2
 -37 -119 -37 -119 -62 -143 c 0
 -115 -193 -115 -193 -150 -237 c 0
 -195 -293 -195 -293 -195 -317 c 0
 -195 -330 -195 -330 -182 -330 c 0
 -138 -330 -138 -330 -54 -183 c 2
 -26 -134 l 1
 7 -80 l 1
EndSplineSet
EndChar
StartChar: z
Encoding: 122 122
Width: 140
Flags: W
Fore
89 8 m 1
 83 29 83 29 68 29 c 0
 63 29 63 29 54 25 c 1
 49 20 l 1
 37 9 l 2
 26 -1 26 -1 18 -1 c 0
 12 -1 12 -1 12 5 c 0
 12 18 12 18 45 33 c 1
 78 71 78 71 103 93 c 1
 89 93 l 2
 74 93 74 93 61 95 c 1
 45 75 45 75 24 55 c 1
 17 62 l 1
 35 80 l 2
 40 85 40 85 44.5 90 c 128
 49 95 49 95 53 100 c 1
 48 105 48 105 48 112 c 0
 48 134 48 134 69 134 c 0
 81 134 81 134 81 122 c 1
 79 114 l 1
 77 110 77 110 77 109 c 0
 77 103 77 103 94 103 c 0
 105 103 105 103 116 104 c 1
 122 107 l 2
 129 112 129 112 133 112 c 0
 137 112 137 112 137 109 c 0
 137 102 137 102 121 96 c 1
 116 90 l 1
 91 64 l 1
 68 39 l 1
 75 39 l 2
 95 39 95 39 107 22 c 1
 124 35 l 2
 142 49 142 49 160 65 c 1
 166 57 l 1
 163 55 l 2
 154 46 154 46 151.5 44.5 c 128
 149 43 149 43 133 30 c 0
 127 25 127 25 111 13 c 1
 116 -1 116 -1 116 -15 c 0
 116 -36 116 -36 109 -64 c 0
 88 -148 88 -148 23 -222 c 0
 -13 -263 -13 -263 -51 -286 c 0
 -95 -313 -95 -313 -122 -313 c 0
 -152 -313 -152 -313 -152 -285 c 0
 -152 -261 -152 -261 -131 -222 c 0
 -102 -168 -102 -168 -37 -99 c 0
 0 -59 0 -59 52 -20 c 2
 89 8 l 1
90 -3 m 1
 81 -9 l 2
 75 -14 75 -14 57 -28 c 0
 2 -70 2 -70 -29 -105 c 0
 -132 -218 -132 -218 -132 -279 c 0
 -132 -299 -132 -299 -114 -299 c 0
 -56 -299 -56 -299 9 -216 c 0
 41 -175 41 -175 65.5 -113 c 128
 90 -51 90 -51 90 -11 c 2
 90 -3 l 1
EndSplineSet
EndChar
StartChar: braceleft
Encoding: 123 123
Width: 353
Flags: W
Fore
565 404 m 1
 565 394 l 1
 528 389 528 389 502 380 c 0
 467 368 467 368 437 344 c 128
 407 320 407 320 369 263 c 0
 301 161 301 161 256 125 c 0
 227 101 227 101 203 89 c 0
 174 74 174 74 137 70 c 1
 175 61 175 61 175 31 c 0
 175 -5 175 -5 120 -77 c 2
 85 -123 l 2
 37 -186 37 -186 37 -235 c 0
 37 -266 37 -266 52 -289 c 1
 44 -295 l 1
 21 -263 21 -263 21 -221 c 0
 21 -183 21 -183 44 -144 c 0
 47 -137 47 -137 61.5 -115 c 128
 76 -93 76 -93 107 -54 c 0
 160 13 160 13 160 38 c 0
 160 67 160 67 102 67 c 2
 85 67 l 1
 85 69 l 1
 156 71 156 71 204 104.5 c 128
 252 138 252 138 314 229 c 0
 347 277 347 277 366 300 c 0
 399 339 399 339 429 359 c 128
 459 379 459 379 498 390 c 0
 512 394 512 394 549 401 c 2
 565 404 l 1
EndSplineSet
EndChar
StartChar: braceright
Encoding: 125 125
Width: 319
Flags: W
Fore
-149 -267 m 1
 -149 -257 l 1
 -112 -253 -112 -253 -86 -244 c 0
 -51 -232 -51 -232 -20 -207.5 c 128
 11 -183 11 -183 48 -127 c 0
 84 -74 84 -74 113 -39 c 0
 194 57 194 57 281 65 c 1
 242 74 242 74 242 106 c 0
 242 122 242 122 250 140 c 0
 260 162 260 162 298 211 c 0
 346 272 346 272 361 297 c 0
 383 333 383 333 383 369 c 0
 383 398 383 398 368 423 c 1
 376 429 l 1
 398 397 398 397 398 356 c 0
 398 310 398 310 358 250 c 0
 341 224 341 224 313 189.5 c 128
 285 155 285 155 273 136 c 0
 258 114 258 114 258 96 c 0
 258 67 258 67 315 67 c 2
 333 67 l 1
 333 65 l 1
 262 63 262 63 213.5 30 c 128
 165 -3 165 -3 103 -94 c 0
 70 -142 70 -142 50 -165 c 0
 17 -203 17 -203 -12 -222 c 0
 -64 -256 -64 -256 -133 -265 c 2
 -149 -267 l 1
EndSplineSet
EndChar
StartChar: asciitilde
Encoding: 126 126
Width: 163
Flags: W
Fore
209 222 m 1
 214 216 l 1
 184 189 184 189 170 189 c 0
 163 189 163 189 151 201 c 0
 146 207 146 207 141 207 c 0
 130 207 130 207 118 192 c 1
 112 198 l 1
 137 225 137 225 152 225 c 0
 158 225 158 225 166 216 c 128
 174 207 174 207 182 207 c 0
 192 207 192 207 209 222 c 1
EndSplineSet
EndChar
StartChar: exclamdown
Encoding: 161 161
Width: 132
Flags: W
Fore
43 54 m 1
 51 50 l 1
 17 -3 l 1
 -101 -182 l 2
 -129 -225 -129 -225 -145 -225 c 0
 -155 -225 -155 -225 -155 -217 c 0
 -155 -204 -155 -204 -125 -166 c 2
 -102 -137 l 1
 -65 -87 l 2
 -54 -72 -54 -72 -42 -57 c 0
 -25 -36 -25 -36 4 2 c 2
 43 54 l 1
74 77 m 2
 72 77 l 2
 60 77 60 77 60 89 c 0
 60 108 60 108 80 108 c 0
 94 108 94 108 94 96 c 0
 94 77 94 77 74 77 c 2
EndSplineSet
EndChar
StartChar: cent
Encoding: 162 162
Width: 117
Flags: W
Fore
8 5 m 1
 -20 -15 l 1
 -25 -7 l 1
 2 13 l 1
 0 18 0 18 0 24 c 0
 0 47 0 47 25 71 c 0
 63 107 63 107 97 107 c 0
 108 107 108 107 116 99 c 1
 148 123 l 1
 153 115 l 1
 120 91 l 1
 121 88 121 88 121 86 c 0
 121 64 121 64 100 64 c 0
 84 64 84 64 84 77 c 0
 84 84 84 84 90 88 c 0
 92 89 92 89 92 91 c 0
 92 95 92 95 87 95 c 0
 76 95 76 95 58 76 c 0
 33 49 33 49 33 27 c 0
 33 14 33 14 50 14 c 0
 85 14 85 14 136 65 c 1
 143 57 l 1
 140 55 l 2
 77 0 77 0 33 0 c 0
 16 0 16 0 8 5 c 1
EndSplineSet
EndChar
StartChar: currency
Encoding: 164 164
Width: 185
Flags: W
Fore
195 262 m 0
 209 262 209 262 219 252.5 c 128
 229 243 229 243 229 229 c 0
 229 216 229 216 219.5 207 c 128
 210 198 210 198 196 198 c 0
 163 198 163 198 163 230 c 0
 163 262 163 262 195 262 c 0
195 253 m 0
 174 253 174 253 174 230 c 0
 174 208 174 208 196 208 c 0
 218 208 218 208 218 229 c 0
 218 253 218 253 195 253 c 0
EndSplineSet
EndChar
StartChar: section
Encoding: 167 167
Width: 291
Flags: W
Fore
320 227 m 1
 318 235 l 1
 352 249 352 249 359 272 c 2
 364 289 l 2
 369 306 369 306 384 306 c 0
 396 306 396 306 396 295 c 0
 396 278 396 278 374 258 c 0
 348 234 348 234 320 227 c 1
68 22 m 1
 38 0 38 0 18 0 c 0
 -3 0 -3 0 -3 21 c 0
 -3 44 -3 44 25 71 c 0
 61 106 61 106 95 106 c 0
 109 106 109 106 110 94 c 1
 116 103 l 1
 154 161 l 2
 201 232 201 232 243 278 c 0
 282 320 282 320 309 342 c 128
 336 364 336 364 351 364 c 0
 366 364 366 364 366 348 c 0
 366 335 366 335 353 315 c 0
 345 303 345 303 338 296 c 1
 320 273 320 273 280 237 c 2
 237 198 l 2
 219 181 219 181 162 134 c 0
 160 132 160 132 157 127 c 0
 129 88 129 88 104 41 c 2
 98 30 l 1
 94 25 94 25 94 22 c 0
 94 16 94 16 101 16 c 0
 126 16 126 16 177 65 c 1
 183 57 l 1
 180 55 l 2
 117 0 117 0 83 0 c 0
 66 0 66 0 66 13 c 0
 66 17 66 17 68 22 c 1
178 159 m 1
 195 173 195 173 230 206 c 0
 280 253 280 253 309 289 c 0
 344 332 344 332 344 342 c 0
 344 348 344 348 338 348 c 0
 331 348 331 348 316 335 c 0
 295 317 295 317 239 243 c 0
 206 200 206 200 178 159 c 1
90 95 m 2
 68 91 68 91 43 56 c 0
 27 34 27 34 27 23 c 0
 27 16 27 16 34 16 c 0
 54 16 54 16 77 45 c 128
 100 74 100 74 100 87 c 0
 100 95 100 95 92 95 c 2
 90 95 l 2
EndSplineSet
EndChar
StartChar: dieresis
Encoding: 168 168
Width: 159
Flags: W
Fore
205 215 m 0
 218 215 218 215 218 205 c 0
 218 188 218 188 199 188 c 0
 186 188 186 188 186 199 c 0
 186 215 186 215 205 215 c 0
158 215 m 0
 170 215 170 215 170 205 c 0
 170 188 170 188 152 188 c 0
 139 188 139 188 139 199 c 0
 139 215 139 215 158 215 c 0
EndSplineSet
EndChar
StartChar: copyright
Encoding: 169 169
Width: 264
Flags: W
Fore
291 174 m 0
 257 174 257 174 233 197.5 c 128
 209 221 209 221 209 255 c 0
 209 289 209 289 232.5 312.5 c 128
 256 336 256 336 290 336 c 0
 323 336 323 336 346.5 312.5 c 128
 370 289 370 289 370 255 c 0
 370 222 370 222 346.5 198 c 128
 323 174 323 174 291 174 c 0
289 184 m 0
 317 184 317 184 337 205 c 128
 357 226 357 226 357 255 c 0
 357 284 357 284 337 305.5 c 128
 317 327 317 327 290 327 c 0
 262 327 262 327 242.5 305.5 c 128
 223 284 223 284 223 255 c 0
 223 227 223 227 242.5 205.5 c 128
 262 184 262 184 289 184 c 0
328 301 m 1
 328 268 l 1
 324 268 l 1
 320 298 320 298 292 298 c 0
 259 298 259 298 259 255 c 0
 259 213 259 213 291 213 c 0
 318 213 318 213 324 241 c 1
 328 241 l 1
 328 210 l 1
 325 210 l 1
 322 216 l 1
 305 206 305 206 290 206 c 0
 242 206 242 206 242 254 c 0
 242 277 242 277 255.5 291 c 128
 269 305 269 305 291 305 c 0
 305 305 305 305 321 295 c 1
 326 301 l 1
 328 301 l 1
EndSplineSet
EndChar
StartChar: guillemotleft
Encoding: 171 171
Width: 131
Flags: W
Fore
76 7 m 1
 70 3 l 1
 56 20 56 20 31 45 c 2
 21 55 l 2
 19 56 19 56 19 59 c 0
 19 60 19 60 20 61 c 2
 21 62 l 2
 22 63 22 63 30.5 67 c 128
 39 71 39 71 46 74 c 0
 67 84 67 84 95 101 c 1
 109 101 l 1
 78 75 78 75 56 62 c 2
 49 58 l 1
 54 48 l 1
 66 28 l 1
 73 15 l 1
 76 7 l 1
137 7 m 1
 131 3 l 1
 116 20 116 20 91 45 c 2
 81 55 l 2
 79 57 79 57 79 59 c 0
 79 62 79 62 83.5 63.5 c 128
 88 65 88 65 107 74 c 0
 121 81 121 81 155 101 c 1
 170 101 l 1
 150 85 150 85 116 62 c 2
 110 58 l 1
 115 48 l 1
 137 7 l 1
EndSplineSet
EndChar
StartChar: registered
Encoding: 174 174
Width: 258
Flags: W
Fore
291 174 m 0
 257 174 257 174 233 197.5 c 128
 209 221 209 221 209 255 c 0
 209 289 209 289 232.5 312.5 c 128
 256 336 256 336 290 336 c 0
 323 336 323 336 346.5 312.5 c 128
 370 289 370 289 370 255 c 0
 370 222 370 222 346.5 198 c 128
 323 174 323 174 291 174 c 0
289 184 m 0
 317 184 317 184 337 205 c 128
 357 226 357 226 357 255 c 0
 357 284 357 284 337 305.5 c 128
 317 327 317 327 290 327 c 0
 262 327 262 327 242.5 305.5 c 128
 223 284 223 284 223 255 c 0
 223 227 223 227 243 205.5 c 128
 263 184 263 184 289 184 c 0
255 298 m 1
 255 302 l 1
 272 302 l 2
 276 302 276 302 281 303 c 0
 286 303 286 303 287 303 c 0
 321 303 321 303 321 279 c 0
 321 264 321 264 302 257 c 1
 314 243 314 243 319 232 c 1
 323 226 l 1
 325 220 325 220 334 220 c 1
 334 217 l 1
 314 217 l 1
 305 233 305 233 287 252 c 1
 284 253 284 253 277 253 c 1
 277 227 l 2
 277 220 277 220 287 220 c 1
 287 217 l 1
 255 217 l 1
 255 220 l 1
 264 220 264 220 264 227 c 2
 264 292 l 2
 264 298 264 298 255 298 c 1
277 258 m 1
 278 258 l 2
 307 258 307 258 307 279 c 0
 307 298 307 298 285 298 c 0
 277 298 277 298 277 291 c 2
 277 258 l 1
EndSplineSet
EndChar
StartChar: degree
Encoding: 176 176
Width: 87
Flags: W
Fore
105 135 m 0
 82 135 82 135 82 155 c 0
 82 178 82 178 110 198.5 c 128
 138 219 138 219 162 219 c 0
 185 219 185 219 185 199 c 0
 185 184 185 184 170 169 c 0
 137 135 137 135 105 135 c 0
170 198 m 1
 170 203 l 2
 170 213 170 213 161 213 c 0
 145 213 145 213 125 191 c 128
 105 169 105 169 105 154 c 0
 105 145 105 145 116 145 c 0
 127 145 127 145 139 154 c 0
 162 171 162 171 170 198 c 1
EndSplineSet
EndChar
StartChar: plusminus
Encoding: 177 177
Width: 158
Flags: W
Fore
4 123 m 1
 78 123 l 1
 78 185 l 1
 101 185 l 1
 101 123 l 1
 174 123 l 1
 174 101 l 1
 101 101 l 1
 101 39 l 1
 78 39 l 1
 78 101 l 1
 4 101 l 1
 4 123 l 1
174 0 m 1
 4 0 l 1
 4 23 l 1
 174 23 l 1
 174 0 l 1
EndSplineSet
EndChar
StartChar: acute
Encoding: 180 180
Width: 150
Flags: W
Fore
178 227 m 1
 176 235 l 1
 210 249 210 249 217 272 c 2
 222 289 l 2
 227 306 227 306 242 306 c 0
 254 306 254 306 254 295 c 0
 254 278 254 278 232 258 c 0
 207 235 207 235 178 227 c 1
EndSplineSet
EndChar
StartChar: paragraph
Encoding: 182 182
Width: 161
Flags: W
Fore
309 282 m 1
 89 -45 l 1
 21 -45 l 1
 26 -36 l 1
 31 -36 31 -36 36 -35 c 0
 63 -35 63 -35 76 -22 c 0
 84 -14 84 -14 108 22 c 2
 114 31 l 1
 115 33 l 1
 187 140 l 1
 150 142 150 142 137 148 c 128
 124 154 124 154 124 170 c 0
 124 209 124 209 171 250 c 0
 203 278 203 278 236 286 c 0
 257 291 257 291 291 291 c 2
 401 291 l 1
 395 282 l 1
 367 282 367 282 349 265 c 0
 340 256 340 256 319 223 c 0
 316 218 316 218 311 211 c 2
 309 208 l 1
 191 33 l 2
 159 -14 159 -14 159 -26 c 0
 159 -36 159 -36 187 -36 c 1
 182 -45 l 1
 112 -45 l 1
 332 282 l 1
 309 282 l 1
196 155 m 1
 277 276 l 1
 241 275 241 275 215 256 c 0
 195 241 195 241 179.5 217.5 c 128
 164 194 164 194 164 176 c 0
 164 156 164 156 196 155 c 1
EndSplineSet
EndChar
StartChar: guillemotright
Encoding: 187 187
Width: 131
Flags: W
Fore
61 99 m 1
 67 103 l 1
 90 77 90 77 106 61 c 2
 116 51 l 2
 118 50 118 50 118 47 c 2
 118 45 l 1
 117 45 l 1
 117 44 117 44 116.5 44 c 128
 116 44 116 44 91 32 c 0
 88 31 88 31 42 5 c 1
 28 5 l 1
 44 18 44 18 82 44 c 2
 88 48 l 1
 83 58 l 1
 72 78 l 1
 65 92 l 1
 61 99 l 1
0 99 m 1
 6 103 l 1
 21 86 21 86 46 61 c 2
 56 51 l 2
 58 49 58 49 58 47 c 0
 58 44 58 44 56 44 c 128
 54 44 54 44 46 40 c 128
 30 32 l 0
 16 25 16 25 -18 5 c 1
 -33 5 l 1
 -13 21 -13 21 21 44 c 2
 27 48 l 1
 22 58 l 1
 11 78 l 1
 4 92 l 1
 0 99 l 1
EndSplineSet
EndChar
StartChar: questiondown
Encoding: 191 191
Width: 165
Flags: W
Fore
103 77 m 0
 89 77 89 77 89 89 c 0
 89 108 89 108 110 108 c 0
 124 108 124 108 124 96 c 0
 124 77 124 77 103 77 c 0
72 56 m 1
 80 50 l 1
 57 20 57 20 43 -1 c 0
 26 -27 26 -27 10 -43 c 1
 -3 -51 -3 -51 -42 -70 c 0
 -92 -94 -92 -94 -108 -109 c 0
 -130 -130 -130 -130 -130 -165 c 0
 -130 -205 -130 -205 -87 -205 c 0
 -42 -205 -42 -205 -42 -177 c 0
 -42 -173 -42 -173 -48 -171 c 0
 -60 -166 -60 -166 -60 -155 c 0
 -60 -134 -60 -134 -37 -134 c 0
 -12 -134 -12 -134 -12 -160 c 0
 -12 -184 -12 -184 -36.5 -200.5 c 128
 -61 -217 -61 -217 -96 -217 c 0
 -168 -217 -168 -217 -168 -160 c 0
 -168 -106 -168 -106 -97 -76 c 2
 -62 -61 l 1
 -30 -45 l 2
 -17 -38 -17 -38 -2 -26 c 0
 27 -2 27 -2 72 56 c 1
EndSplineSet
EndChar
StartChar: AE
Encoding: 198 198
Width: 1361
Flags: W
Fore
978 79 m 1
 1003 40 1003 40 1034.5 24 c 128
 1066 8 1066 8 1120 8 c 0
 1174 8 1174 8 1227 27 c 0
 1291 50 1291 50 1332 91.5 c 128
 1373 133 1373 133 1373 176 c 0
 1373 212 1373 212 1347 234 c 128
 1321 256 1321 256 1280 256 c 0
 1222 256 1222 256 1166 216 c 0
 1091 162 1091 162 1091 105 c 0
 1091 93 1091 93 1096 79 c 1
 1090 77 l 1
 1082 93 1082 93 1082 110 c 0
 1082 163 1082 163 1139 211 c 0
 1203 265 1203 265 1282 265 c 0
 1330 265 1330 265 1360.5 240.5 c 128
 1391 216 1391 216 1391 178 c 0
 1391 109 1391 109 1308 53.5 c 128
 1225 -2 1225 -2 1121 -2 c 0
 1013 -2 1013 -2 958 58 c 1
 951 52 l 2
 928 35 928 35 915 27 c 0
 871 -2 871 -2 825 -2 c 0
 737 -2 737 -2 737 88 c 0
 737 132 737 132 759 180 c 0
 780 225 780 225 835 308 c 1
 716 308 l 1
 713 305 713 305 709 301.5 c 128
 705 298 705 298 704 297 c 0
 696 289 696 289 674 266 c 0
 641 231 641 231 587 182 c 0
 475 79 475 79 380 34 c 0
 304 -2 304 -2 215 -2 c 0
 133 -2 133 -2 87.5 34 c 128
 42 70 42 70 42 134 c 0
 42 211 42 211 117.5 270.5 c 128
 193 330 193 330 291 330 c 0
 408 330 408 330 408 243 c 0
 408 187 408 187 350 143 c 128
 292 99 292 99 211 94 c 1
 211 101 l 1
 284 106 284 106 338 148.5 c 128
 392 191 392 191 392 244 c 0
 392 322 392 322 287 322 c 0
 201 322 201 322 137 263.5 c 128
 73 205 73 205 73 126 c 0
 73 6 73 6 215 6 c 0
 303 6 303 6 384 46 c 0
 490 99 490 99 671 282 c 0
 686 297 686 297 698 308 c 1
 667 307 l 1
 484 310 l 1
 489 317 l 1
 513 319 513 319 535 319 c 2
 708 319 l 1
 729 343 729 343 765 380 c 0
 863 482 863 482 926 536 c 0
 999 599 999 599 1071 640 c 0
 1088 650 1088 650 1104 651 c 2
 1106 652 l 2
 1127 652 1127 652 1127 634 c 0
 1127 607 1127 607 1028 494 c 0
 993 454 993 454 963 415 c 2
 891 321 l 1
 938 320 l 1
 998 320 l 1
 1026 343 1026 343 1055 361 c 0
 1100 389 1100 389 1161 403 c 1
 1159 413 1159 413 1159 424 c 0
 1159 493 1159 493 1228 545 c 128
 1297 597 1297 597 1389 597 c 0
 1449 597 1449 597 1486.5 568.5 c 128
 1524 540 1524 540 1524 495 c 0
 1524 453 1524 453 1487.5 424 c 128
 1451 395 1451 395 1400 395 c 0
 1366 395 1366 395 1343.5 411 c 128
 1321 427 1321 427 1321 451 c 0
 1321 495 1321 495 1375 503 c 1
 1376 498 l 1
 1333 484 1333 484 1333 450 c 0
 1333 430 1333 430 1352.5 417 c 128
 1372 404 1372 404 1400 404 c 0
 1443 404 1443 404 1476 433 c 128
 1509 462 1509 462 1509 500 c 0
 1509 539 1509 539 1476 564 c 128
 1443 589 1443 589 1391 589 c 0
 1310 589 1310 589 1248.5 539 c 128
 1187 489 1187 489 1187 422 c 0
 1187 414 1187 414 1188 407 c 1
 1199 408 1199 408 1211 408 c 0
 1246 408 1246 408 1271.5 395.5 c 128
 1297 383 1297 383 1297 366 c 0
 1297 337 1297 337 1250 337 c 0
 1192 337 1192 337 1163 394 c 1
 1108 380 1108 380 1070 354 c 0
 996 303 996 303 967 218 c 1
 1014 215 1014 215 1014 164 c 0
 1014 126 1014 126 978 79 c 1
728 321 m 1
 844 321 l 1
 848 326 l 2
 858 340 858 340 875 362 c 0
 925 427 925 427 1041 547 c 0
 1067 573 1067 573 1100 610 c 1
 1114 628 1114 628 1114 635 c 0
 1114 644 1114 644 1104 644 c 0
 1090 644 1090 644 1044 614 c 0
 964 561 964 561 870 471 c 0
 824 427 824 427 728 321 c 1
951 69 m 1
 918 110 918 110 918 161 c 0
 918 181 918 181 923 200 c 1
 885 181 885 181 853 131 c 1
 849 132 l 1
 877 183 877 183 924 208 c 1
 936 244 936 244 947.5 262.5 c 128
 959 281 959 281 989 311 c 1
 978 311 l 1
 922 310 l 1
 884 308 l 1
 856 268 856 268 831 225 c 0
 769 117 769 117 769 55 c 0
 769 5 769 5 829 5 c 0
 882 5 882 5 951 69 c 1
966 210 m 1
 959 172 959 172 959 148 c 0
 959 122 959 122 969 93 c 1
 1001 134 1001 134 1001 167 c 0
 1001 208 1001 208 966 210 c 1
1190 397 m 1
 1203 347 1203 347 1254 347 c 0
 1281 347 1281 347 1281 365 c 0
 1281 399 1281 399 1212 399 c 0
 1200 399 1200 399 1190 397 c 1
EndSplineSet
EndChar
StartChar: Ccedilla
Encoding: 199 199
Width: 528
Flags: W
Fore
200 -46 m 1
 143 -35 143 -35 108 6 c 128
 73 47 73 47 73 102 c 0
 73 197 73 197 149 310 c 0
 182 359 182 359 228 410 c 1
 174 451 174 451 174 506 c 0
 174 560 174 560 226 603.5 c 128
 278 647 278 647 343 647 c 0
 351 647 351 647 358 646 c 1
 356 641 l 1
 351 641 l 2
 288 641 288 641 239.5 598.5 c 128
 191 556 191 556 191 501 c 0
 191 455 191 455 235 418 c 1
 309 504 309 504 437 574 c 128
 565 644 565 644 648 644 c 0
 730 644 730 644 730 584 c 0
 730 548 730 548 691 509 c 0
 630 447 630 447 541.5 410.5 c 128
 453 374 453 374 364 374 c 0
 300 374 300 374 256 395 c 1
 118 219 118 219 118 82 c 0
 118 -37 118 -37 247 -37 c 0
 318 -37 318 -37 397 11 c 0
 465 53 465 53 504.5 104.5 c 128
 544 156 544 156 544 204 c 0
 544 240 544 240 523 260.5 c 128
 502 281 502 281 467 281 c 0
 381 281 381 281 310 206 c 0
 246 138 246 138 240 68 c 1
 234 68 l 1
 233 74 l 1
 233 107 233 107 257 152 c 0
 289 213 289 213 348.5 253 c 128
 408 293 408 293 466 293 c 0
 513 293 513 293 539.5 269 c 128
 566 245 566 245 566 203 c 0
 566 133 566 133 482 56 c 0
 422 1 422 1 344 -29 c 0
 296 -48 296 -48 243 -48 c 0
 227 -48 227 -48 212 -47 c 1
 190 -72 190 -72 187 -78.5 c 128
 184 -85 184 -85 184 -91 c 0
 184 -96 184 -96 189 -113 c 0
 193 -125 193 -125 193 -132 c 0
 193 -149 193 -149 179.5 -161 c 128
 166 -173 166 -173 147 -173 c 0
 108 -173 108 -173 106 -135 c 1
 117 -135 l 1
 120 -160 120 -160 140 -160 c 0
 162 -160 162 -160 162 -125 c 2
 162 -118 l 2
 162 -94 162 -94 174.5 -78 c 128
 187 -62 187 -62 200 -46 c 1
264 404 m 1
 302 385 302 385 362 385 c 0
 452 385 452 385 531.5 419 c 128
 611 453 611 453 661 500 c 128
 711 547 711 547 711 588 c 0
 711 633 711 633 649 633 c 0
 569 633 569 633 450 562.5 c 128
 331 492 331 492 264 404 c 1
EndSplineSet
EndChar
StartChar: Oslash
Encoding: 216 216
Width: 482
Flags: W
Fore
759 580 m 1
 878 672 l 1
 886 661 l 1
 766 570 l 1
 779 546 779 546 779 521 c 0
 779 461 779 461 736 413 c 1
 730 418 l 1
 762 458 762 458 762 516 c 0
 762 531 762 531 754 559 c 1
 699 517 l 1
 724 489 724 489 724 439 c 0
 724 333 724 333 600 205 c 0
 514 116 514 116 404 57.5 c 128
 294 -1 294 -1 214 -1 c 0
 125 -1 125 -1 80 51 c 1
 -29 -29 l 1
 -36 -19 l 1
 72 62 l 1
 49 101 49 101 49 144 c 0
 49 225 49 225 119 327 c 128
 189 429 189 429 298 506 c 0
 386 569 386 569 466 597.5 c 128
 546 626 546 626 630 626 c 0
 700 626 700 626 738 599 c 0
 749 591 749 591 759 580 c 1
747 571 m 1
 715 617 715 617 629 617 c 0
 536 617 536 617 445.5 572.5 c 128
 355 528 355 528 261 435 c 0
 182 357 182 357 134 270 c 128
 86 183 86 183 86 119 c 0
 86 99 86 99 93 78 c 1
 255 203 l 1
 254 213 254 213 254 223 c 0
 254 311 254 311 376 420 c 0
 436 473 436 473 508 507.5 c 128
 580 542 580 542 630 542 c 0
 663 542 663 542 688 527 c 1
 747 571 l 1
261 188 m 1
 98 64 l 1
 125 25 125 25 166 15 c 0
 190 9 190 9 215 9 c 0
 258 9 258 9 313 29 c 0
 345 41 345 41 376 56 c 0
 440 88 440 88 520 156 c 0
 586 212 586 212 632 278 c 0
 662 320 662 320 672 340 c 0
 706 405 706 405 706 460 c 0
 706 488 706 488 690 510 c 1
 277 200 l 1
 284 163 284 163 326 163 c 0
 371 163 371 163 436 221 c 0
 508 286 508 286 508 341 c 0
 508 342 508 342 506 356 c 1
 513 357 l 1
 514 347 514 347 514 336 c 0
 514 279 514 279 455 221 c 0
 388 155 388 155 320 155 c 0
 282 155 282 155 261 188 c 1
679 520 m 1
 657 534 657 534 630 534 c 0
 557 534 557 534 458 460 c 0
 400 417 400 417 353 363 c 0
 302 304 302 304 288 259 c 2
 279 231 l 1
 277 217 l 1
 679 520 l 1
EndSplineSet
EndChar
StartChar: agrave
Encoding: 224 224
Width: 161
Flags: W
Fore
68 22 m 1
 38 0 38 0 18 0 c 0
 -2 0 -2 0 -2 21 c 0
 -2 45 -2 45 25 71 c 0
 61 106 61 106 94 106 c 0
 110 106 110 106 110 93 c 0
 110 89 110 89 109 84 c 1
 129 103 l 1
 151 103 l 1
 101 34 l 2
 93 23 93 23 93 20 c 0
 93 15 93 15 100 15 c 0
 129 15 129 15 181 65 c 1
 187 57 l 1
 184 55 l 2
 122 0 122 0 82 0 c 0
 65 0 65 0 65 12 c 0
 65 15 65 15 68 22 c 1
90 95 m 2
 68 91 68 91 43 56 c 0
 28 35 28 35 28 22 c 0
 28 16 28 16 34 16 c 0
 54 16 54 16 77 45 c 128
 100 74 100 74 100 87 c 0
 100 95 100 95 92 95 c 2
 90 95 l 2
209 190 m 1
 185 196 185 196 163 213 c 0
 133 236 133 236 133 257 c 0
 133 269 133 269 144 269 c 0
 158 269 158 269 164 252 c 2
 170 234 l 2
 178 211 178 211 211 198 c 1
 209 190 l 1
EndSplineSet
EndChar
StartChar: aacute
Encoding: 225 225
Width: 161
Flags: W
Fore
68 22 m 1
 38 0 38 0 18 0 c 0
 -2 0 -2 0 -2 21 c 0
 -2 45 -2 45 25 71 c 0
 61 106 61 106 94 106 c 0
 110 106 110 106 110 93 c 0
 110 89 110 89 109 84 c 1
 129 103 l 1
 151 103 l 1
 101 34 l 2
 93 23 93 23 93 20 c 0
 93 15 93 15 100 15 c 0
 129 15 129 15 181 65 c 1
 187 57 l 1
 184 55 l 2
 122 0 122 0 82 0 c 0
 65 0 65 0 65 12 c 0
 65 15 65 15 68 22 c 1
90 95 m 2
 68 91 68 91 43 56 c 0
 28 35 28 35 28 22 c 0
 28 16 28 16 34 16 c 0
 54 16 54 16 77 45 c 128
 100 74 100 74 100 87 c 0
 100 95 100 95 92 95 c 2
 90 95 l 2
145 190 m 1
 143 198 l 1
 177 212 177 212 184 235 c 2
 189 252 l 2
 194 269 194 269 209 269 c 0
 221 269 221 269 221 258 c 0
 221 241 221 241 199 221 c 0
 174 198 174 198 145 190 c 1
EndSplineSet
EndChar
StartChar: acircumflex
Encoding: 226 226
Width: 161
Flags: W
Fore
68 22 m 1
 38 0 38 0 18 0 c 0
 -2 0 -2 0 -2 21 c 0
 -2 45 -2 45 25 71 c 0
 61 106 61 106 94 106 c 0
 110 106 110 106 110 93 c 0
 110 89 110 89 109 84 c 1
 129 103 l 1
 151 103 l 1
 101 34 l 2
 93 23 93 23 93 20 c 0
 93 15 93 15 100 15 c 0
 129 15 129 15 181 65 c 1
 187 57 l 1
 184 55 l 2
 122 0 122 0 82 0 c 0
 65 0 65 0 65 12 c 0
 65 15 65 15 68 22 c 1
90 95 m 2
 68 91 68 91 43 56 c 0
 28 35 28 35 28 22 c 0
 28 16 28 16 34 16 c 0
 54 16 54 16 77 45 c 128
 100 74 100 74 100 87 c 0
 100 95 100 95 92 95 c 2
 90 95 l 2
115 179 m 1
 109 186 l 1
 111 187 111 187 129 201 c 0
 141 210 141 210 165 227 c 0
 177 236 177 236 181 236 c 0
 187 236 187 236 189 220 c 1
 191 207 l 1
 193 191 193 191 204 189 c 2
 209 188 l 1
 206 183 l 1
 201 182 201 182 193 182 c 0
 174 182 174 182 172 206 c 2
 171 217 l 1
 170 220 l 1
 115 179 l 1
EndSplineSet
EndChar
StartChar: atilde
Encoding: 227 227
Width: 161
Flags: W
Fore
206 222 m 1
 211 216 l 1
 182 189 182 189 168 189 c 0
 160 189 160 189 152 198 c 128
 144 207 144 207 138 207 c 0
 128 207 128 207 116 192 c 1
 110 198 l 1
 135 225 135 225 150 225 c 0
 156 225 156 225 164 216 c 128
 172 207 172 207 180 207 c 0
 190 207 190 207 206 222 c 1
68 22 m 1
 38 0 38 0 18 0 c 0
 -2 0 -2 0 -2 21 c 0
 -2 45 -2 45 25 71 c 0
 61 106 61 106 94 106 c 0
 110 106 110 106 110 93 c 0
 110 89 110 89 109 84 c 1
 129 103 l 1
 151 103 l 1
 101 34 l 2
 93 23 93 23 93 20 c 0
 93 15 93 15 100 15 c 0
 129 15 129 15 181 65 c 1
 187 57 l 1
 184 55 l 2
 122 0 122 0 82 0 c 0
 65 0 65 0 65 12 c 0
 65 15 65 15 68 22 c 1
90 95 m 2
 68 91 68 91 43 56 c 0
 28 35 28 35 28 22 c 0
 28 16 28 16 34 16 c 0
 54 16 54 16 77 45 c 128
 100 74 100 74 100 87 c 0
 100 95 100 95 92 95 c 2
 90 95 l 2
EndSplineSet
EndChar
StartChar: adieresis
Encoding: 228 228
Width: 161
Flags: W
Fore
68 22 m 1
 38 0 38 0 18 0 c 0
 -2 0 -2 0 -2 21 c 0
 -2 45 -2 45 25 71 c 0
 61 106 61 106 94 106 c 0
 110 106 110 106 110 93 c 0
 110 89 110 89 109 84 c 1
 129 103 l 1
 151 103 l 1
 101 34 l 2
 93 23 93 23 93 20 c 0
 93 15 93 15 100 15 c 0
 129 15 129 15 181 65 c 1
 187 57 l 1
 184 55 l 2
 122 0 122 0 82 0 c 0
 65 0 65 0 65 12 c 0
 65 15 65 15 68 22 c 1
90 95 m 2
 68 91 68 91 43 56 c 0
 28 35 28 35 28 22 c 0
 28 16 28 16 34 16 c 0
 54 16 54 16 77 45 c 128
 100 74 100 74 100 87 c 0
 100 95 100 95 92 95 c 2
 90 95 l 2
203 215 m 0
 216 215 216 215 216 205 c 0
 216 188 216 188 197 188 c 0
 184 188 184 188 184 199 c 0
 184 215 184 215 203 215 c 0
156 215 m 0
 168 215 168 215 168 205 c 0
 168 188 168 188 150 188 c 0
 137 188 137 188 137 199 c 0
 137 215 137 215 156 215 c 0
EndSplineSet
EndChar
StartChar: aring
Encoding: 229 229
Width: 187
Flags: W
Fore
69 22 m 1
 39 0 39 0 18 0 c 0
 -2 0 -2 0 -2 21 c 0
 -2 45 -2 45 26 71 c 0
 63 106 63 106 95 106 c 0
 111 106 111 106 111 93 c 0
 111 89 111 89 110 84 c 1
 130 103 l 1
 151 103 l 1
 102 34 l 2
 94 23 94 23 94 20 c 0
 94 15 94 15 101 15 c 0
 131 15 131 15 181 65 c 1
 188 57 l 1
 185 55 l 2
 123 0 123 0 83 0 c 0
 66 0 66 0 66 12 c 0
 66 17 66 17 69 22 c 1
157 185 m 2
 156 185 l 2
 138 185 138 185 138 199 c 0
 138 217 138 217 164 233 c 0
 187 249 187 249 206 249 c 0
 221 249 221 249 221 235 c 0
 221 219 221 219 199 202 c 128
 177 185 177 185 157 185 c 2
91 95 m 2
 69 91 69 91 44 56 c 0
 28 34 28 34 28 22 c 0
 28 16 28 16 35 16 c 0
 54 16 54 16 77.5 44.5 c 128
 101 73 101 73 101 87 c 0
 101 95 101 95 93 95 c 2
 91 95 l 2
205 232 m 1
 205 234 l 2
 205 241 205 241 199 241 c 0
 188 241 188 241 175 229 c 0
 159 214 159 214 159 200 c 0
 159 194 159 194 166 194 c 0
 177 194 177 194 189 207 c 128
 201 220 201 220 205 232 c 1
EndSplineSet
EndChar
StartChar: ae
Encoding: 230 230
Width: 183
Flags: W
Fore
110 84 m 1
 129 103 l 1
 150 103 l 1
 160 108 160 108 169 108 c 0
 184 108 184 108 184 95 c 0
 184 84 184 84 169.5 73.5 c 128
 155 63 155 63 105 38 c 1
 103 34 103 34 103 29 c 0
 103 15 103 15 118 15 c 0
 150 15 150 15 203 65 c 1
 209 57 l 1
 206 55 l 2
 143 0 143 0 100 0 c 0
 71 0 71 0 71 24 c 1
 41 0 41 0 18 0 c 0
 -2 0 -2 0 -2 21 c 0
 -2 45 -2 45 25 71 c 0
 61 106 61 106 94 106 c 0
 111 106 111 106 111 93 c 0
 111 92 111 92 111 90 c 0
 110 87 110 87 110 84 c 1
35 16 m 0
 57 16 57 16 84 54 c 0
 100 77 100 77 100 87 c 0
 100 95 100 95 92 95 c 0
 79 95 79 95 59 75 c 0
 28 44 28 44 28 23 c 0
 28 16 28 16 35 16 c 0
114 54 m 1
 164 75 164 75 164 90 c 0
 164 95 164 95 159 95 c 0
 137 95 137 95 114 54 c 1
EndSplineSet
EndChar
StartChar: ccedilla
Encoding: 231 231
Width: 117
Flags: W
Fore
40 0 m 1
 37 -4 l 2
 24 -21 24 -21 24 -26 c 0
 24 -30 24 -30 27 -33 c 1
 30 -39 l 1
 32 -41 32 -41 32 -47 c 0
 32 -65 32 -65 3 -65 c 0
 -12 -65 -12 -65 -22 -62 c 1
 -21 -54 l 1
 -3 -56 -3 -56 -4 -56 c 0
 12 -56 12 -56 12 -43 c 2
 12 -40 l 1
 10 -32 l 1
 10 -30 l 2
 10 -24 10 -24 20 -11 c 0
 23 -8 23 -8 29 0 c 1
 26 0 l 2
 -1 0 -1 0 -1 23 c 0
 -1 45 -1 45 23 69 c 0
 61 107 61 107 97 107 c 0
 121 107 121 107 121 85 c 0
 121 64 121 64 100 64 c 0
 84 64 84 64 84 77 c 0
 84 84 84 84 90 88 c 0
 92 89 92 89 92 91 c 0
 92 95 92 95 87 95 c 0
 76 95 76 95 58 76 c 0
 33 49 33 49 33 27 c 0
 33 14 33 14 50 14 c 0
 85 14 85 14 136 65 c 1
 143 57 l 1
 140 55 l 2
 82 4 82 4 40 0 c 1
EndSplineSet
EndChar
StartChar: egrave
Encoding: 232 232
Width: 112
Flags: W
Fore
34 38 m 1
 32 32 32 32 32 29 c 0
 32 15 32 15 48 15 c 0
 80 15 80 15 132 65 c 1
 138 57 l 1
 135 55 l 2
 73 0 73 0 30 0 c 0
 0 0 0 0 0 23 c 0
 0 44 0 44 21 67 c 0
 59 108 59 108 99 108 c 0
 113 108 113 108 113 95 c 0
 113 84 113 84 98.5 73.5 c 128
 84 63 84 63 34 38 c 1
43 54 m 1
 93 75 93 75 93 90 c 0
 93 95 93 95 88 95 c 0
 68 95 68 95 43 54 c 1
208 190 m 1
 184 196 184 196 162 213 c 0
 132 236 132 236 132 257 c 0
 132 269 132 269 143 269 c 0
 157 269 157 269 163 252 c 2
 169 234 l 2
 177 211 177 211 210 198 c 1
 208 190 l 1
EndSplineSet
EndChar
StartChar: eacute
Encoding: 233 233
Width: 112
Flags: W
Fore
34 38 m 1
 32 32 32 32 32 29 c 0
 32 15 32 15 48 15 c 0
 80 15 80 15 132 65 c 1
 138 57 l 1
 135 55 l 2
 73 0 73 0 30 0 c 0
 0 0 0 0 0 23 c 0
 0 44 0 44 21 67 c 0
 59 108 59 108 99 108 c 0
 113 108 113 108 113 95 c 0
 113 84 113 84 98.5 73.5 c 128
 84 63 84 63 34 38 c 1
43 54 m 1
 93 75 93 75 93 90 c 0
 93 95 93 95 88 95 c 0
 68 95 68 95 43 54 c 1
136 190 m 1
 134 198 l 1
 168 212 168 212 175 235 c 2
 180 252 l 2
 185 269 185 269 200 269 c 0
 212 269 212 269 212 258 c 0
 212 241 212 241 190 221 c 0
 165 198 165 198 136 190 c 1
EndSplineSet
EndChar
StartChar: ecircumflex
Encoding: 234 234
Width: 112
Flags: W
Fore
34 38 m 1
 32 32 32 32 32 29 c 0
 32 15 32 15 48 15 c 0
 80 15 80 15 132 65 c 1
 138 57 l 1
 135 55 l 2
 73 0 73 0 30 0 c 0
 0 0 0 0 0 23 c 0
 0 44 0 44 21 67 c 0
 59 108 59 108 99 108 c 0
 113 108 113 108 113 95 c 0
 113 84 113 84 98.5 73.5 c 128
 84 63 84 63 34 38 c 1
43 54 m 1
 93 75 93 75 93 90 c 0
 93 95 93 95 88 95 c 0
 68 95 68 95 43 54 c 1
111 179 m 1
 105 186 l 1
 107 187 107 187 125 201 c 0
 137 210 137 210 161 227 c 0
 173 236 173 236 177 236 c 0
 183 236 183 236 185 220 c 1
 187 207 l 1
 189 191 189 191 200 189 c 2
 205 188 l 1
 202 183 l 1
 197 182 197 182 189 182 c 0
 170 182 170 182 168 206 c 2
 167 217 l 1
 166 220 l 1
 111 179 l 1
EndSplineSet
EndChar
StartChar: edieresis
Encoding: 235 235
Width: 112
Flags: W
Fore
34 38 m 1
 32 32 32 32 32 29 c 0
 32 15 32 15 48 15 c 0
 80 15 80 15 132 65 c 1
 138 57 l 1
 135 55 l 2
 73 0 73 0 30 0 c 0
 0 0 0 0 0 23 c 0
 0 44 0 44 21 67 c 0
 59 108 59 108 99 108 c 0
 113 108 113 108 113 95 c 0
 113 84 113 84 98.5 73.5 c 128
 84 63 84 63 34 38 c 1
43 54 m 1
 93 75 93 75 93 90 c 0
 93 95 93 95 88 95 c 0
 68 95 68 95 43 54 c 1
185 216 m 0
 198 216 198 216 198 206 c 0
 198 189 198 189 179 189 c 0
 166 189 166 189 166 200 c 0
 166 216 166 216 185 216 c 0
138 216 m 0
 150 216 150 216 150 206 c 0
 150 189 150 189 132 189 c 0
 119 189 119 189 119 200 c 0
 119 216 119 216 138 216 c 0
EndSplineSet
EndChar
StartChar: igrave
Encoding: 236 236
Width: 93
Flags: W
Fore
17 52 m 1
 8 46 l 1
 4 51 l 1
 11 56 11 56 27 72 c 0
 37 81 37 81 57 103 c 1
 87 103 l 1
 31 29 l 2
 28 26 28 26 28 21 c 0
 28 15 28 15 36 15 c 0
 61 15 61 15 113 65 c 1
 119 57 l 1
 116 55 l 2
 53 0 53 0 20 0 c 0
 -1 0 -1 0 -1 18 c 0
 -1 25 -1 25 9 40 c 2
 17 52 l 1
193 195 m 1
 169 201 169 201 147 218 c 0
 117 241 117 241 117 262 c 0
 117 274 117 274 128 274 c 0
 142 274 142 274 148 257 c 2
 154 239 l 2
 162 216 162 216 195 203 c 1
 193 195 l 1
EndSplineSet
EndChar
StartChar: iacute
Encoding: 237 237
Width: 93
Flags: W
Fore
17 52 m 1
 8 46 l 1
 4 51 l 1
 11 56 11 56 27 72 c 0
 37 81 37 81 57 103 c 1
 87 103 l 1
 31 29 l 2
 28 26 28 26 28 21 c 0
 28 15 28 15 36 15 c 0
 61 15 61 15 113 65 c 1
 119 57 l 1
 116 55 l 2
 53 0 53 0 20 0 c 0
 -1 0 -1 0 -1 18 c 0
 -1 25 -1 25 9 40 c 2
 17 52 l 1
118 193 m 1
 116 201 l 1
 150 215 150 215 157 238 c 2
 162 255 l 2
 167 272 167 272 182 272 c 0
 194 272 194 272 194 261 c 0
 194 244 194 244 172 224 c 0
 147 201 147 201 118 193 c 1
EndSplineSet
EndChar
StartChar: icircumflex
Encoding: 238 238
Width: 93
Flags: W
Fore
17 52 m 1
 8 46 l 1
 4 51 l 1
 11 56 11 56 27 72 c 0
 37 81 37 81 57 103 c 1
 87 103 l 1
 31 29 l 2
 28 26 28 26 28 21 c 0
 28 15 28 15 36 15 c 0
 61 15 61 15 113 65 c 1
 119 57 l 1
 116 55 l 2
 53 0 53 0 20 0 c 0
 -1 0 -1 0 -1 18 c 0
 -1 25 -1 25 9 40 c 2
 17 52 l 1
77 178 m 1
 71 185 l 1
 73 186 73 186 91 200 c 0
 103 209 103 209 127 226 c 0
 139 235 139 235 143 235 c 0
 149 235 149 235 151 219 c 1
 153 206 l 1
 155 190 155 190 166 188 c 2
 171 187 l 1
 168 182 l 1
 163 181 163 181 155 181 c 0
 136 181 136 181 134 205 c 2
 133 216 l 1
 132 219 l 1
 77 178 l 1
EndSplineSet
EndChar
StartChar: idieresis
Encoding: 239 239
Width: 93
Flags: W
Fore
17 52 m 1
 8 46 l 1
 4 51 l 1
 11 56 11 56 27 72 c 0
 37 81 37 81 57 103 c 1
 87 103 l 1
 31 29 l 2
 28 26 28 26 28 21 c 0
 28 15 28 15 36 15 c 0
 61 15 61 15 113 65 c 1
 119 57 l 1
 116 55 l 2
 53 0 53 0 20 0 c 0
 -1 0 -1 0 -1 18 c 0
 -1 25 -1 25 9 40 c 2
 17 52 l 1
146 214 m 0
 159 214 159 214 159 204 c 0
 159 187 159 187 140 187 c 0
 127 187 127 187 127 198 c 0
 127 214 127 214 146 214 c 0
99 214 m 0
 111 214 111 214 111 204 c 0
 111 187 111 187 93 187 c 0
 80 187 80 187 80 198 c 0
 80 214 80 214 99 214 c 0
EndSplineSet
EndChar
StartChar: ntilde
Encoding: 241 241
Width: 170
Flags: W
Fore
213 225 m 1
 218 218 l 1
 188 191 188 191 175 191 c 0
 168 191 168 191 156 204 c 1
 150 209 150 209 145 209 c 0
 133 209 133 209 122 195 c 1
 116 200 l 1
 140 227 140 227 157 227 c 0
 162 227 162 227 170 218.5 c 128
 178 210 178 210 186 210 c 0
 197 210 197 210 213 225 c 1
19 3 m 1
 -9 3 l 1
 26 57 l 1
 8 46 l 1
 4 51 l 1
 11 57 11 57 27 72 c 0
 38 83 38 83 56 103 c 1
 80 103 l 1
 53 58 l 1
 60 64 l 2
 109 106 109 106 130 106 c 0
 149 106 149 106 149 90 c 0
 149 81 149 81 141 70 c 2
 122 45 l 2
 108 27 108 27 108 21 c 0
 108 15 108 15 114 15 c 0
 126 15 126 15 157 38 c 0
 173 50 173 50 190 65 c 1
 196 57 l 1
 193 55 l 2
 132 0 132 0 98 0 c 0
 76 0 76 0 76 18 c 0
 76 30 76 30 109 68 c 0
 124 85 124 85 124 90 c 0
 124 93 124 93 121 93 c 0
 109 93 109 93 82 71 c 0
 44 40 44 40 19 3 c 1
EndSplineSet
EndChar
StartChar: ograve
Encoding: 242 242
Width: 146
Flags: W
Fore
166 65 m 1
 173 57 l 1
 145 31 145 31 128 31 c 0
 115 31 115 31 107 42 c 1
 103 38 l 1
 93 29 l 2
 60 -1 60 -1 26 -1 c 0
 -1 -1 -1 -1 -1 23 c 0
 -1 53 -1 53 39 82 c 0
 73 107 73 107 98 107 c 0
 126 107 126 107 126 80 c 0
 126 76 126 76 120 59 c 0
 119 56 119 56 119 52 c 0
 119 41 119 41 130 41 c 0
 141 41 141 41 166 65 c 1
102 90 m 1
 100 95 100 95 93 95 c 0
 70 95 70 95 45 60 c 0
 29 37 29 37 29 23 c 0
 29 13 29 13 39 13 c 0
 66 13 66 13 99 65 c 1
 97 75 97 75 97 76 c 0
 97 82 97 82 102 90 c 1
223 191 m 1
 199 197 199 197 177 214 c 0
 147 237 147 237 147 258 c 0
 147 270 147 270 158 270 c 0
 172 270 172 270 178 253 c 2
 184 235 l 2
 192 212 192 212 225 199 c 1
 223 191 l 1
EndSplineSet
EndChar
StartChar: oacute
Encoding: 243 243
Width: 146
Flags: W
Fore
166 65 m 1
 173 57 l 1
 145 31 145 31 128 31 c 0
 115 31 115 31 107 42 c 1
 103 38 l 1
 93 29 l 2
 60 -1 60 -1 26 -1 c 0
 -1 -1 -1 -1 -1 23 c 0
 -1 53 -1 53 39 82 c 0
 73 107 73 107 98 107 c 0
 126 107 126 107 126 80 c 0
 126 76 126 76 120 59 c 0
 119 56 119 56 119 52 c 0
 119 41 119 41 130 41 c 0
 141 41 141 41 166 65 c 1
102 90 m 1
 100 95 100 95 93 95 c 0
 70 95 70 95 45 60 c 0
 29 37 29 37 29 23 c 0
 29 13 29 13 39 13 c 0
 66 13 66 13 99 65 c 1
 97 75 97 75 97 76 c 0
 97 82 97 82 102 90 c 1
147 190 m 1
 145 198 l 1
 179 212 179 212 186 235 c 2
 191 252 l 2
 196 269 196 269 211 269 c 0
 223 269 223 269 223 258 c 0
 223 241 223 241 201 221 c 0
 176 198 176 198 147 190 c 1
EndSplineSet
EndChar
StartChar: ocircumflex
Encoding: 244 244
Width: 146
Flags: W
Fore
166 65 m 1
 173 57 l 1
 145 31 145 31 128 31 c 0
 115 31 115 31 107 42 c 1
 103 38 l 1
 93 29 l 2
 60 -1 60 -1 26 -1 c 0
 -1 -1 -1 -1 -1 23 c 0
 -1 53 -1 53 39 82 c 0
 73 107 73 107 98 107 c 0
 126 107 126 107 126 80 c 0
 126 76 126 76 120 59 c 0
 119 56 119 56 119 52 c 0
 119 41 119 41 130 41 c 0
 141 41 141 41 166 65 c 1
102 90 m 1
 100 95 100 95 93 95 c 0
 70 95 70 95 45 60 c 0
 29 37 29 37 29 23 c 0
 29 13 29 13 39 13 c 0
 66 13 66 13 99 65 c 1
 97 75 97 75 97 76 c 0
 97 82 97 82 102 90 c 1
101 179 m 1
 95 186 l 1
 97 187 97 187 115 201 c 0
 127 210 127 210 151 227 c 0
 163 236 163 236 167 236 c 0
 173 236 173 236 175 220 c 1
 177 207 l 1
 179 191 179 191 190 189 c 2
 195 188 l 1
 192 183 l 1
 187 182 187 182 179 182 c 0
 160 182 160 182 158 206 c 2
 157 217 l 1
 156 220 l 1
 101 179 l 1
EndSplineSet
EndChar
StartChar: otilde
Encoding: 245 245
Width: 146
Flags: W
Fore
206 222 m 1
 211 215 l 1
 182 188 182 188 168 188 c 0
 161 188 161 188 152.5 197 c 128
 144 206 144 206 138 206 c 0
 128 206 128 206 115 192 c 1
 110 197 l 1
 133 224 133 224 150 224 c 0
 156 224 156 224 163.5 215.5 c 128
 171 207 171 207 179 207 c 0
 190 207 190 207 206 222 c 1
166 65 m 1
 173 57 l 1
 145 31 145 31 128 31 c 0
 115 31 115 31 107 42 c 1
 103 38 l 1
 93 29 l 2
 60 -1 60 -1 26 -1 c 0
 -1 -1 -1 -1 -1 23 c 0
 -1 53 -1 53 39 82 c 0
 73 107 73 107 98 107 c 0
 126 107 126 107 126 80 c 0
 126 76 126 76 120 59 c 0
 119 56 119 56 119 52 c 0
 119 41 119 41 130 41 c 0
 141 41 141 41 166 65 c 1
102 90 m 1
 100 95 100 95 93 95 c 0
 70 95 70 95 45 60 c 0
 29 37 29 37 29 23 c 0
 29 13 29 13 39 13 c 0
 66 13 66 13 99 65 c 1
 97 75 97 75 97 76 c 0
 97 82 97 82 102 90 c 1
EndSplineSet
EndChar
StartChar: odieresis
Encoding: 246 246
Width: 146
Flags: W
Fore
166 65 m 1
 173 57 l 1
 145 31 145 31 128 31 c 0
 115 31 115 31 107 42 c 1
 103 38 l 1
 93 29 l 2
 60 -1 60 -1 26 -1 c 0
 -1 -1 -1 -1 -1 23 c 0
 -1 53 -1 53 39 82 c 0
 73 107 73 107 98 107 c 0
 126 107 126 107 126 80 c 0
 126 76 126 76 120 59 c 0
 119 56 119 56 119 52 c 0
 119 41 119 41 130 41 c 0
 141 41 141 41 166 65 c 1
102 90 m 1
 100 95 100 95 93 95 c 0
 70 95 70 95 45 60 c 0
 29 37 29 37 29 23 c 0
 29 13 29 13 39 13 c 0
 66 13 66 13 99 65 c 1
 97 75 97 75 97 76 c 0
 97 82 97 82 102 90 c 1
204 215 m 0
 217 215 217 215 217 205 c 0
 217 188 217 188 198 188 c 0
 185 188 185 188 185 199 c 0
 185 215 185 215 204 215 c 0
157 215 m 0
 169 215 169 215 169 205 c 0
 169 188 169 188 151 188 c 0
 138 188 138 188 138 199 c 0
 138 215 138 215 157 215 c 0
EndSplineSet
EndChar
StartChar: divide
Encoding: 247 247
Width: 115
Flags: W
Fore
-5 58 m 1
 -5 81 l 1
 144 81 l 1
 144 58 l 1
 -5 58 l 1
52 9 m 0
 52 25 52 25 68 25 c 0
 84 25 84 25 84 9 c 0
 84 -7 84 -7 68 -7 c 0
 52 -7 52 -7 52 9 c 0
52 132 m 0
 52 148 52 148 68 148 c 0
 84 148 84 148 84 132 c 0
 84 116 84 116 68 116 c 0
 52 116 52 116 52 132 c 0
EndSplineSet
EndChar
StartChar: oslash
Encoding: 248 248
Width: 146
Flags: W
Fore
166 65 m 1
 173 57 l 1
 145 31 145 31 128 31 c 0
 115 31 115 31 107 42 c 1
 103 38 l 1
 93 29 l 2
 60 -1 60 -1 25 -1 c 0
 17 -1 17 -1 7 4 c 1
 -21 -16 l 1
 -25 -8 l 1
 1 12 l 1
 -2 20 -2 20 -2 23 c 0
 -2 52 -2 52 39 82 c 0
 73 107 73 107 98 107 c 0
 110 107 110 107 118 100 c 1
 147 122 l 1
 152 115 l 1
 123 93 l 1
 126 86 126 86 126 80 c 0
 126 76 126 76 120 59 c 0
 119 56 119 56 119 52 c 0
 119 41 119 41 130 41 c 0
 141 41 141 41 166 65 c 1
102 90 m 1
 100 95 100 95 93 95 c 0
 70 95 70 95 45 60 c 0
 29 37 29 37 29 23 c 0
 29 13 29 13 39 13 c 0
 66 13 66 13 99 65 c 1
 97 75 97 75 97 76 c 0
 97 82 97 82 102 90 c 1
EndSplineSet
EndChar
StartChar: ugrave
Encoding: 249 249
Width: 171
Flags: W
Fore
87 103 m 1
 37 35 l 2
 28 23 28 23 28 19 c 0
 28 12 28 12 37 12 c 0
 64 12 64 12 102 62 c 2
 133 103 l 1
 163 103 l 1
 112 34 l 2
 104 23 104 23 104 20 c 0
 104 14 104 14 111 14 c 0
 138 14 138 14 191 65 c 1
 197 57 l 1
 194 55 l 2
 132 0 132 0 95 0 c 0
 75 0 75 0 75 15 c 0
 75 16 75 16 77 22 c 1
 47 0 47 0 24 0 c 0
 0 0 0 0 0 18 c 0
 0 29 0 29 19 53 c 1
 8 46 l 1
 4 51 l 1
 11 57 11 57 28 73.5 c 128
 45 90 45 90 56 103 c 1
 87 103 l 1
224 191 m 1
 200 197 200 197 178 214 c 0
 148 237 148 237 148 258 c 0
 148 270 148 270 159 270 c 0
 173 270 173 270 179 253 c 2
 185 235 l 2
 193 212 193 212 226 199 c 1
 224 191 l 1
EndSplineSet
EndChar
StartChar: uacute
Encoding: 250 250
Width: 171
Flags: W
Fore
87 103 m 1
 37 35 l 2
 28 23 28 23 28 19 c 0
 28 12 28 12 37 12 c 0
 64 12 64 12 102 62 c 2
 133 103 l 1
 163 103 l 1
 112 34 l 2
 104 23 104 23 104 20 c 0
 104 14 104 14 111 14 c 0
 138 14 138 14 191 65 c 1
 197 57 l 1
 194 55 l 2
 132 0 132 0 95 0 c 0
 75 0 75 0 75 15 c 0
 75 16 75 16 77 22 c 1
 47 0 47 0 24 0 c 0
 0 0 0 0 0 18 c 0
 0 29 0 29 19 53 c 1
 8 46 l 1
 4 51 l 1
 11 57 11 57 28 73.5 c 128
 45 90 45 90 56 103 c 1
 87 103 l 1
148 190 m 1
 146 198 l 1
 180 212 180 212 187 235 c 2
 192 252 l 2
 197 269 197 269 212 269 c 0
 224 269 224 269 224 258 c 0
 224 241 224 241 202 221 c 0
 177 198 177 198 148 190 c 1
EndSplineSet
EndChar
StartChar: ucircumflex
Encoding: 251 251
Width: 171
Flags: W
Fore
87 103 m 1
 37 35 l 2
 28 23 28 23 28 19 c 0
 28 12 28 12 37 12 c 0
 64 12 64 12 102 62 c 2
 133 103 l 1
 163 103 l 1
 112 34 l 2
 104 23 104 23 104 20 c 0
 104 14 104 14 111 14 c 0
 138 14 138 14 191 65 c 1
 197 57 l 1
 194 55 l 2
 132 0 132 0 95 0 c 0
 75 0 75 0 75 15 c 0
 75 16 75 16 77 22 c 1
 47 0 47 0 24 0 c 0
 0 0 0 0 0 18 c 0
 0 29 0 29 19 53 c 1
 8 46 l 1
 4 51 l 1
 11 57 11 57 28 73.5 c 128
 45 90 45 90 56 103 c 1
 87 103 l 1
109 177 m 1
 103 184 l 1
 105 185 105 185 123 199 c 0
 135 208 135 208 159 225 c 0
 171 234 171 234 175 234 c 0
 181 234 181 234 183 218 c 1
 185 205 l 1
 187 189 187 189 198 187 c 2
 203 186 l 1
 200 181 l 1
 195 180 195 180 187 180 c 0
 168 180 168 180 166 204 c 2
 165 215 l 1
 164 218 l 1
 109 177 l 1
EndSplineSet
EndChar
StartChar: udieresis
Encoding: 252 252
Width: 171
Flags: W
Fore
87 103 m 1
 37 35 l 2
 28 23 28 23 28 19 c 0
 28 12 28 12 37 12 c 0
 64 12 64 12 102 62 c 2
 133 103 l 1
 163 103 l 1
 112 34 l 2
 104 23 104 23 104 20 c 0
 104 14 104 14 111 14 c 0
 138 14 138 14 191 65 c 1
 197 57 l 1
 194 55 l 2
 132 0 132 0 95 0 c 0
 75 0 75 0 75 15 c 0
 75 16 75 16 77 22 c 1
 47 0 47 0 24 0 c 0
 0 0 0 0 0 18 c 0
 0 29 0 29 19 53 c 1
 8 46 l 1
 4 51 l 1
 11 57 11 57 28 73.5 c 128
 45 90 45 90 56 103 c 1
 87 103 l 1
205 215 m 0
 218 215 218 215 218 205 c 0
 218 188 218 188 199 188 c 0
 186 188 186 188 186 199 c 0
 186 215 186 215 205 215 c 0
158 215 m 0
 170 215 170 215 170 205 c 0
 170 188 170 188 152 188 c 0
 139 188 139 188 139 199 c 0
 139 215 139 215 158 215 c 0
EndSplineSet
EndChar
StartChar: ydieresis
Encoding: 255 255
Width: 165
Flags: W
Fore
62 -31 m 1
 85 -13 l 1
 117 10 l 2
 125 16 125 16 151 37 c 0
 163 46 163 46 185 65 c 1
 191 57 l 1
 188 55 l 2
 170 39 170 39 74 -34 c 2
 49 -53 l 1
 45 -60 l 1
 9 -120 l 2
 -125 -344 -125 -344 -193 -344 c 0
 -215 -344 -215 -344 -215 -319 c 0
 -215 -291 -215 -291 -186 -253 c 0
 -168 -230 -168 -230 -137 -198 c 0
 -98 -158 -98 -158 -24 -94 c 0
 -8 -81 -8 -81 22 -54 c 1
 35 -35 35 -35 46.5 -19 c 128
 58 -3 58 -3 74 21 c 0
 77 26 77 26 83 33 c 1
 47 0 47 0 22 0 c 0
 0 0 0 0 0 18 c 0
 0 28 0 28 3.5 33.5 c 128
 7 39 7 39 18 52 c 1
 8 46 l 1
 4 51 l 1
 11 57 11 57 28 73.5 c 128
 45 90 45 90 56 103 c 1
 85 103 l 1
 40 42 l 2
 36 36 36 36 29 27 c 0
 26 24 26 24 26 19 c 0
 26 13 26 13 33 13 c 0
 69 13 69 13 131 103 c 1
 159 103 l 1
 62 -31 l 1
7 -80 m 1
 -21 -105 l 2
 -37 -119 -37 -119 -62 -143 c 0
 -115 -193 -115 -193 -150 -237 c 0
 -195 -293 -195 -293 -195 -317 c 0
 -195 -330 -195 -330 -182 -330 c 0
 -138 -330 -138 -330 -54 -183 c 2
 -26 -134 l 1
 7 -80 l 1
190 216 m 0
 203 216 203 216 203 206 c 0
 203 189 203 189 184 189 c 0
 171 189 171 189 171 200 c 0
 171 216 171 216 190 216 c 0
143 216 m 0
 155 216 155 216 155 206 c 0
 155 189 155 189 137 189 c 0
 124 189 124 189 124 200 c 0
 124 216 124 216 143 216 c 0
EndSplineSet
EndChar
StartChar: dotlessi
Encoding: 305 305
Width: 93
Flags: W
HStem: 83 20G<57 87>
VStem: -1 29<17 23>
Fore
17 52 m 1
 8 46 l 1
 4 51 l 1
 11 56 11 56 27 72 c 0
 37 81 37 81 57 103 c 1
 87 103 l 1
 31 29 l 2
 28 26 28 26 28 21 c 0
 28 15 28 15 36 15 c 0
 61 15 61 15 113 65 c 1
 119 57 l 1
 116 55 l 2
 53 0 53 0 20 0 c 0
 -1 0 -1 0 -1 18 c 0
 -1 25 -1 25 9 40 c 2
 17 52 l 1
EndSplineSet
MinimumDistance: x3,-1 
EndChar
StartChar: OE
Encoding: 338 338
Width: 1033
Flags: W
Fore
736 413 m 1
 730 418 l 1
 762 460 762 460 762 517 c 0
 762 617 762 617 629 617 c 0
 536 617 536 617 445 572.5 c 128
 354 528 354 528 261 435 c 0
 182 356 182 356 132 266 c 0
 88 187 88 187 88 119 c 0
 88 9 88 9 214 9 c 0
 258 9 258 9 313 29 c 0
 345 41 345 41 376 56 c 0
 440 88 440 88 520 156 c 0
 586 212 586 212 632 278 c 0
 662 320 662 320 672 340 c 0
 706 405 706 405 706 461 c 0
 706 534 706 534 631 534 c 0
 581 534 581 534 513 496.5 c 128
 445 459 445 459 386 398 c 0
 276 285 276 285 276 208 c 0
 276 163 276 163 326 163 c 0
 371 163 371 163 436 221 c 0
 508 286 508 286 508 341 c 0
 508 342 508 342 506 356 c 1
 513 357 l 1
 514 347 514 347 514 336 c 0
 514 279 514 279 455 221 c 0
 388 155 388 155 321 155 c 0
 253 155 253 155 253 222 c 0
 253 281 253 281 315 356 c 0
 380 435 380 435 472.5 489 c 128
 565 543 565 543 635 543 c 0
 724 543 724 543 724 439 c 0
 724 397 724 397 702 346 c 1
 753 384 753 384 833 404 c 1
 831 413 831 413 831 424 c 0
 831 493 831 493 900.5 545.5 c 128
 970 598 970 598 1061 598 c 0
 1121 598 1121 598 1158.5 569.5 c 128
 1196 541 1196 541 1196 495 c 0
 1196 454 1196 454 1159.5 424.5 c 128
 1123 395 1123 395 1072 395 c 0
 1038 395 1038 395 1015 411 c 128
 992 427 992 427 992 451 c 0
 992 494 992 494 1047 504 c 1
 1048 498 l 1
 1005 484 1005 484 1005 451 c 0
 1005 431 1005 431 1024 417.5 c 128
 1043 404 1043 404 1072 404 c 0
 1115 404 1115 404 1148 433 c 128
 1181 462 1181 462 1181 500 c 0
 1181 539 1181 539 1147.5 564.5 c 128
 1114 590 1114 590 1063 590 c 0
 982 590 982 590 920.5 539.5 c 128
 859 489 859 489 859 423 c 0
 859 415 859 415 860 407 c 1
 882 409 882 409 883 409 c 0
 918 409 918 409 943.5 396 c 128
 969 383 969 383 969 366 c 0
 969 338 969 338 922 338 c 0
 864 338 864 338 835 394 c 1
 745 373 745 373 687.5 306 c 128
 630 239 630 239 630 156 c 0
 630 85 630 85 672.5 46.5 c 128
 715 8 715 8 792 8 c 0
 845 8 845 8 899 27 c 0
 963 49 963 49 1003.5 91 c 128
 1044 133 1044 133 1044 176 c 0
 1044 212 1044 212 1018.5 234.5 c 128
 993 257 993 257 952 257 c 0
 894 257 894 257 838 217 c 0
 763 163 763 163 763 105 c 0
 763 94 763 94 768 79 c 1
 762 78 l 1
 754 94 754 94 754 110 c 0
 754 164 754 164 811 212 c 0
 874 265 874 265 954 265 c 0
 1002 265 1002 265 1032.5 240.5 c 128
 1063 216 1063 216 1063 178 c 0
 1063 109 1063 109 980 54 c 128
 897 -1 897 -1 793 -1 c 0
 704 -1 704 -1 647 43 c 128
 590 87 590 87 590 155 c 0
 590 175 590 175 597 201 c 1
 581 187 l 2
 480 99 480 99 412 62 c 0
 295 -1 295 -1 214 -1 c 0
 174 -1 174 -1 141 9 c 0
 100 22 100 22 74.5 59.5 c 128
 49 97 49 97 49 147 c 0
 49 226 49 226 120 327.5 c 128
 191 429 191 429 298 506 c 0
 386 568 386 568 466 597 c 128
 546 626 546 626 630 626 c 0
 779 626 779 626 779 520 c 0
 779 461 779 461 736 413 c 1
862 397 m 1
 875 347 875 347 926 347 c 0
 953 347 953 347 953 366 c 0
 953 399 953 399 883 399 c 0
 872 399 872 399 862 397 c 1
EndSplineSet
EndChar
StartChar: oe
Encoding: 339 339
Width: 193
Flags: W
Fore
126 87 m 1
 161 108 161 108 180 108 c 0
 194 108 194 108 194 95 c 0
 194 84 194 84 179.5 73.5 c 128
 165 63 165 63 115 38 c 1
 113 34 113 34 113 29 c 0
 113 15 113 15 128 15 c 0
 160 15 160 15 213 65 c 1
 219 57 l 1
 216 55 l 2
 153 0 153 0 110 0 c 0
 83 0 83 0 81 20 c 1
 49 0 49 0 26 0 c 0
 -1 0 -1 0 -1 23 c 0
 -1 53 -1 53 40 83 c 0
 73 107 73 107 99 107 c 0
 120 107 120 107 126 87 c 1
103 85 m 0
 103 95 103 95 93 95 c 0
 85 95 85 95 77 90 c 0
 62 81 62 81 45.5 59.5 c 128
 29 38 29 38 29 23 c 0
 29 13 29 13 39 13 c 0
 51 13 51 13 70 30 c 0
 103 60 103 60 103 85 c 0
124 54 m 1
 174 75 174 75 174 90 c 0
 174 95 174 95 169 95 c 0
 147 95 147 95 124 54 c 1
EndSplineSet
EndChar
StartChar: circumflex
Encoding: 710 710
Width: 159
Flags: W
Fore
110 178 m 1
 104 185 l 1
 106 186 106 186 124 200 c 0
 136 209 136 209 160 226 c 0
 172 235 172 235 176 235 c 0
 182 235 182 235 184 219 c 1
 186 206 l 1
 188 190 188 190 199 188 c 2
 204 187 l 1
 201 182 l 1
 196 181 196 181 188 181 c 0
 169 181 169 181 167 205 c 2
 166 216 l 1
 165 219 l 1
 110 178 l 1
EndSplineSet
EndChar
StartChar: breve
Encoding: 728 728
Width: 159
Flags: WO
DStem: 139.997 235 146.75 235 131.995 222.499 139.25 222 186.5 235 203.151 235.021 178.346 220.646 189.75 218
Fore
139.997 235 m 25
 146.75 235 l 25
 139.25 222 l 26
 134.506 213.776 134.506 213.776 137.822 208.69 c 16
 144.038 199.159 144.038 199.159 153.162 200.667 c 16
 164.75 202 164.75 202 171.75 210.5 c 0
 173.936 212.884 173.936 212.884 178.346 220.646 c 26
 186.5 235 l 25
 203.151 235.021 l 25
 189.75 218 l 18
 179.323 204.757 179.323 204.757 179 204.5 c 0
 162.557 191.414 162.557 191.414 154.5 191.5 c 0
 139.862 191.25 139.862 191.25 133.5 198.25 c 0
 128.161 204.622 128.161 204.622 127.75 211.25 c 8
 127.489 215.459 127.489 215.459 131.995 222.499 c 26
 139.997 235 l 25
EndSplineSet
EndChar
StartChar: endash
Encoding: 8211 8211
Width: 185
Flags: W
Fore
163 76 m 1
 169 70 l 1
 166 67 l 2
 127 36 127 36 112 36 c 0
 104 36 104 36 92.5 43.5 c 128
 81 51 81 51 73 51 c 0
 64 51 64 51 46 36 c 1
 40 42 l 1
 48 50 48 50 57 57 c 2
 66 64 l 2
 81 76 81 76 91 76 c 0
 97 76 97 76 100 74 c 2
 112 67 l 2
 122 61 122 61 134 61 c 0
 144 61 144 61 163 76 c 1
EndSplineSet
EndChar
StartChar: emdash
Encoding: 8212 8212
Width: 232
Flags: W
Fore
198 66 m 1
 204 59 l 1
 201 56 l 2
 163 26 163 26 147 26 c 0
 137 26 137 26 121 33 c 2
 90 47 l 2
 81 51 81 51 73 51 c 0
 64 51 64 51 46 36 c 1
 40 42 l 1
 48 50 48 50 57 57 c 2
 66 64 l 2
 81 76 81 76 91 76 c 0
 99 76 99 76 115 68 c 128
 131 60 131 60 135 59 c 0
 162 50 162 50 166 50 c 0
 178 50 178 50 198 66 c 1
EndSplineSet
EndChar
StartChar: quoteleft
Encoding: 8216 8216
Width: 64
Flags: W
Fore
226 303 m 1
 227 295 l 1
 193 282 193 282 186 259 c 2
 181 242 l 1
 175 226 175 226 160 226 c 0
 149 226 149 226 149 237 c 0
 149 254 149 254 172 275 c 128
 195 296 195 296 226 303 c 1
EndSplineSet
EndChar
StartChar: quoteright
Encoding: 8217 8217
Width: 150
Flags: W
Fore
178 227 m 1
 176 235 l 1
 210 249 210 249 217 272 c 2
 222 289 l 2
 227 306 227 306 242 306 c 0
 254 306 254 306 254 295 c 0
 254 278 254 278 232 258 c 0
 207 235 207 235 178 227 c 1
EndSplineSet
EndChar
StartChar: quotedblleft
Encoding: 8220 8220
Width: 158
Flags: W
Fore
292 303 m 1
 293 296 l 1
 259 282 259 282 252 259 c 2
 247 242 l 1
 241 226 241 226 226 226 c 0
 215 226 215 226 215 237 c 0
 215 254 215 254 241 278 c 1
 263 296 263 296 292 303 c 1
226 303 m 1
 227 295 l 1
 193 282 193 282 186 259 c 2
 181 242 l 1
 175 226 175 226 160 226 c 0
 149 226 149 226 149 237 c 0
 149 254 149 254 172 275 c 128
 195 296 195 296 226 303 c 1
EndSplineSet
EndChar
StartChar: quotedblright
Encoding: 8221 8221
Width: 151
Flags: W
Fore
150 227 m 1
 148 235 l 1
 182 249 182 249 189 272 c 2
 194 289 l 2
 199 306 199 306 214 306 c 0
 226 306 226 306 226 295 c 0
 226 278 226 278 204 258 c 0
 178 234 178 234 150 227 c 1
216 227 m 1
 214 235 l 1
 248 249 248 249 255 272 c 2
 260 289 l 2
 265 306 265 306 280 306 c 0
 292 306 292 306 292 295 c 0
 292 278 292 278 270 258 c 0
 244 234 244 234 216 227 c 1
EndSplineSet
EndChar
StartChar: dagger
Encoding: 8224 8224
Width: 149
Flags: W
Fore
32 -5 m 1
 23 -4 l 1
 27 2 27 2 46 28 c 0
 79 73 79 73 89 89 c 0
 113 127 113 127 126 153 c 2
 127 155 l 1
 128 158 l 1
 130 162 l 1
 131 165 l 1
 132 169 l 1
 165 190 165 190 197 234 c 1
 186 234 l 2
 178 234 178 234 157 228 c 0
 143 224 143 224 137 224 c 0
 125 224 125 224 125 233 c 0
 125 243 125 243 133 250.5 c 128
 141 258 141 258 152 258 c 0
 158 258 158 258 170.5 251.5 c 128
 183 245 183 245 203 242 c 1
 222 266 222 266 229 286 c 1
 231 289 l 1
 233 295 233 295 234.5 298.5 c 128
 236 302 236 302 238 309 c 1
 250 331 250 331 269 331 c 0
 279 331 279 331 279 321 c 0
 279 309 279 309 255.5 288.5 c 128
 232 268 232 268 211 242 c 1
 217 242 l 0
 221 241 221 241 222 241 c 0
 228 241 228 241 249 247 c 0
 263 251 263 251 272 251 c 0
 286 251 286 251 286 242 c 0
 286 236 286 236 277.5 226.5 c 128
 269 217 269 217 258 217 c 0
 249 217 249 217 239 224 c 0
 226 233 226 233 205 233 c 1
 179 196 179 196 176 182 c 2
 174 172 l 1
 172 166 l 1
 172 164 l 1
 159 153 159 153 135 128 c 0
 99 89 99 89 56 28 c 2
 44 11 l 1
 32 -5 l 1
EndSplineSet
EndChar
StartChar: bullet
Encoding: 8226 8226
Width: 156
Flags: W
Fore
35 52 m 0
 35 75 35 75 50.5 91 c 128
 66 107 66 107 88 107 c 0
 110 107 110 107 125.5 91 c 128
 141 75 141 75 141 53 c 0
 141 31 141 31 126 15.5 c 128
 111 0 111 0 88 0 c 0
 66 0 66 0 50.5 15 c 128
 35 30 35 30 35 52 c 0
EndSplineSet
EndChar
StartChar: ellipsis
Encoding: 8230 8230
Width: 210
Flags: W
Fore
57 31 m 0
 71 31 71 31 71 19 c 0
 71 0 71 0 50 0 c 0
 36 0 36 0 36 12 c 0
 36 31 36 31 57 31 c 0
126 31 m 0
 139 31 139 31 139 19 c 0
 139 0 139 0 119 0 c 0
 105 0 105 0 105 12 c 0
 105 31 105 31 126 31 c 0
194 31 m 0
 208 31 208 31 208 19 c 0
 208 0 208 0 187 0 c 0
 173 0 173 0 173 12 c 0
 173 31 173 31 194 31 c 0
EndSplineSet
Ligature: 8 'liga' period period period
EndChar
StartChar: perthousand
Encoding: 8240 8240
Width: 432
Flags: W
Fore
8 -4 m 1
 1 6 l 1
 340 251 l 1
 301 238 301 238 281 238 c 0
 263 238 263 238 251 247 c 1
 242 224 242 224 214 205.5 c 128
 186 187 186 187 162 187 c 0
 133 187 133 187 133 211 c 0
 133 239 133 239 169 266 c 0
 202 291 202 291 230 291 c 0
 256 291 256 291 256 272 c 2
 256 265 l 2
 256 248 256 248 286 248 c 0
 328 248 328 248 367 271 c 1
 374 279 l 2
 399 308 399 308 411 308 c 0
 418 308 418 308 418 301 c 0
 418 296 418 296 402 283 c 2
 387 271 l 1
 8 -4 l 1
181 -1 m 0
 158 1 158 1 158 23 c 0
 158 51 158 51 193 77 c 128
 228 103 228 103 256 103 c 0
 288 103 288 103 288 78 c 0
 288 62 288 62 269 41 c 0
 230 -2 230 -2 188 -2 c 0
 183 -2 183 -2 181 -1 c 0
332 -1 m 0
 310 1 310 1 310 23 c 0
 310 52 310 52 344.5 77.5 c 128
 379 103 379 103 407 103 c 0
 439 103 439 103 439 78 c 0
 439 62 439 62 420 41 c 0
 381 -2 381 -2 339 -2 c 0
 334 -2 334 -2 332 -1 c 0
241 282 m 1
 233 284 233 284 232 284 c 0
 216 284 216 284 194 264 c 0
 162 235 162 235 162 213 c 0
 162 199 162 199 176 199 c 0
 191 199 191 199 211.5 218.5 c 128
 232 238 232 238 240 261 c 1
 237 270 237 270 237 276 c 0
 237 278 237 278 241 282 c 1
269 79 m 1
 269 83 l 2
 269 96 269 96 258 96 c 0
 240 96 240 96 219 76 c 0
 187 46 187 46 187 24 c 0
 187 11 187 11 202 11 c 0
 218 11 218 11 238 30 c 0
 266 56 266 56 269 79 c 1
420 79 m 1
 420 83 l 2
 420 96 420 96 409 96 c 0
 391 96 391 96 370 76 c 0
 338 46 338 46 338 24 c 0
 338 11 338 11 353 11 c 0
 369 11 369 11 389 30 c 0
 417 56 417 56 420 79 c 1
EndSplineSet
EndChar
StartChar: trademark
Encoding: 8482 8482
Width: 343
Flags: W
Fore
251 213 m 1
 263 214 263 214 263 221 c 2
 263 294 l 1
 242 294 l 2
 235 294 235 294 228 282 c 0
 227 280 227 280 222 274 c 1
 221 275 l 1
 226 301 l 1
 227 301 l 1
 232 299 l 1
 307 299 l 1
 312 301 l 1
 313 301 l 1
 318 275 l 1
 316 274 l 1
 315 275 l 1
 313 280 l 1
 310 285 l 2
 303 294 303 294 298 294 c 2
 276 294 l 1
 276 221 l 2
 276 214 276 214 288 213 c 1
 288 209 l 1
 251 209 l 1
 251 213 l 1
408 287 m 1
 374 209 l 1
 372 209 l 1
 337 287 l 1
 336 287 l 1
 336 221 l 2
 336 215 336 215 348 213 c 1
 348 209 l 1
 320 209 l 1
 320 213 l 1
 332 213 332 213 332 221 c 2
 332 289 l 2
 332 294 332 294 322 295 c 1
 322 299 l 1
 344 299 l 1
 374 226 l 1
 407 299 l 1
 431 299 l 1
 431 295 l 1
 421 294 421 294 421 287 c 2
 421 221 l 2
 421 213 421 213 431 213 c 1
 431 209 l 1
 397 209 l 1
 397 213 l 1
 408 214 408 214 408 221 c 2
 408 287 l 1
EndSplineSet
Ligature: 8 'liga' T M
EndChar
